<?xml version="1.0" encoding="utf-8"?><svg xmlns:xlink="http://www.w3.org/1999/xlink" id="Scene_1" image-rendering="auto" baseProfile="basic" version="1.1" x="0px" y="0px" width="100" height="100" viewBox="0 0 100 100" xmlns="http://www.w3.org/2000/svg"><g id="Scene 1_1.0"><path fill="#F1EFEE" d="M59.75,31.75Q58.65,31.9 57.85,32.9 56.8,34.25 57.35,35.6L58.35,35.25Q58,34.3 58.65,33.5 59.1,32.85 59.8,32.8 60.5,32.75 61.15,33.25 61.8,33.8 61.95,34.45 62.1,35.2 61.6,35.8 61,36.55 60.1,36.45L60.05,37.45Q61.4,37.6 62.35,36.4 63.1,35.4 62.95,34.3 62.8,33.15 61.85,32.4 60.85,31.65 59.75,31.75"/><path fill="#F1EFEE" d="M48.75,43.9L49.45,44.55 51.25,42.5 52.25,43.4 50.8,45.1 51.5,45.7 52.95,44 53.95,44.9 52.2,46.85 52.95,47.5 55.4,44.7 51.25,41.05 48.75,43.9"/><path fill="#F1EFEE" d="M39.7,53.2L38.95,53.95 42.85,57.95 42.95,57.85 42.7,53.8 46.75,54.1 46.85,54.05 42.95,50.05 42.15,50.8 44.55,53.15 41.8,52.8 41.75,52.9 42,55.65 41.35,54.85 39.7,53.2"/><path fill="#F1EFEE" d="M37.65,57.95L36.3,56.45 35.45,57.15 36.85,58.7 37.8,62.5 38.7,61.7 38.25,60.05Q37.95,59.1 37.75,58.9 37.85,58.95 38.85,59.45L40.5,60.05 41.4,59.2 37.65,57.95"/><path fill="#F1EFEE" d="M44.95,47.95L44.2,48.75 46.675,49.625Q47.412,49.462 47.35,48.9L46.6,48.6 47.65,47.45 48,48.175Q48.433,48.214 48.7,47.425L47.7,45.05 46.95,45.85 47.35,46.7 45.85,48.25 44.95,47.95"/><path fill="#F1EFEE" d="M57.35,39.525Q58.157,39.357 58.025,38.625L55.25,36.35 54.55,37.2 56,38.4 55.5,39 53.3,38.65 52.5,39.6 54.9,39.95Q54.5,41.1 55.4,41.85 55.457,41.899 55.525,41.95 56.357,41.587 56.2,41.025L56.15,41Q55.45,40.4 56.15,39.55L56.65,38.95 57.35,39.525"/></g><g id="Scene 1_0.0"><path fill="#F1EFEE" d="M56.2,41.025Q55.398,41.209 55.525,41.95 56.859,42.98 58.25,41.35L59.5,39.85 58.025,38.625Q57.193,38.877 57.35,39.525L58.05,40.1 57.55,40.7Q56.829,41.469 56.2,41.025"/><path fill="#F1EFEE" d="M48.7,47.425Q48.164,47.335 48,48.175L48.15,48.5Q48.4,49.2 48.65,49.45L47.35,48.9Q46.733,48.982 46.675,49.625L49.95,50.8 50.05,50.7 48.7,47.425"/></g><defs/></svg>