<?xml version="1.0" encoding="utf-8"?><svg xmlns:xlink="http://www.w3.org/1999/xlink" id="Scene_1" image-rendering="auto" baseProfile="basic" version="1.1" x="0px" y="0px" width="100" height="100" viewBox="0 0 100 100" xmlns="http://www.w3.org/2000/svg"><g id="Scene 1_1.0"><path fill="#F1EFEE" d="M47.15,30.4L48.7,30.15 49.1,32.65 50.05,32.5 49.5,28.9 44.05,29.8 44.2,30.85 46.2,30.55 46.55,32.8 47.5,32.65 47.15,30.4"/><path fill="#F1EFEE" d="M50.5,35.7L50.4,34.6 44.9,35.35 45.4,38.9 46.35,38.8 46,36.3 50.5,35.7"/><path fill="#F1EFEE" d="M52.3,61.6L52.3,60.5 46.8,60.6 46.85,64.2 47.8,64.2 47.75,61.7 52.3,61.6"/><path fill="#F1EFEE" d="M48.45,39.95Q48.379,39.944 48.3,39.95 47.1,40.1 46.35,41.05 45.65,42 45.75,43.2 45.85,44.4 46.75,45.15 47.65,45.95 48.9,45.8 48.939,45.797 48.975,45.8 49.598,45.25 48.875,44.7 48.815,44.696 48.75,44.7 47.95,44.8 47.4,44.35 46.85,43.9 46.75,43.1 46.65,42.3 47.1,41.75 47.55,41.2 48.4,41.1 48.478,41.095 48.55,41.1 48.89,40.33 48.45,39.95"/><path fill="#F1EFEE" d="M46.3,48.1L46.35,49.15 48.25,49.05 48.3,49.85 46.5,51.1 46.55,52.35 48.55,50.95Q48.919,51.965 50,51.95 50.407,51.4 50.05,50.85 49.197,50.794 49.15,49.75L49.1,49 50.125,48.95Q50.65,48.4 50.175,47.85L46.3,48.1"/><path fill="#F1EFEE" d="M46.65,54.85L47.55,55.15 47.6,57.3 46.75,57.7 46.8,58.85 49.15,57.725Q49.602,57.2 49.15,56.675L48.35,57 48.3,55.45 49.15,55.75Q49.524,55.169 49.15,54.775L46.65,53.75 46.65,54.85"/></g><g id="Scene 1_0.0"><path fill="#F1EFEE" d="M48.875,44.7Q48.252,45.154 48.975,45.8 50.124,45.669 50.85,44.75 51.55,43.8 51.4,42.6 51.3,41.4 50.45,40.65 49.607,39.901 48.45,39.95 47.851,40.618 48.55,41.1 49.301,41.087 49.8,41.45 50.4,41.9 50.45,42.7 50.55,43.5 50.05,44.05 49.591,44.601 48.875,44.7"/><path fill="#F1EFEE" d="M50.175,47.85Q49.697,48.4 50.125,48.95L50.9,48.9 50.95,49.65Q51.05,50.8 50.15,50.85 50.102,50.85 50.05,50.85 49.625,51.3 50,51.95 50.103,51.958 50.2,51.95 52.05,51.9 51.9,49.6L51.8,47.75 50.175,47.85"/><path fill="#F1EFEE" d="M52.3,56.2L52.3,56.05 49.15,54.775Q48.755,55.263 49.15,55.75L49.4,55.85Q49.8,56.05 50.4,56.15L49.15,56.675Q48.879,57.471 49.15,57.725L52.3,56.2"/></g><defs/></svg>