<?xml version="1.0" encoding="utf-8"?><svg xmlns:xlink="http://www.w3.org/1999/xlink" id="Scene_1" image-rendering="auto" baseProfile="basic" version="1.1" x="0px" y="0px" width="100" height="100" viewBox="0 0 100 100" xmlns="http://www.w3.org/2000/svg"><g id="Scene 1_1.0"><path fill="#F1EFEE" d="M43.8,35.6L42,36.6 38.05,36.65 38.65,37.65 40.35,37.6Q41.25,37.6 41.5,37.5L40.75,38.35 39.8,39.8 40.45,40.9 42.55,37.55 44.3,36.55 43.8,35.6"/><path fill="#F1EFEE" d="M47.4,41.85L46.85,40.9 42.95,43.25 42.1,41.85 41.25,42.35 43.55,46.1 44.35,45.6 43.5,44.2 47.4,41.85"/><path fill="#F1EFEE" d="M44.65,47.85L45.25,48.8 49.9,45.85 49.3,44.9 44.65,47.85"/><path fill="#F1EFEE" d="M52.4,49.45Q51.15,47.65 49.35,48.85L46.5,50.75 47.1,51.65 49.95,49.75Q50.95,49.1 51.55,50 52.25,50.9 51.2,51.65L48.35,53.55 48.95,54.45 51.85,52.5Q52.7,51.95 52.8,51.1 52.95,50.3 52.4,49.45"/><path fill="#F1EFEE" d="M54.65,60.7L53.9,61.25 56.1,64.15 60.45,60.8 59.8,59.95 58.25,61.15 56.85,59.3 56.05,59.9 57.45,61.75 56.2,62.7 54.65,60.7"/><path fill="#F1EFEE" d="M51.7,55.1Q51.676,55.117 51.65,55.125 51.613,55.847 52.3,56.025L52.35,56Q53.05,55.45 53.7,56.4L54.2,57.05 53.45,57.575Q53.332,58.278 54.1,58.45L57.05,56.3 56.4,55.4 54.9,56.5 54.45,55.9 55.3,53.85 54.55,52.85 53.65,55.1Q52.65,54.35 51.7,55.1"/></g><g id="Scene 1_0.0"><path fill="#F1EFEE" d="M52.3,56.025Q52.341,55.117 51.65,55.125 50.22,56.179 51.45,58L52.6,59.55 54.1,58.45Q54.159,57.629 53.45,57.575L52.7,58.1 52.25,57.45Q51.567,56.572 52.3,56.025"/></g><defs/></svg>