<?xml version="1.0" encoding="utf-8"?><svg xmlns:xlink="http://www.w3.org/1999/xlink" id="Scene_1" image-rendering="auto" baseProfile="basic" version="1.1" x="0px" y="0px" width="60" height="60" viewBox="0 0 60 60" xmlns="http://www.w3.org/2000/svg"><g id="Scene 1_1.0"><path fill="#F1EFEE" d="M30,28.8L29.95,28.85 26.4,25.3 26.4,31.4 29.95,34.9 30,34.85Q31.096,31.925 30,28.8"/><path fill="#F1EFEE" d="M30,7.4L29.95,7.4Q28.85,7.4 28.05,8.05L25.75,10Q24.45,11.05 22.45,11.95 20.45,12.75 18.75,12.9L15.75,13.15Q14.75,13.2 13.9,14 13.15,14.8 13,15.85L12.8,18.8Q12.65,20.5 11.85,22.55 11,24.55 9.95,25.85L7.9,28.1Q7.25,28.9 7.25,30 7.25,31.15 7.9,31.9L9.85,34.25Q11,35.55 11.85,37.55 12.65,39.55 12.8,41.3L13,44.25Q13.15,45.25 13.9,46.1 14.75,46.85 15.75,47L18.75,47.2Q20.45,47.35 22.45,48.15 24.45,49 25.75,50.1L28.05,52.05Q28.85,52.75 29.95,52.75L30,52.75Q31.289,45.773 30,38.4L29.95,38.45 26.4,34.95 26.4,41.4 23.85,41.4 23.85,32.45 21.15,29.75 21.15,35.95 18.6,35.95 18.6,23.7 23.85,28.9 23.85,19.1 29.95,25.3 30,25.25Q31.427,16.42 30,7.4"/><path fill="#F1EFEE" d="M30,6.15Q30.673,5.5 30,4.85L29.95,4.85Q27.9,4.85 26.4,6.15L24.1,8.05Q23.15,8.85 21.5,9.55 19.85,10.3 18.55,10.4L15.55,10.65Q13.6,10.75 12.15,12.25 10.7,13.65 10.55,15.6L10.3,18.65Q10.15,19.9 9.5,21.6 8.8,23.25 8,24.2L6,26.5Q4.8,27.95 4.8,30 4.8,32.1 6,33.6L8,35.9Q8.8,36.85 9.5,38.5 10.15,40.2 10.3,41.45L10.55,44.5Q10.7,46.4 12.15,47.85 13.6,49.35 15.55,49.45L18.55,49.7Q19.75,49.8 21.5,50.55 23.15,51.2 24.1,52L26.4,53.95Q27.9,55.2 29.95,55.2L30,55.2Q30.63,54.575 30,53.95L29.95,53.95Q28.35,53.95 27.25,53L24.95,51.05Q23.8,50.1 21.95,49.35 20.15,48.6 18.65,48.45L15.6,48.2Q14.15,48.1 13,47 11.9,45.85 11.75,44.35L11.55,41.35Q11.4,39.85 10.65,38 9.85,36.2 8.95,35.05L6.95,32.75Q6,31.6 6,30 6,28.4 6.95,27.3L8.95,25.05Q9.85,23.9 10.65,22.1 11.4,20.2 11.55,18.7L11.75,15.75Q11.9,14.25 13,13.15 14.15,12 15.6,11.9L18.65,11.65Q20.15,11.55 21.95,10.75 23.8,10 24.95,9.05L27.25,7.1Q28.35,6.15 29.95,6.15L30,6.15"/></g><g id="Scene 1_0.0"><path fill="#F1EFEE" d="M33.55,31.4L33.55,25.3 30,28.8Q29.104,31.626 30,34.85L33.55,31.4"/><path fill="#F1EFEE" d="M46.85,15.85Q46.8,14.8 45.95,14 45.2,13.2 44.2,13.15L41.15,12.9Q39.5,12.75 37.5,11.95 35.4,11.05 34.2,10L31.85,8.05Q31.116,7.414 30,7.4 28.483,16.325 30,25.25L36.1,19.1 36.1,28.9 41.35,23.6 41.35,35.95 38.8,35.95 38.8,29.75 36.1,32.45 36.1,41.4 33.55,41.4 33.55,34.95 30,38.4Q28.937,45.478 30,52.75 31.116,52.735 31.85,52.05L34.2,50.1Q35.4,49 37.5,48.15 39.5,47.35 41.15,47.2L44.2,47Q45.2,46.85 45.95,46.1 46.8,45.25 46.85,44.25L47.1,41.3Q47.3,39.55 48.1,37.55 48.95,35.55 50,34.25L51.95,31.9Q52.65,31.15 52.65,30 52.65,28.9 51.95,28.1L50,25.85Q48.95,24.55 48.1,22.55 47.2,20.5 47.1,18.8L46.85,15.85"/><path fill="#F1EFEE" d="M44.35,10.65L41.35,10.4Q40.1,10.3 38.45,9.55 36.8,8.85 35.8,8.05L33.55,6.15Q32.019,4.866 30,4.85 29.381,5.677 30,6.15 31.568,6.165 32.7,7.1L35,9.05Q36.1,10 37.95,10.75 39.8,11.55 41.3,11.65L44.25,11.9Q45.75,12 46.85,13.15 48.05,14.25 48.1,15.75L48.35,18.7Q48.5,20.2 49.3,22.1 50,23.9 50.95,25.05L52.9,27.3Q53.9,28.4 53.9,30 53.9,31.6 52.9,32.75L50.95,35.05Q50,36.2 49.3,38 48.5,39.85 48.35,41.35L48.1,44.35Q48.05,45.85 46.85,47 45.75,48.1 44.25,48.2L41.3,48.45Q39.8,48.6 37.95,49.35 36.1,50.1 35,51.05L32.7,53Q31.568,53.935 30,53.95 29.57,54.575 30,55.2 32.019,55.185 33.55,53.95L35.8,52Q36.8,51.2 38.45,50.55 40.1,49.8 41.35,49.7L44.35,49.45Q46.25,49.35 47.75,47.85 49.25,46.4 49.4,44.5L49.65,41.45Q49.7,40.15 50.4,38.5 51.15,36.85 51.95,35.9L53.9,33.6Q55.15,32.1 55.15,30 55.15,27.95 53.9,26.5L51.95,24.2Q51.15,23.25 50.4,21.6 49.7,19.9 49.65,18.65L49.4,15.6Q49.25,13.65 47.8,12.25 46.35,10.75 44.35,10.65"/></g><defs/></svg>