<?xml version="1.0" encoding="utf-8"?><svg xmlns:xlink="http://www.w3.org/1999/xlink" id="Scene_1" image-rendering="auto" baseProfile="basic" version="1.1" x="0px" y="0px" width="220" height="30" viewBox="0 0 220 30" xmlns="http://www.w3.org/2000/svg"><g id="Scene 1_1.0"><path fill="#F3F0EF" d="M23.1,3.9L22.65,3.9 12.25,15.85 1.65,3.9 1.2,3.9 1.2,25.85 5.4,25.85 5.4,16.65Q5.15,12.8 5.15,12.7 5.2,12.9 5.95,13.95 6.8,15.2 7.6,16.1L12,21.15 12.35,21.15 16.65,16.1Q17.9,14.7 19.15,12.7 19.1,12.8 19,14.1 18.9,15.55 18.9,16.65L18.9,25.85 23.1,25.85 23.1,3.9"/><path fill="#F3F0EF" d="M80.15,4.15L76.2,4.15 76.2,13.6Q76.2,15.5 76.45,17.7 75.65,16.5 73.75,14.6L62.8,3.9 62.35,3.9 62.35,25.85 66.3,25.85 66.3,16.35Q66.3,15.25 66.15,13.7 65.95,12.3 65.95,12.25 66.05,12.45 66.85,13.45 67.85,14.55 68.65,15.35L79.7,26.15 80.15,26.15 80.15,4.15"/><path fill="#F3F0EF" d="M135.1,9.8L137.9,6.95Q134.95,3.8 129.85,3.8 125.05,3.8 121.85,6.95 118.55,10.1 118.55,15 118.55,19.9 121.75,23.05 125,26.2 130.25,26.2 135.45,26.2 138.75,23.7L138.75,14.55 129.7,14.55 129.7,18.05 134.85,18.05 134.85,21.35Q132.9,22.55 130.25,22.55 126.7,22.55 124.75,20.35 122.95,18.3 122.95,15 122.95,11.85 124.8,9.75 126.75,7.6 129.85,7.6 133.2,7.6 135.1,9.8"/><path fill="#F3F0EF" d="M218.85,3.9L218.45,3.9 208,15.85 197.4,3.9 197,3.9 197,25.85 201.15,25.85 201.15,16.65Q200.9,12.8 200.9,12.7 200.95,12.8 201.75,13.95 202.65,15.25 203.4,16.1L207.75,21.15 208.15,21.15 212.45,16.1Q213.65,14.7 214.95,12.7 214.9,12.8 214.8,14.1 214.7,15.55 214.7,16.65L214.7,25.85 218.85,25.85 218.85,3.9"/><path fill="#F3F0EF" d="M47.85,20.3Q45.85,22.35 42.7,22.35 39.6,22.35 37.6,20.3 36.083,18.745 35.725,16.5 33.682,14.862 31.275,16.5 31.74,20.359 34.6,23.05 37.95,26.2 42.7,26.2 47.5,26.2 50.85,23.05 53.71,20.359 54.175,16.5 51.64,14.6 49.675,16.5 49.329,18.745 47.85,20.3"/><path fill="#F3F0EF" d="M111.3,15Q109.1,12.875 106.9,15 106.9,18.25 104.9,20.3 102.9,22.35 99.8,22.35 96.65,22.35 94.7,20.3 92.7,18.25 92.7,15 90.475,13.751 88.25,15 88.25,19.85 91.65,23.05 95,26.2 99.8,26.2 104.55,26.2 107.9,23.05 111.3,19.85 111.3,15"/><path fill="#F3F0EF" d="M151.45,12Q149.3,10.884 147.15,12L147.15,25.85 151.45,25.85 151.45,18.45 154.55,18.45 159.05,25.85 163.95,25.85 158.9,17.75Q163.134,16.292 163.375,12 161.348,10.319 158.925,12 158.585,14.95 154.5,14.95L151.45,14.95 151.45,12"/><path fill="#F3F0EF" d="M178.125,15.75Q177.466,13.802 174.275,15.75L169.8,25.85 174,25.85 175.35,22.45 183.85,22.45 185.25,25.85 189.75,25.85 185.25,15.75Q182.938,14.255 181.225,15.75L182.7,19.4 176.6,19.4 178.125,15.75"/></g><g id="Scene 1_0.0"><path fill="#F3F0EF" d="M49.675,16.5Q51.925,17.992 54.175,16.5 54.25,15.771 54.25,15 54.25,10.15 50.85,6.95 47.5,3.8 42.7,3.8 37.9,3.8 34.6,6.95 31.2,10.15 31.2,15 31.2,15.771 31.275,16.5 33.783,18.104 35.725,16.5 35.6,15.785 35.6,15 35.6,11.8 37.6,9.7 39.6,7.6 42.7,7.6 45.85,7.6 47.85,9.7 49.8,11.8 49.8,15 49.8,15.785 49.675,16.5"/><path fill="#F3F0EF" d="M106.9,15Q108.904,16.955 111.3,15 111.3,10.15 107.9,6.95 104.6,3.8 99.8,3.8 95,3.8 91.65,6.95 88.25,10.15 88.25,15 90.475,16.988 92.7,15 92.7,11.8 94.7,9.7 96.65,7.6 99.8,7.6 102.9,7.6 104.9,9.7 106.9,11.8 106.9,15"/><path fill="#F3F0EF" d="M163.375,12Q163.4,11.731 163.4,11.45 163.4,7.9 161,5.95 158.7,4.15 154.65,4.15L147.15,4.15 147.15,12Q149.3,13.907 151.45,12L151.45,7.9 154.5,7.9Q158.95,7.9 158.95,11.45 158.95,11.737 158.925,12 160.684,14.145 163.375,12"/><path fill="#F3F0EF" d="M179.95,3.9L179.5,3.9 174.275,15.75Q176.2,17.016 178.125,15.75L178.3,15.3Q178.8,14.2 179.25,12.75 179.65,11.5 179.65,11.35 179.65,11.5 180.05,12.75 180.55,14.2 181.05,15.3L181.225,15.75Q183.965,17.57 185.25,15.75L179.95,3.9"/></g><defs/></svg>