<?xml version="1.0" encoding="utf-8"?><svg xmlns:xlink="http://www.w3.org/1999/xlink" id="Scene_1" image-rendering="auto" baseProfile="basic" version="1.1" x="0px" y="0px" width="20" height="20" viewBox="0 0 20 20" xmlns="http://www.w3.org/2000/svg"><g id="Scene 1_2.0"><path fill="#EDEBEC" d="M15.4,10.1Q14.95,9.155 14.5,10.1 14.482,11.917 13.2,13.15 11.9,14.45 10,14.45 8.2,14.45 6.9,13.15 5.618,11.917 5.6,10.1 5.125,9.405 4.65,10.1 4.668,12.268 6.25,13.85 7.8,15.4 10,15.4 12.3,15.4 13.85,13.85 15.382,12.268 15.4,10.1"/></g><g id="Scene 1_1.0"><path fill="#EDEBEC" d="M14.5,10.1Q14.95,10.856 15.4,10.1L15.4,10.05Q15.4,7.75 13.85,6.25 12.3,4.65 10,4.65 7.8,4.65 6.25,6.25 4.65,7.75 4.65,10.05L4.65,10.1Q5.125,10.795 5.6,10.1L5.6,10.05Q5.6,8.15 6.9,6.85 8.2,5.55 10,5.55 11.9,5.55 13.2,6.85 14.5,8.15 14.5,10.05L14.5,10.1"/></g><g id="Scene 1_0.0"><path fill="#EDEBEC" d="M9.6,11.25L12.6,11.25Q13.05,11.25 13.05,10.8 13.05,10.35 12.6,10.35L10.5,10.35 10.5,6.7Q10.5,6.3 10,6.3 9.6,6.3 9.6,6.7L9.6,11.25"/></g><defs/></svg>