<?xml version="1.0" encoding="utf-8"?><svg xmlns:xlink="http://www.w3.org/1999/xlink" id="Scene_1" image-rendering="auto" baseProfile="basic" version="1.1" x="0px" y="0px" width="600" height="600" viewBox="0 0 600 600" xmlns="http://www.w3.org/2000/svg"><g id="Scene 1_1.0"><path fill="#F1EFEE" fill-opacity="0.898" d="M258.85,78.25L260.7,77.85 260.55,76.85 255.6,77.75 255.85,78.8 257.65,78.45 258.6,83.5 259.85,83.3 258.85,78.25"/><path fill="#F1EFEE" fill-opacity="0.898" d="M253.7,79.25L253.4,78.2 249.35,79.1 250.65,85.2 254.9,84.25 254.65,83.2 251.7,83.85 251.3,82.3 253.8,81.8 253.55,80.85 251.05,81.4 250.8,79.9 253.7,79.25"/><path fill="#F1EFEE" fill-opacity="0.898" d="M245.15,85.4L244.8,83.9 247.25,83.25 246.95,82.25 244.5,82.9 244.15,81.4 247,80.7 246.85,79.65 242.75,80.65 244.25,86.75 248.4,85.7 248.15,84.7 245.15,85.4"/><path fill="#F1EFEE" fill-opacity="0.898" d="M236.55,82.3L236.45,82.35 236.05,85.3Q236,86.45 235.95,86.55 235.8,86.15 235.35,85.45L233.8,83.2 232.5,83.55 236.4,89.05 236.55,88.95 237.05,85.65Q237.1,85.2 237.15,84.5 237.5,85.05 237.8,85.35L240,88 240.1,87.95 240.55,81.2 239.3,81.55 239.25,84.35Q239.2,85.55 239.2,85.6 239.1,85.4 238.5,84.5L236.55,82.3"/><path fill="#F1EFEE" fill-opacity="0.898" d="M230.15,85.95L230.8,85Q229.95,84.35 228.6,84.7 227.85,85 227.5,85.55 227.15,86.2 227.3,86.9 227.6,87.55 228.15,87.85 228.6,88.05 229.5,88.15L229.9,88.25Q230.55,88.25 230.8,88.35 231.1,88.5 231.15,88.8 231.3,89.1 231,89.4 230.8,89.65 230.4,89.75 229.45,90.15 228.75,89.4L227.95,90.25Q228.45,90.75 229.15,90.9 230,91.15 230.75,90.8 231.7,90.5 232.1,89.85 232.6,89.25 232.35,88.4 232.1,87.8 231.45,87.4 230.95,87.15 229.95,87.15L229.5,87.1Q228.65,86.95 228.55,86.55 228.25,85.85 229,85.7 229.55,85.55 230.15,85.95"/></g><defs/></svg>