<?xml version="1.0" encoding="utf-8"?><svg xmlns:xlink="http://www.w3.org/1999/xlink" id="Scene_1" image-rendering="auto" baseProfile="basic" version="1.1" x="0px" y="0px" width="600" height="600" viewBox="0 0 600 600" xmlns="http://www.w3.org/2000/svg"><g id="Scene 1_1.0"><path fill="#F1EFEE" fill-opacity="0.898" d="M74.75,320.35L73.7,320.45 74.15,325.4 75.25,325.25 75.1,323.45 80.2,322.9 80.05,321.7 74.9,322.2 74.75,320.35"/><path fill="#F1EFEE" fill-opacity="0.898" d="M74.9,331.55L75.25,332.75 79,332.2Q80.4,332 80.5,333.25 80.75,334.5 79.4,334.7L75.5,335.25 75.75,336.5 79.6,335.9Q80.7,335.8 81.25,335 81.75,334.15 81.7,333.05 81.45,331.9 80.75,331.4 80,330.75 78.75,330.95L74.9,331.55"/><path fill="#F1EFEE" fill-opacity="0.898" d="M80.7,326.9L74.45,327.7 74.65,328.95 80.85,328.15 80.7,326.9"/><path fill="#F1EFEE" fill-opacity="0.898" d="M78.3,338.45Q77.4,339.2 78.4,339.8 79.4,339.55 79.65,340.85L79.85,341.7 78.55,342.05Q77.95,342.45 78.55,343.25L83.15,342.4 82.95,341.2 80.85,341.55 80.65,340.65 82.5,338.95 82.25,337.55 80.2,339.4Q79.6,338.25 78.3,338.45"/><path fill="#F1EFEE" fill-opacity="0.898" d="M78.55,345.7L77.45,345.9 78.35,349.95 84.45,348.6 84.15,347.35 82,347.85 81.45,345.4 80.3,345.55 80.95,348.1 79.15,348.5 78.55,345.7"/><path fill="#F1EFEE" fill-opacity="0.898" d="M79.8,356.05L80.9,360.05 86.95,358.5 85.8,354.3 84.75,354.6 85.55,357.5 84.05,357.9 83.35,355.45 82.4,355.75 83.05,358.2 81.65,358.55 80.85,355.7 79.8,356.05"/><path fill="#F1EFEE" fill-opacity="0.898" d="M85.65,362.6Q85.3,363.05 85.05,363.55L83,367.6 83.05,367.7 89.15,365.8 88.85,364.65 86.15,365.5Q85.4,365.7 85.05,365.9 85.45,365.35 85.7,364.9L87.8,360.85 81.6,362.7 81.9,363.7 85.65,362.6"/><path fill="#F1EFEE" fill-opacity="0.898" d="M86.85,369.05Q86.45,369.8 87.25,370.3L87.25,370.25Q88.15,369.9 88.95,370.3 89.55,370.65 89.85,371.45 90.25,372.3 89.8,373.05 89.4,373.75 88.65,374 88.55,374.05 88.5,374.05 88,374.8 88.85,375.35 88.9,375.3 88.95,375.3 90.3,374.85 90.85,373.55 91.5,372.45 90.9,371.15 90.55,369.8 89.3,369.2 88.2,368.5 86.85,369L86.85,369.05"/><path fill="#F1EFEE" fill-opacity="0.898" d="M94.75,382.55Q94.15,382.15 93.3,382.4 92.6,382.7 92.35,383.4 92.1,383.95 92.15,384.95L92.1,385.4Q92.05,385.9 92.05,386.1 91.95,386.3 91.7,386.45 91.1,386.65 90.8,386 90.6,385.4 90.9,384.85L90,384.2Q89.4,385.3 89.8,386.4 90.15,387.15 90.75,387.45 91.45,387.85 92.1,387.55 92.75,387.3 93.15,386.65 93.3,386.15 93.3,385.3L93.35,384.85Q93.35,384.25 93.35,384 93.5,383.75 93.75,383.6 94.1,383.5 94.35,383.65 94.7,383.85 94.9,384.3 95.15,385.15 94.55,386L95.45,386.65Q95.9,386.15 96,385.45 96.2,384.6 95.8,383.9 95.4,382.9 94.75,382.55"/><path fill="#F1EFEE" fill-opacity="0.898" d="M93.6,378.65L93.15,377.45 88.3,379.3 87.7,377.6 86.65,378.05 88.4,382.55 89.4,382.2 88.8,380.45 93.6,378.65"/></g><g id="Scene 1_0.0"><path fill="#F1EFEE" fill-opacity="0.898" d="M78.3,338.45Q78.2,338.5 78.15,338.5 77.1,338.7 76.75,339.5 76.35,340.25 76.55,341.4L76.9,343.55 78.55,343.25Q79.35,342.4 78.55,342.05L77.8,342.15 77.6,341.2Q77.45,339.95 78.4,339.8 79.2,339 78.3,338.45"/><path fill="#F1EFEE" fill-opacity="0.898" d="M86,371.2Q86.45,370.55 87.25,370.3 87.8,369.25 86.85,369.05 85.5,369.45 84.9,370.7 84.4,371.9 84.85,373.15 85.3,374.45 86.5,375.1 87.6,375.7 88.85,375.35 89.15,374.6 88.5,374.05 87.7,374.35 86.95,374.05 86.2,373.65 86,372.75 85.6,372 86,371.2"/></g><defs/></svg>