<?xml version="1.0" encoding="utf-8"?><svg xmlns:xlink="http://www.w3.org/1999/xlink" id="Scene_1" image-rendering="auto" baseProfile="basic" version="1.1" x="0px" y="0px" width="600" height="600" viewBox="0 0 600 600" xmlns="http://www.w3.org/2000/svg"><g id="Scene 1_1.0"><path fill="#F1EFEE" fill-opacity="0.898" d="M487.3,185.6L489.5,184.3 490.8,186.65 488.7,187.9 489.35,189 494.7,185.8 494,184.75 491.8,186.05 490.35,183.8 492.7,182.4 492,181.3 486.65,184.55 487.3,185.6"/><path fill="#F1EFEE" fill-opacity="0.898" d="M494.4,190.5L495.65,189.75 497.1,192.3 498.1,191.85 496,188.15 490.55,191.25 492.7,195 493.6,194.45 492.1,191.7 493.45,191 494.8,193.2 495.55,192.7 494.4,190.5"/><path fill="#F1EFEE" fill-opacity="0.898" d="M497.55,197.45L497.15,196.6 498,196.25Q498.35,195.25 497.4,195.15L493.7,197 494.35,198.15 496.25,197.15 496.65,197.9 495.3,200.05 496.05,201.35 497.4,199Q498.35,199.9 499.55,199.25 499.6,199.2 499.65,199.25 499.95,198.05 499.1,198.05 499.05,198.1 499,198.1 498.05,198.6 497.55,197.45"/><path fill="#F1EFEE" fill-opacity="0.898" d="M507.45,215.4Q508.25,215.65 508.6,216.45 509.05,217.45 508.3,218.35L509.35,219Q510.3,217.7 509.6,216.1 509.05,214.85 507.9,214.3 506.7,213.8 505.35,214.3 504.1,214.8 503.5,215.95 503.1,217.2 503.55,218.5 504.2,220.3 505.9,220.55L506.2,219.4Q505.05,219.15 504.6,218.15 504.3,217.3 504.6,216.55 504.95,215.85 505.9,215.5 506.75,215.2 507.45,215.4"/><path fill="#F1EFEE" fill-opacity="0.898" d="M499.15,203.5L500,203.1 500.6,204.35Q501,205.2 500.25,205.55 500.2,205.6 500.15,205.6 499.55,206.3 500.6,206.7 501.7,206.2 501.45,205 502.1,205.55 502.9,205.3 503.05,204.2 502.3,204.25 501.7,204.45 501.35,203.8L500.9,202.7 501.45,202.45Q501.6,201.5 500.9,201.45L498.6,202.5Q498.2,203.15 499.15,203.5"/><path fill="#F1EFEE" fill-opacity="0.898" d="M499.6,208.95L500.1,210.05 501.2,209.95 502.2,212.3 501.45,213.05 501.95,214.25 504,211.95Q504.15,210.85 503.55,210.85L502.8,211.65 502.2,210 503.25,209.95Q503.75,209.2 502.75,209L499.6,208.95"/><path fill="#F1EFEE" fill-opacity="0.898" d="M511.75,225.2L512.8,224.85 511.35,220.9 505.5,223.05 506.95,227.15 507.95,226.7 506.9,223.85 508.4,223.3 509.25,225.75 510.25,225.35 509.35,223 510.8,222.5 511.75,225.2"/><path fill="#F1EFEE" fill-opacity="0.898" d="M508.65,229.65Q508.1,230.75 508.5,232.2 508.95,233.45 510.1,234.1 511.15,234.7 512.35,234.4 512.75,233.3 511.95,233.1 511.2,233.35 510.55,233 509.8,232.65 509.65,231.8 509.35,230.95 509.7,230.2 510.1,229.55 510.8,229.3 511.25,228.4 510.35,228.05 509.15,228.5 508.65,229.65"/><path fill="#F1EFEE" fill-opacity="0.898" d="M513.55,240.5Q512.25,240.8 511.9,239.55 511.6,238.35 512.9,237.95L516.65,236.9 516.3,235.65 512.5,236.75Q511.35,237.1 510.95,238 510.55,238.75 510.85,239.95 511.15,241.05 511.9,241.4 512.75,241.85 513.9,241.65L517.65,240.5 517.4,239.35 513.55,240.5"/><path fill="#F1EFEE" fill-opacity="0.898" d="M515.3,245.45L515.3,245.85Q515.2,246.45 515.05,246.65 514.95,246.95 514.65,247.05 514.3,247.15 514.05,246.9 513.75,246.7 513.7,246.25 513.4,245.35 514.2,244.6L513.35,243.75Q512.2,244.8 512.6,246.5 512.9,247.45 513.5,247.95 514.05,248.45 514.95,248.25 515.7,248.1 516.05,247.45 516.35,246.95 516.5,245.95L516.6,245.5Q516.7,244.7 517.1,244.55 517.7,244.4 517.85,245.15 518.1,245.75 517.6,246.25L518.4,247Q519.2,246.05 518.85,244.85 518.65,244.1 518.15,243.65 517.55,243.2 516.85,243.35 516.15,243.6 515.75,244.1 515.45,244.65 515.3,245.45"/></g><g id="Scene 1_0.0"><path fill="#F1EFEE" fill-opacity="0.898" d="M500.7,197.9Q500.85,197.05 500.3,196.05L499.3,194.05 497.4,195.15Q496.95,195.95 498,196.25L498.9,195.7 499.3,196.5Q499.9,197.6 499.1,198.05 498.45,199.05 499.65,199.25 500.55,198.75 500.7,197.9"/><path fill="#F1EFEE" fill-opacity="0.898" d="M506.65,209.1L506.5,209 502.75,209Q502.4,209.45 503.25,209.95L503.45,209.9Q504,209.9 504.6,209.9 504.15,210.3 503.8,210.65L503.55,210.85Q503.1,211.8 504,211.95L506.65,209.1"/><path fill="#F1EFEE" fill-opacity="0.898" d="M501.45,202.45L502.2,202.15 502.7,203.15Q503,203.85 502.3,204.2L502.3,204.25Q501.85,205 502.9,205.3 502.95,205.25 503.05,205.2 503.65,204.8 503.85,204.25 504.05,203.6 503.7,202.75L502.6,200.6 500.9,201.45Q500.65,202.05 501.45,202.45"/><path fill="#F1EFEE" fill-opacity="0.898" d="M498.35,203.9L499.15,203.5Q499.6,202.5 498.6,202.5L496.95,203.25 498.05,205.65Q498.45,206.5 499.15,206.75 499.8,207.1 500.55,206.7L500.6,206.7Q500.85,205.7 500.15,205.6 499.35,205.8 498.95,205.1L498.35,203.9"/><path fill="#F1EFEE" fill-opacity="0.898" d="M510.55,227.95Q510.45,228 510.35,228.05 509.9,228.8 510.8,229.3 510.8,229.25 510.9,229.25 511.8,228.9 512.6,229.3 513.35,229.65 513.65,230.5 513.9,231.35 513.45,232.15 513.1,232.8 512.15,233.05 512.05,233.1 511.95,233.1 511.35,234.1 512.35,234.4 512.5,234.35 512.6,234.3 514,233.9 514.5,232.7 515.1,231.5 514.7,230.15 514.2,228.85 513.05,228.1 511.9,227.5 510.55,227.95"/></g><defs/></svg>