<?xml version="1.0" encoding="utf-8"?><svg xmlns:xlink="http://www.w3.org/1999/xlink" id="Scene_1" image-rendering="auto" baseProfile="basic" version="1.1" x="0px" y="0px" width="600" height="600" viewBox="0 0 600 600" xmlns="http://www.w3.org/2000/svg"><g id="Scene 1_1.0"><path fill="#F1EFEE" fill-opacity="0.898" d="M524.95,317.75L518.6,317.25 518.55,318.45 520.8,318.65 520.5,321.3 521.6,321.3 521.9,318.8 523.7,318.95 523.35,321.8 524.5,321.95 524.95,317.75"/><path fill="#F1EFEE" fill-opacity="0.898" d="M524.1,325.6L524.25,324.35 518,323.6 517.6,327.6 518.6,327.75 519,324.95 524.1,325.6"/><path fill="#F1EFEE" fill-opacity="0.898" d="M518.2,334.1Q517.7,333.45 517.85,332.55 518,331.65 518.7,331.2 519.35,330.7 520.3,330.85 520.8,330.9 521.2,331.1 521.75,330.6 521.4,329.8 520.95,329.6 520.45,329.6 519.05,329.35 517.95,330.2 517,331 516.75,332.45 516.5,333.8 517.3,334.9 518.1,335.9 519.5,336.2 520,336.3 520.45,336.3 521.15,335.6 520.65,334.9 520.15,335 519.6,334.9 518.7,334.8 518.2,334.1"/><path fill="#F1EFEE" fill-opacity="0.898" d="M516,337.95L515.8,339.15 517.85,339.55 517.7,340.45 515.35,341.3 515.05,342.75 517.65,341.7Q517.85,343.05 519.2,343.3 519.25,343.35 519.3,343.4 519.85,342.8 519.45,342.1L519.4,342.1Q518.4,341.9 518.7,340.6L518.85,339.75 519.8,340Q520.65,339.45 520.05,338.75L516,337.95"/><path fill="#F1EFEE" fill-opacity="0.898" d="M514.5,345.45L515.35,346.05 514.9,348.5 513.8,348.7 513.55,349.95 516.75,349.3Q517.5,348.75 516.9,348.2L515.8,348.35 516.05,346.6 517,347.2Q517.7,346.85 517.15,346.05L514.75,344.35 514.5,345.45"/><path fill="#F1EFEE" fill-opacity="0.898" d="M518.85,354.6L519.05,353.5 513.1,351.9 512.05,355.9 513.05,356.1 513.75,353.45 518.85,354.6"/></g><g id="Scene 1_0.0"><path fill="#F1EFEE" fill-opacity="0.898" d="M521.75,331.65Q522.25,332.25 522.1,333.2 521.95,334.1 521.25,334.55 521,334.7 520.65,334.9 519.85,335.5 520.45,336.3 521.25,336.05 521.9,335.6 523,334.7 523.2,333.35 523.45,331.95 522.65,330.9 522.05,330.2 521.4,329.8 520.5,330.1 521.2,331.1 521.5,331.3 521.75,331.65"/><path fill="#F1EFEE" fill-opacity="0.898" d="M519.8,340L520.85,340.15 520.7,341.05Q520.4,342.3 519.45,342.1 518.85,342.65 519.3,343.4 520.25,343.55 520.85,342.95 521.5,342.35 521.75,341.3L522.2,339.15 520.05,338.75Q519.2,339.35 519.8,340"/><path fill="#F1EFEE" fill-opacity="0.898" d="M516.75,349.3L520.35,348.5 520.4,348.4 517.15,346.05Q516.6,346.45 517,347.2L517.25,347.35Q518.05,347.9 518.3,347.95 517.6,347.95 517.05,348.1L516.9,348.2Q516.15,348.6 516.75,349.3"/></g><defs/></svg>