<?xml version="1.0" encoding="utf-8"?><svg xmlns:xlink="http://www.w3.org/1999/xlink" id="Scene_1" image-rendering="auto" baseProfile="basic" version="1.1" x="0px" y="0px" width="600" height="600" viewBox="0 0 600 600" xmlns="http://www.w3.org/2000/svg"><g id="Scene 1_1.0"><path fill="#F1EFEE" fill-opacity="0.898" d="M446,131.15L446.95,128.5 445.9,127.5 443.95,134.2 444,134.3 450.3,131.35 449.4,130.55 446.65,131.8Q446.15,132 445.45,132.55 445.8,131.8 446,131.15"/><path fill="#F1EFEE" fill-opacity="0.898" d="M450.6,135.25Q450.85,134.35 449.75,134.35 449.55,134.5 449.4,134.7 448.35,135.75 448.55,137.05 448.6,138.45 449.6,139.3 450.55,140.2 451.9,140.25 453.3,140.25 454.15,139.25L454.2,139.25Q454.4,138.15 453.3,138.35 453.3,138.4 453.25,138.4 452.6,139.05 451.85,139.15 451.05,139.2 450.35,138.5 449.7,137.9 449.7,137.1 449.65,136.25 450.25,135.55 450.45,135.4 450.6,135.25"/><path fill="#F1EFEE" fill-opacity="0.898" d="M454.5,143.25Q454.55,144.15 455.35,144.95 456.15,145.8 457.05,145.9 458.1,145.9 458.9,145.05L461.7,142.3 460.75,141.35 458.05,144.1Q457.1,145.05 456.1,144.2 455.2,143.3 456.25,142.35L459,139.6 458.15,138.7 455.35,141.4Q454.5,142.25 454.5,143.25"/><path fill="#F1EFEE" fill-opacity="0.898" d="M462.1,147.25L462.85,146.6Q463.15,145.8 462,145.6L458.95,148.5 459.8,149.35 461.3,148 461.9,148.55 461.25,151 462.2,152 463,149.4Q464.2,150 465.2,149.2 465.15,148.2 464.25,148.2 463.55,148.9 462.65,147.9L462.1,147.25"/><path fill="#F1EFEE" fill-opacity="0.898" d="M434.1,123.55L432.95,123.4Q432.7,124.1 433,124.8 433.35,125.5 434,125.95 434.8,126.65 435.55,126.65 436.3,126.6 436.8,126 437.3,125.35 437.15,124.7 437.1,124.1 436.65,123.2L436.45,122.9Q436.25,122.45 436.2,122.2 436.15,121.95 436.3,121.7 436.75,121.25 437.3,121.65 437.7,122 437.75,122.7L438.85,122.8Q438.85,121.6 437.95,120.8 437.25,120.4 436.5,120.4 435.8,120.45 435.45,121.05 434.9,121.55 435,122.2 435.05,122.8 435.45,123.5L435.65,123.85Q435.95,124.4 436,124.65 436.05,125 435.9,125.2 435.7,125.5 435.3,125.5 435,125.45 434.7,125.15 433.85,124.6 434.1,123.55"/><path fill="#F1EFEE" fill-opacity="0.898" d="M442.2,129.55Q442.15,128.45 441.3,128.55L441.15,129.25 439.75,128.15 440.65,127.7Q440.8,126.9 439.95,126.85L437,128.35 437.95,129.05 438.8,128.5 440.85,130.1 440.4,131.1 441.5,131.9 442.2,129.55"/><path fill="#F1EFEE" fill-opacity="0.898" d="M468.85,150.1L468,149.05 466.4,153.25 464.65,154.7 465.45,155.75 467.25,154.2 471.55,153.15 470.7,152.2 468.7,152.6Q468.2,152.8 467.55,153.15 467.55,153.1 467.75,152.65 467.95,152.25 468.15,151.9L468.85,150.1"/></g><g id="Scene 1_0.0"><path fill="#F1EFEE" fill-opacity="0.898" d="M450.6,135.25Q451.1,134.85 451.75,134.8 452.6,134.8 453.25,135.4 453.85,136 453.9,136.85 453.95,137.65 453.3,138.35 453.2,139.3 454.2,139.25 455.2,138.2 455.1,136.85 454.95,135.6 454,134.6 452.95,133.65 451.75,133.7 450.6,133.65 449.75,134.35 449.7,135.25 450.6,135.25"/><path fill="#F1EFEE" fill-opacity="0.898" d="M464.15,146.5Q464.95,147.5 464.25,148.15L464.25,148.2Q463.9,149.25 465.2,149.2 465.9,148.4 465.85,147.55 465.75,146.65 465,145.85L463.5,144.2 462,145.6Q461.85,146.9 462.85,146.6L463.6,145.9 464.15,146.5"/><path fill="#F1EFEE" fill-opacity="0.898" d="M440.65,127.7L440.85,127.5Q441.4,127.2 441.9,126.9 441.65,127.4 441.5,127.95L441.3,128.55Q441.55,129.65 442.2,129.55L443.45,125.25 443.3,125.15 439.95,126.85Q439.7,127.5 440.65,127.7"/></g><defs/></svg>