<?xml version="1.0" encoding="utf-8"?><svg xmlns:xlink="http://www.w3.org/1999/xlink" id="Scene_1" image-rendering="auto" baseProfile="basic" version="1.1" x="0px" y="0px" width="40" height="60" viewBox="0 0 40 60" xmlns="http://www.w3.org/2000/svg"><g id="Scene 1_1.0"><path fill="#FFF" d="M38.4,19.75Q29.98,16.633 23.45,19.75L23.45,25.65Q23.45,27 22.45,28.05 21.45,29.05 20.05,29.05 18.65,29.05 17.65,28.05 16.65,27 16.65,25.65L16.65,19.75Q9.685,16.355 1.75,19.75 1.75,19.8 1.75,19.85L1.75,40.2Q1.75,47.85 7.1,53.15 12.45,58.55 20.05,58.55 27.65,58.55 33.05,53.15 38.4,47.85 38.4,40.2L38.4,19.85Q38.4,19.8 38.4,19.75"/></g><g id="Scene 1_0.0"><path fill="#FFF" d="M23.45,19.75Q30.639,23.08 38.4,19.75 38.365,12.265 33.05,6.95 27.65,1.55 20.05,1.55 12.5,1.55 7.1,6.95 1.786,12.264 1.75,19.75 9.484,22.589 16.65,19.75L16.65,14.75Q16.65,13.35 17.65,12.35 18.65,11.35 20.05,11.35 21.45,11.35 22.45,12.35 23.45,13.35 23.45,14.75L23.45,19.75"/></g><defs/></svg>