<?xml version="1.0" encoding="utf-8"?><svg xmlns:xlink="http://www.w3.org/1999/xlink" id="Scene_1" image-rendering="auto" baseProfile="basic" version="1.1" x="0px" y="0px" width="40" height="40" viewBox="0 0 40 40" xmlns="http://www.w3.org/2000/svg"><g id="Scene 1_1.0"><path fill="#FFF" d="M20.4,13.35Q20.639,13.335 20.9,13.4 21.3,13.45 21.25,14 21.2,14.45 21.15,14.7 21.15,15.15 21.3,15.2 21.35,15.2 21.75,15.25 22.2,15.3 22.3,15.35 22.75,15.65 23.4,15.9 23.8,16.15 23.8,16.4 23.8,16.8 23.35,17.3 23,17.8 22.9,17.8 22.65,17.8 22.45,17.55 22.25,17.3 22,17.3L21.85,17.2 21.65,17.1Q21.45,17.05 21.3,17 20.95,16.95 20.95,16.9 20.85,16.9 20.75,16.9 20.566,16.9 20.4,16.925 18.9,17.039 18.9,18.3 18.9,18.55 19.15,18.85 19.45,19.2 19.9,19.3L20.3,19.5 20.4,19.525Q20.526,19.578 20.8,19.7 21.3,19.9 21.35,19.95 21.65,20 21.65,20.05 21.7,20.05 21.75,20.1 21.85,20.1 21.95,20.1 21.95,20.15 22.1,20.25 22.3,20.3 22.3,20.35 22.9,20.7 23.2,20.9 23.65,21.25 23.65,21.5 23.7,21.5 23.8,21.65L23.9,21.85Q24.1,22.3 24.1,23 24.1,24.75 22.8,25.5 22.2,25.9 21.3,26 21.25,26.4 21.25,27 21.2,27.35 21.2,27.45 21.15,27.6 20.95,27.65 20.816,27.65 20.4,27.65 19.707,28.776 20.4,30.1 24.35,30.1 27.15,27.35 29.95,24.55 29.95,20.6 29.95,16.65 27.15,13.85 24.35,11.05 20.4,11.05 19.73,12.2 20.4,13.35"/><path fill="#FFF" d="M20.4,8.8Q20.107,9.325 20.4,9.85 24.85,9.85 28,13 31.15,16.15 31.15,20.6 31.15,25.05 28,28.2 24.85,31.35 20.4,31.35 19.925,31.85 20.4,32.35 25.25,32.35 28.7,28.9 32.15,25.45 32.15,20.6 32.15,15.7 28.7,12.25 25.25,8.8 20.4,8.8"/></g><g id="Scene 1_0.0"><path fill="#FFF" d="M20.65,21.6Q20.525,21.564 20.4,21.525 20.175,21.446 19.95,21.35 19.45,21.15 19.15,21.05 17.75,20.15 17.45,19.85 16.85,19.2 16.85,18.25 16.85,16.95 17.7,16.2 18.35,15.6 19.7,15.2 19.6,14.25 19.7,13.85 19.75,13.45 20.15,13.4 20.272,13.365 20.4,13.35 21.054,12.294 20.4,11.05 16.45,11.05 13.65,13.85 10.85,16.65 10.85,20.6 10.85,24.55 13.65,27.35 16.45,30.1 20.4,30.1 20.994,28.974 20.4,27.65 20.352,27.65 20.3,27.65 19.85,27.65 19.75,27.45 19.65,27.35 19.7,26.95 19.75,26.55 19.65,26.35 19.5,26.05 19,25.9 18.25,25.65 17.8,25.4 16.7,24.9 16.7,24.45 16.7,24.25 17.2,23.7 17.65,23.15 17.75,23.15 17.95,23.15 18.25,23.45 18.6,23.75 18.85,23.8L19.05,23.9Q19.2,24 19.2,24.05 19.55,24.1 19.55,24.15L19.7,24.15 19.8,24.2Q20,24.2 20.3,24.25L20.4,24.275 20.65,24.3Q21.4,24.3 21.75,23.75 22.05,23.3 22.05,22.75 22.05,22.7 21.7,22.3 21.3,21.9 21,21.85 21,21.8 20.8,21.7L20.65,21.6"/><path fill="#FFF" d="M20.4,9.85Q20.79,9.227 20.4,8.8 15.5,8.8 12.05,12.25 8.6,15.7 8.6,20.6 8.6,25.45 12.05,28.9 15.5,32.35 20.4,32.35 21.065,31.85 20.4,31.35 15.95,31.35 12.8,28.2 9.65,25.05 9.65,20.6 9.65,16.15 12.8,13 15.95,9.85 20.4,9.85"/></g><defs/></svg>