<?xml version="1.0" encoding="utf-8"?><svg xmlns:xlink="http://www.w3.org/1999/xlink" id="Scene_1" image-rendering="auto" baseProfile="basic" version="1.1" x="0px" y="0px" width="600" height="600" viewBox="0 0 600 600" xmlns="http://www.w3.org/2000/svg"><g id="Scene 1_1.0"><path fill="#F1EFEE" fill-opacity="0.898" d="M164.15,473.8L163.1,473 159.25,477.95 160.25,478.65 164.15,473.8"/><path fill="#F1EFEE" fill-opacity="0.898" d="M166.35,481.35Q165.6,481.6 164.95,481.05 164.05,480.35 164.1,479.3L162.9,479.3Q162.85,480.85 164.25,481.9 165.35,482.8 166.65,482.5 167.95,482.35 168.8,481.2 169.6,480.1 169.4,478.8 169.25,477.45 168.1,476.7 166.6,475.55 165,476.2L165.45,477.3Q166.55,476.85 167.5,477.55 168.15,478.1 168.25,478.85 168.25,479.75 167.75,480.45 167.2,481.2 166.35,481.35"/><path fill="#F1EFEE" fill-opacity="0.898" d="M141.85,456.9Q141.85,456.6 142,456.45 142.2,456.25 142.55,456.3 142.9,456.35 143.25,456.6 143.95,457.3 143.65,458.35L144.7,458.65Q144.95,458 144.8,457.3 144.55,456.55 143.95,455.9 143.25,455.2 142.5,455.1 141.7,455 141.1,455.65 140.6,456.2 140.6,456.85 140.6,457.45 141,458.35L141.1,458.75Q141.35,459.15 141.35,459.4 141.3,459.65 141.15,459.9 140.65,460.35 140.15,459.8 139.75,459.35 139.85,458.7L138.8,458.45Q138.65,459.65 139.4,460.5 140.05,461.15 140.75,461.2 141.45,461.25 142,460.7 142.5,460.2 142.55,459.55 142.5,459 142.2,458.2L142,457.85Q141.9,457.2 141.85,456.9"/><path fill="#F1EFEE" fill-opacity="0.898" d="M149.85,462.4Q149.8,461.45 148.95,460.75 148.15,459.9 147.2,459.95 146.25,459.85 145.45,460.8L142.75,463.65 143.7,464.45 146.35,461.6Q147.35,460.6 148.2,461.5 149.1,462.4 148.15,463.45L145.55,466.25 146.45,467.1 149.1,464.25Q149.95,463.35 149.85,462.4"/><path fill="#F1EFEE" fill-opacity="0.898" d="M149.65,467.1Q149.5,468.15 150.55,467.95L150.55,467.9Q151.2,467.2 152.15,468L152.9,468.6 152.1,469.55Q151.9,470.5 152.95,470.45L155.85,467.1 155,466.25 153.55,467.9 152.85,467.3 153.3,464.85 152.25,463.85 151.8,466.55Q150.55,466.05 149.65,467.1"/><path fill="#F1EFEE" fill-opacity="0.898" d="M158.05,475.6L156.55,474.5 159.95,470.5 158.95,469.6 155.7,473.65 154.2,472.5 153.6,473.4 157.35,476.5 158.05,475.6"/></g><g id="Scene 1_0.0"><path fill="#F1EFEE" fill-opacity="0.898" d="M150.55,467.95Q150.65,467.05 149.65,467.1 149.6,467.1 149.6,467.15 148.95,467.9 149.1,468.8 149.2,469.6 150.15,470.35L151.7,471.8 152.95,470.45Q152.95,469.5 152.1,469.55L151.5,470.15 150.85,469.55Q149.9,468.7 150.55,467.95"/></g><defs/></svg>