<?xml version="1.0" encoding="utf-8"?><svg xmlns:xlink="http://www.w3.org/1999/xlink" id="Scene_1" image-rendering="auto" baseProfile="basic" version="1.1" x="0px" y="0px" width="600" height="600" viewBox="0 0 600 600" xmlns="http://www.w3.org/2000/svg"><g id="Scene 1_1.0"><path fill="#F1EFEE" fill-opacity="0.898" d="M465.35,444.25L464.7,445.15 466.75,446.85Q467.65,447.6 467.6,447.65 466.95,447.6 466.45,447.6L461.95,447.9 461.9,448 466.65,452.25 467.4,451.4 465.4,449.6Q465,449.3 464.45,448.85 464.85,448.95 465.65,448.8L470.1,448.55 470.1,448.45 465.35,444.25"/><path fill="#F1EFEE" fill-opacity="0.898" d="M443,466.5L444.5,468.3 445.5,472.65 446.5,471.75 446,469.9Q446,469.3 445.55,468.5 446.25,469 446.8,469.25L448.6,470 449.65,469 445.4,467.45 443.95,465.8 443,466.5"/><path fill="#F1EFEE" fill-opacity="0.898" d="M460.2,450.75Q459.3,450.8 458.5,451.65 457.75,452.45 457.75,453.4 457.7,454.4 458.5,455.15L461.4,457.9 462.25,457 459.4,454.3Q458.45,453.3 459.25,452.4 460.15,451.5 461.15,452.5L464.05,455.15 464.85,454.25 462,451.4Q461.15,450.7 460.2,450.75"/><path fill="#F1EFEE" fill-opacity="0.898" d="M454,456.35L453.1,457.25 456.8,460.95 455.5,462.25 456.2,463.05 459.75,459.5 459,458.75 457.65,460 454,456.35"/><path fill="#F1EFEE" fill-opacity="0.898" d="M449.15,461.05L448.25,461.9 451.75,465.75 450.35,466.95 451,467.7 454.75,464.35 454,463.55 452.75,464.95 449.15,461.05"/></g><defs/></svg>