<?xml version="1.0" encoding="utf-8"?><svg xmlns:xlink="http://www.w3.org/1999/xlink" id="Scene_1" image-rendering="auto" baseProfile="basic" version="1.1" x="0px" y="0px" width="40" height="40" viewBox="0 0 40 40" xmlns="http://www.w3.org/2000/svg"><g id="Scene 1_2.0"><path fill="#FFF" d="M14.45,11.5L12.95,11.6Q12.45,11.65 12.05,12.05 11.65,12.45 11.6,12.95L11.5,14.45Q11.4,15.25 11,16.3 10.6,17.3 10.05,17.95L9.05,19.05Q8.75,19.45 8.75,20 8.75,20.6 9.05,20.95L10.05,22.1Q10.6,22.75 11,23.75 11.4,24.75 11.5,25.6L11.6,27.1Q11.65,27.6 12.05,28 12.45,28.4 12.95,28.4L14.45,28.55Q15.25,28.6 16.3,29.05 17.3,29.45 17.9,30L19.05,30.95Q19.413,31.268 19.9,31.3 20.576,27.7 19.9,24.1L18.25,22.45 18.25,25.7 17,25.7 17,21.2 15.6,19.85 15.6,22.95 14.35,22.95 14.35,16.85 17,19.45 17,14.6 19.9,17.55Q20.596,13.051 19.9,8.75 19.413,8.782 19.05,9.1L17.9,10.05Q17.3,10.6 16.3,11 15.25,11.45 14.45,11.5"/><path fill="#FFF" d="M12.9,11L14.4,10.85Q15.1,10.8 16.05,10.45 16.95,10.05 17.5,9.6L18.65,8.6Q19.165,8.178 19.9,8.15 20.188,7.825 19.9,7.5 18.962,7.533 18.25,8.15L17.1,9.1Q16.65,9.5 15.8,9.85 14.95,10.2 14.35,10.25L12.85,10.35Q11.9,10.45 11.15,11.15 10.45,11.9 10.35,12.85L10.25,14.35Q10.2,14.95 9.85,15.8 9.5,16.65 9.1,17.1L8.1,18.25Q7.5,19 7.5,20 7.5,21.05 8.1,21.8L9.1,22.9Q9.5,23.4 9.85,24.25 10.2,25.05 10.25,25.7L10.35,27.2Q10.45,28.15 11.15,28.85 11.9,29.6 12.85,29.7L14.35,29.8Q14.95,29.85 15.8,30.2 16.65,30.55 17.1,30.95L18.25,31.9Q18.962,32.517 19.9,32.55 20.188,32.225 19.9,31.9 19.165,31.872 18.65,31.45L17.5,30.45Q16.95,30 16.05,29.6 15.1,29.25 14.4,29.15L12.9,29.05Q12.15,29 11.6,28.4 11.05,27.85 11,27.15L10.85,25.65Q10.8,24.9 10.4,24 10.05,23.05 9.55,22.5L8.6,21.35Q8.1,20.8 8.1,20 8.1,19.2 8.6,18.65L9.55,17.55Q10.05,16.95 10.4,16.05 10.8,15.15 10.85,14.4L11,12.9Q11.05,12.2 11.6,11.6 12.15,11.05 12.9,11"/></g><g id="Scene 1_1.0"><path fill="#FFF" d="M23.75,11Q22.75,10.6 22.1,10.05L20.95,9.1Q20.6,8.75 20,8.75 19.949,8.75 19.9,8.75 19.175,12.689 19.9,17.55L20,17.65 23.05,14.6 23.05,19.45 25.65,16.85 25.65,22.95 24.4,22.95 24.4,19.85 23.05,21.2 23.05,25.7 21.8,25.7 21.8,22.45 20,24.2 19.9,24.1Q19.172,27.973 19.9,31.3 19.949,31.3 20,31.3 20.6,31.3 20.95,30.95L22.1,30Q22.75,29.45 23.75,29.05 24.75,28.6 25.6,28.55L27.05,28.4Q27.6,28.4 28,28 28.35,27.6 28.4,27.1L28.55,25.6Q28.6,24.75 29,23.75 29.45,22.75 30,22.1L30.95,20.95Q31.3,20.6 31.3,20 31.3,19.45 30.95,19.05L30,17.95Q29.45,17.3 29,16.3 28.6,15.25 28.55,14.45L28.4,12.95Q28.35,12.45 28,12.05 27.6,11.65 27.05,11.6L25.6,11.5Q24.75,11.45 23.75,11"/><path fill="#FFF" d="M24.2,9.85Q23.4,9.5 22.9,9.1L21.75,8.15Q21.05,7.5 20,7.5 19.95,7.5 19.9,7.5 19.577,7.825 19.9,8.15 19.949,8.15 20,8.15 20.8,8.15 21.35,8.6L22.5,9.6Q23.05,10.05 24,10.45 24.9,10.8 25.65,10.85L27.1,11Q27.85,11.05 28.4,11.6 29,12.2 29.05,12.9L29.15,14.4Q29.2,15.15 29.6,16.05 30,16.95 30.45,17.55L31.4,18.65Q31.9,19.2 31.9,20 31.9,20.8 31.4,21.35L30.45,22.5Q30,23.05 29.6,24 29.2,24.9 29.15,25.65L29.05,27.15Q29,27.85 28.4,28.4 27.85,29 27.1,29.05L25.65,29.15Q24.9,29.25 24,29.6 23.05,30 22.5,30.45L21.35,31.45Q20.8,31.9 20,31.9 19.949,31.9 19.9,31.9 19.612,32.225 19.9,32.55 19.95,32.55 20,32.55 21.05,32.55 21.75,31.9L22.9,30.95Q23.4,30.55 24.2,30.2 25.05,29.85 25.7,29.8L27.15,29.7Q28.1,29.6 28.85,28.85 29.6,28.15 29.65,27.2L29.8,25.7Q29.85,25.05 30.2,24.25 30.5,23.4 30.95,22.9L31.9,21.8Q32.5,21.05 32.5,20 32.5,19 31.9,18.25L30.95,17.1Q30.5,16.65 30.2,15.8 29.85,15 29.8,14.35L29.65,12.85Q29.6,11.9 28.85,11.15 28.15,10.45 27.15,10.35L25.7,10.25Q25.05,10.2 24.2,9.85"/></g><g id="Scene 1_0.0"><path fill="#FFF" d="M21.8,20.7L21.8,17.65 20,19.4 18.25,17.65 18.25,20.7 20,22.45 21.8,20.7"/></g><defs/></svg>