<?xml version="1.0" encoding="utf-8"?><svg xmlns:xlink="http://www.w3.org/1999/xlink" id="Scene_1" image-rendering="auto" baseProfile="basic" version="1.1" x="0px" y="0px" width="40" height="40" viewBox="0 0 40 40" xmlns="http://www.w3.org/2000/svg"><g id="Scene 1_0.0"><path fill="#FFF" d="M29.85,15.75Q29.85,15.3 29.75,15.1L23.95,20.05 29.85,25.05 29.85,15.75"/><path fill="#FFF" d="M20.9,21.75L29.1,14.15Q28.55,13.7 27.9,13.7L11.85,13.7Q11.2,13.7 10.6,14.2L18.85,21.75 18.85,22.75 16.75,20.85 10.9,26.45Q11.35,26.75 11.85,26.75L27.9,26.75Q28.7,26.75 29.4,26.05L23.15,20.75 20.9,22.75 20.9,22.65 18.9,22.75 18.9,21.8 20.9,21.75"/><path fill="#FFF" d="M16,20.2L10.05,14.95Q9.9,15.35 9.9,15.75L9.9,24.7Q9.9,25.35 10.2,25.8L16,20.2"/></g><defs/></svg>