<?xml version="1.0" encoding="utf-8"?><svg xmlns:xlink="http://www.w3.org/1999/xlink" id="Scene_1" image-rendering="auto" baseProfile="basic" version="1.1" x="0px" y="0px" width="50" height="70" viewBox="0 0 50 70" xmlns="http://www.w3.org/2000/svg"><g id="Scene 1_1.0"><path fill="#786F65" d="M25.25,14.25Q25.15,14.25 25,14.25 19.25,14.25 15.2,18.6 11.15,22.9 11.15,29.05L11.15,41Q11.15,47.15 15.2,51.45 19.25,55.8 25,55.8 25.15,55.8 25.25,55.8 26.8,52.8 25.25,49.75 25.15,49.8 25,49.8 24.65,49.8 24.35,49.5 24.1,49.25 24.1,48.9L24.1,33.1 19.65,37.55Q19.4,37.8 19,37.8 18.65,37.8 18.35,37.55 18.05,37.25 18.05,36.9 18.05,36.55 18.35,36.25L24.35,30.25Q24.65,29.95 25,29.95 25.15,29.95 25.25,30 26.6,27.65 25.25,25.35 25.15,25.35 25,25.35 24.05,25.35 23.4,24.65 22.7,24 22.7,23.05 22.7,22.1 23.4,21.4 24.05,20.7 25,20.7 25.15,20.7 25.25,20.75 27.2,17.5 25.25,14.25"/></g><g id="Scene 1_0.0"><path fill="#786F65" d="M34.8,18.6Q30.8,14.4 25.25,14.25 23.65,17.5 25.25,20.75 26.05,20.85 26.65,21.4 27.35,22.1 27.35,23.05 27.35,24 26.65,24.65 26.05,25.2 25.25,25.35 24.1,27.65 25.25,30 25.5,30.05 25.7,30.25L31.65,36.25Q31.95,36.55 31.95,36.9 31.95,37.25 31.65,37.55 31.35,37.8 31,37.8 30.65,37.8 30.35,37.55L25.95,33.1 25.95,48.9Q25.95,49.2 25.7,49.5 25.5,49.65 25.25,49.75 23.8,52.55 25.25,55.8 30.8,55.65 34.8,51.45 38.85,47.15 38.85,41L38.85,29.05Q38.85,22.95 34.8,18.6"/></g><defs/></svg>