<?xml version="1.0" encoding="utf-8"?><svg xmlns:xlink="http://www.w3.org/1999/xlink" id="Scene_1" image-rendering="auto" baseProfile="basic" version="1.1" x="0px" y="0px" width="600" height="600" viewBox="0 0 600 600" xmlns="http://www.w3.org/2000/svg"><g id="Scene 1_1.0"><path fill="#F1EFEE" fill-opacity="0.898" d="M240.85,512.15L239.6,511.85 239,514.1 235.9,517.3 237.2,517.7 238.55,516.25Q238.85,515.85 239.3,515.1 239.25,516 239.5,516.55L239.85,518.45 241.25,518.85 240.2,514.4 240.85,512.15"/><path fill="#F1EFEE" fill-opacity="0.898" d="M298.8,520.1L298.8,522.8Q298.9,523.9 298.85,523.95 298.85,523.9 298.1,522.95L296.9,521.4 296.8,521.45 295.5,522.85Q295.15,523.3 294.85,523.85 294.95,523.65 294.9,522.75L294.95,520.05 293.7,520.05 293.65,526.35 293.8,526.35 296.8,522.95 299.85,526.5 299.95,526.5 300.05,520.1 298.8,520.1"/><path fill="#F1EFEE" fill-opacity="0.898" d="M291.15,519.95L289.9,519.85 289.6,526.15 290.9,526.2 291.15,519.95"/><path fill="#F1EFEE" fill-opacity="0.898" d="M287.3,519.75L286.25,519.75 286,522.45 286.1,523.55Q286.05,523.55 285.35,522.65L282.35,519.35 282.2,519.35 281.8,525.65 282.9,525.75 283.1,523.05Q283.15,522.5 283.15,521.85 283.2,522.05 283.8,522.8L286.8,526.1 286.95,526.1 287.3,519.75"/><path fill="#F1EFEE" fill-opacity="0.898" d="M279.75,519.25L275.4,518.8 275.3,519.9 278.3,520.2 278.2,521.75 275.75,521.55 275.55,522.55 278.1,522.8 277.95,524.2 275,523.95 274.9,525.05 279.1,525.45 279.75,519.25"/><path fill="#F1EFEE" fill-opacity="0.898" d="M265.5,517.5L264.95,518.35 262.5,517.95 262.3,516.95 261.05,516.75 261.65,519.55Q262.25,520.15 262.95,519.95L262.7,518.9 264.45,519.2 263.95,520.2Q264.05,520.7 264.9,520.4L266.7,517.65 265.5,517.5"/><path fill="#F1EFEE" fill-opacity="0.898" d="M273.15,518.5L271.9,518.4 271.6,520.5 270.75,520.45 269.75,518.05 268.35,517.9 269.55,520.35Q268.55,520.6 268.2,521.3 268.65,522 269.5,521.65 269.8,521.25 270.65,521.4L271.5,521.45 271.35,522.2Q271.8,522.85 272.6,522.55L273.15,518.5"/><path fill="#F1EFEE" fill-opacity="0.898" d="M252.8,515.1L251.55,514.85 250.2,520.95 251.45,521.2 252.8,515.1"/><path fill="#F1EFEE" fill-opacity="0.898" d="M246.35,518.95L247.6,513.95 246.35,513.6 245.15,518.65 243.35,518.2 243.1,519.3 248,520.45 248.15,519.4 246.35,518.95"/><path fill="#F1EFEE" fill-opacity="0.898" d="M259,516.4L254.95,515.6 254.8,516.65 257.55,517.2 256.5,522.25 257.75,522.45 259,516.4"/></g><g id="Scene 1_0.0"><path fill="#F1EFEE" fill-opacity="0.898" d="M263,520.2L262.95,519.95Q262.35,519.2 261.65,519.55L262.7,523.4 262.85,523.5 264.9,520.4Q264.8,519.8 263.95,520.2L263.8,520.35Q263.204,521.243 263.2,521.45 263.198,521.242 263,520.2"/><path fill="#F1EFEE" fill-opacity="0.898" d="M270.15,524.4L272.3,524.75 272.6,522.55Q272.15,521.65 271.35,522.2L271.15,523.45 270.3,523.4Q269.1,523.2 269.2,522.2 269.25,521.85 269.5,521.65 269.2,520.8 268.2,521.3 268.05,521.65 267.95,522.1 267.8,523.1 268.4,523.65 269.05,524.3 270.15,524.4"/></g><defs/></svg>