<?xml version="1.0" encoding="utf-8"?><svg xmlns:xlink="http://www.w3.org/1999/xlink" id="Scene_1" image-rendering="auto" baseProfile="basic" version="1.1" x="0px" y="0px" width="600" height="600" viewBox="0 0 600 600" xmlns="http://www.w3.org/2000/svg"><g id="Scene 1_1.0"><path fill="#F1EFEE" fill-opacity="0.898" d="M355.55,85.5Q355.15,84.85 355.35,83.9 355.4,83.65 355.5,83.45 355.2,82.8 354.4,83.05 354.2,83.3 354.15,83.6 353.8,84.95 354.45,86.1 355.2,87.2 356.55,87.55 357.85,87.85 359,87.3 360.25,86.6 360.55,85.3 360.55,85.2 360.6,85.2 360.3,84.55 359.4,84.8 359.35,84.9 359.35,85 359.05,85.8 358.4,86.3 357.7,86.7 356.8,86.5 355.85,86.2 355.55,85.5"/><path fill="#F1EFEE" fill-opacity="0.898" d="M363.8,86.25Q363.4,85.4 362.7,85.9 362.65,85.9 362.65,85.95 362.25,87.25 362.85,88.4 363.55,89.55 364.85,89.95 366.15,90.4 367.35,89.85 368.55,89.15 369,87.9 368.75,87.05 367.75,87.6 367.4,88.4 366.75,88.75 366.05,89.15 365.15,88.9 364.25,88.55 363.95,87.85 363.6,87.15 363.8,86.3L363.8,86.25"/><path fill="#F1EFEE" fill-opacity="0.898" d="M353.3,80.15L352.05,79.8 350.6,82.25Q350.15,83.15 350,83.3 350,83.25 349.9,82.1L349.3,79.1 349.2,79.1 347.35,81.5Q347,82 346.8,82.65 346.8,82.55 346.7,81.45L346.45,78.5 345.15,78.25 345.95,84.9 346.05,84.95 348.1,82.3Q348.45,81.85 348.7,81.3 348.65,81.6 348.9,82.5L349.55,85.75 349.7,85.75 353.3,80.15"/><path fill="#F1EFEE" fill-opacity="0.898" d="M371.25,88.7L370.2,91.6 372.05,92.3Q373.5,92.75 374.6,92.25 375.8,91.7 376.25,90.35 375.8,89.5 375.05,90.05 374.7,90.9 374,91.2 373.3,91.5 372.4,91.2L371.75,90.95 372.35,89.1Q372.2,88.25 371.25,88.7"/></g><g id="Scene 1_0.0"><path fill="#F1EFEE" fill-opacity="0.898" d="M355.65,81.6Q354.8,82.05 354.4,83.05 354.45,83.9 355.5,83.45 355.8,82.9 356.3,82.6 357,82.1 357.9,82.35 358.8,82.6 359.15,83.35 359.5,84 359.4,84.8 359.7,85.75 360.6,85.2 360.9,83.9 360.3,82.8 359.55,81.7 358.15,81.3 356.8,80.9 355.65,81.6"/><path fill="#F1EFEE" fill-opacity="0.898" d="M364.2,83.95Q363.1,84.6 362.7,85.9 363,86.7 363.8,86.25 364.15,85.4 364.85,85 365.55,84.6 366.4,84.85 367.3,85.15 367.65,85.95 368.05,86.6 367.8,87.5 367.8,87.55 367.75,87.6 367.8,88.35 369,87.9L369,87.85Q369.45,86.55 368.75,85.35 368.15,84.25 366.75,83.85 365.45,83.4 364.2,83.95"/><path fill="#F1EFEE" fill-opacity="0.898" d="M374.15,86.35L372.4,85.7 371.25,88.7Q371.6,89.55 372.35,89.1L373.1,87.15 373.7,87.3Q374.7,87.65 374.95,88.4 375.3,89.05 375.05,90L375.05,90.05Q375.45,90.85 376.25,90.35 376.65,89.05 376.15,87.9 375.55,86.85 374.15,86.35"/></g><defs/></svg>