<?xml version="1.0" encoding="utf-8"?><svg xmlns:xlink="http://www.w3.org/1999/xlink" id="Scene_1" image-rendering="auto" baseProfile="basic" version="1.1" x="0px" y="0px" width="600" height="600" viewBox="0 0 600 600" xmlns="http://www.w3.org/2000/svg"><g id="Scene 1_1.0"><path fill="#F1EFEE" fill-opacity="0.898" d="M387.05,504.7L385.95,502.15 384.15,503Q382.8,503.55 382.35,504.7 381.85,505.65 382.25,506.8 383.05,507.4 383.35,506.35 382.9,504.65 384.65,504L385.35,503.65 385.9,505.2Q386.65,505.75 387.05,504.7"/><path fill="#F1EFEE" fill-opacity="0.898" d="M376.4,507.15L375.7,506.4 374.5,506.8 376.75,509.15Q377.55,509.6 377.8,508.7L377.05,507.85 378.7,507.25 378.7,508.3Q379.4,508.7 379.7,507.85L379.85,504.85 378.7,505.15 378.75,506.25 376.4,507.15"/><path fill="#F1EFEE" fill-opacity="0.898" d="M374.6,513.45L372.5,507.55 371.35,507.9 373.4,513.8 374.6,513.45"/><path fill="#F1EFEE" fill-opacity="0.898" d="M368.9,508.75L367.65,509.15 368.35,511.2 367.55,511.4 365.6,509.75 364.25,510.3 366.35,512.05Q365.25,512.85 365.65,514.15 365.7,514.3 365.8,514.45 366.6,514.85 366.95,513.95 366.9,513.8 366.85,513.75 366.6,512.75 367.85,512.4L368.65,512.2 368.95,513.1Q369.65,513.45 370.15,512.5L368.9,508.75"/><path fill="#F1EFEE" fill-opacity="0.898" d="M361.4,513.5L360.75,511.3 359.55,511.65 360.25,513.85 359.3,518.25 360.6,517.85 360.95,516Q361.1,515.4 361.05,514.6 361.5,515.25 361.95,515.7L363.25,517.05 364.6,516.75 361.4,513.5"/></g><g id="Scene 1_0.0"><path fill="#F1EFEE" fill-opacity="0.898" d="M387.05,504.7Q386.3,504.2 385.9,505.2L386.85,507.5 386.25,507.7Q385.25,508.15 384.55,507.9 383.85,507.5 383.45,506.65 383.4,506.5 383.35,506.35 382.5,506.05 382.25,506.8 382.3,507 382.4,507.15 382.95,508.45 384.05,508.9 385.15,509.4 386.6,508.75L388.45,508 387.05,504.7"/><path fill="#F1EFEE" fill-opacity="0.898" d="M369.3,514.05L368.45,514.4Q367.35,514.7 366.95,513.95 366.15,513.65 365.8,514.45 366.1,515.2 366.85,515.45 367.65,515.7 368.8,515.45L370.85,514.7 370.15,512.5Q369.25,512.05 368.95,513.1L369.3,514.05"/><path fill="#F1EFEE" fill-opacity="0.898" d="M378.45,509.4Q378.1,509 377.9,508.8L377.8,508.7Q376.9,508.25 376.75,509.15L379.4,511.75 379.5,511.7 379.7,507.85Q379.25,507.6 378.7,508.3L378.7,508.5Q378.65,509.65 378.65,509.7 378.65,509.65 378.45,509.4"/></g><defs/></svg>