<?xml version="1.0" encoding="utf-8"?><svg xmlns:xlink="http://www.w3.org/1999/xlink" id="Scene_1" image-rendering="auto" baseProfile="basic" version="1.1" x="0px" y="0px" width="600" height="600" viewBox="0 0 600 600" xmlns="http://www.w3.org/2000/svg"><g id="Scene 1_1.0"><path fill="#F1EFEE" fill-opacity="0.898" d="M120.9,166.75L117.7,164.45 117,165.45 120.1,167.8Q121.1,168.5 121.95,168.25 122.9,168.15 123.65,167.2 124.25,166.3 124.2,165.45 124.1,164.45 123.1,163.7L120.1,161.35 119.3,162.4 122.35,164.7Q123.45,165.5 122.75,166.55 121.9,167.6 120.9,166.75"/><path fill="#F1EFEE" fill-opacity="0.898" d="M116.15,171.95L115.1,171.25Q114,171.35 114.35,172.3L117.95,174.8 118.75,173.75 116.9,172.6 117.55,171.8 120,172 120.85,170.8 118,170.65Q118.45,169.35 117.3,168.6 117.2,168.55 117.1,168.45 116.1,168.95 116.4,169.45 116.5,169.55 116.6,169.65 117.4,170.25 116.65,171.25L116.15,171.95"/><path fill="#F1EFEE" fill-opacity="0.898" d="M100.65,195.5Q99.5,195.95 100.1,196.65 100.9,197.1 100.45,198.25L100,199 99.2,198.6Q98.2,198.85 98.65,199.75L102.2,201.6 102.75,200.45 100.85,199.5 101.25,198.7 103.8,198.45 104.45,197.25 101.7,197.45Q101.9,196.1 100.7,195.5L100.65,195.5"/><path fill="#F1EFEE" fill-opacity="0.898" d="M113.25,177.8L114.65,175.7 113.75,175.05 112.25,177.2 110.8,176.25 112.4,173.85 111.45,173.2 109.25,176.7 114.4,180.1 115.1,179.05 113.25,177.8"/><path fill="#F1EFEE" fill-opacity="0.898" d="M108.75,183.45L108.7,183.45Q107.65,183.9 108,184.55 109.75,185.55 108.75,187.35L108.4,187.9 106.65,186.8Q105.6,186.9 105.95,187.9L108.65,189.55 109.7,187.85Q110.4,186.55 110.1,185.35 109.85,184.2 108.75,183.45"/><path fill="#F1EFEE" fill-opacity="0.898" d="M107.55,191.55L106.6,191.05 105.05,193.75 103.75,193 105,190.8 104.1,190.25 102.85,192.45 101.55,191.8 102.9,189.15 101.95,188.55 99.95,192.4 105.45,195.3 107.55,191.55"/><path fill="#F1EFEE" fill-opacity="0.898" d="M128.05,153.3L127.1,152.6 123.9,156.45 124.8,157.15 126,155.7 129.95,159 130.8,158.1 126.8,154.75 128.05,153.3"/><path fill="#F1EFEE" fill-opacity="0.898" d="M122.5,158.3L121.7,159.35 126.55,163.15 127.45,162.2 122.5,158.3"/></g><g id="Scene 1_0.0"><path fill="#F1EFEE" fill-opacity="0.898" d="M112.85,171.15L114.35,172.3Q115.4,172.1 115.1,171.25L114.45,170.75 114.95,170.05Q115.6,169.1 116.4,169.45 117.55,169.35 117.1,168.45 116.25,168 115.6,168.2 114.75,168.5 114.15,169.4L112.85,171.15"/><path fill="#F1EFEE" fill-opacity="0.898" d="M98.55,197.25Q99.15,196.15 100.1,196.65 100.9,196.45 100.65,195.5 99.75,195 98.95,195.35 98.1,195.7 97.65,196.85L96.65,198.7 98.65,199.75Q99.6,199.25 99.2,198.6L98.15,198.05 98.55,197.25"/><path fill="#F1EFEE" fill-opacity="0.898" d="M106.45,184.2Q107.2,184.05 108,184.55 109.15,184.45 108.7,183.45 107.5,182.7 106.25,183.05 105.1,183.4 104.3,184.65L103.3,186.35 105.95,187.9Q106.95,187.6 106.65,186.8L104.9,185.85 105.2,185.3Q105.75,184.4 106.45,184.2"/></g><defs/></svg>