<?xml version="1.0" encoding="utf-8"?><svg xmlns:xlink="http://www.w3.org/1999/xlink" id="Scene_1" image-rendering="auto" baseProfile="basic" version="1.1" x="0px" y="0px" width="600" height="600" viewBox="0 0 600 600" xmlns="http://www.w3.org/2000/svg"><g id="Scene 1_1.0"><path fill="#F1EFEE" fill-opacity="0.898" d="M487.3,185.6L489.5,184.3 490.8,186.65 488.7,187.9 489.35,189 494.7,185.8 494,184.75 491.8,186.05 490.35,183.8 492.7,182.4 492,181.3 486.65,184.55 487.3,185.6"/><path fill="#F1EFEE" fill-opacity="0.898" d="M494.4,190.5L495.65,189.75 497.1,192.3 498.1,191.85 496,188.15 490.55,191.25 492.7,195 493.6,194.45 492.1,191.7 493.45,191 494.8,193.2 495.55,192.7 494.4,190.5"/><path fill="#F1EFEE" fill-opacity="0.898" d="M497.55,197.45L497.15,196.6 498,196.25Q498.35,195.25 497.4,195.15L493.7,197 494.35,198.15 496.25,197.15 496.65,197.9 495.3,200.05 496.05,201.35 497.4,199Q498.35,199.9 499.55,199.25 499.6,199.2 499.65,199.25 499.95,198.05 499.1,198.05 499.05,198.1 499,198.1 498.05,198.6 497.55,197.45"/><path fill="#F1EFEE" fill-opacity="0.898" d="M355.35,83.9Q355.4,83.65 355.5,83.45 355.2,82.8 354.4,83.05 354.2,83.3 354.15,83.6 353.8,84.95 354.45,86.1 355.2,87.2 356.55,87.55 357.85,87.85 359,87.3 360.25,86.6 360.55,85.3 360.55,85.2 360.6,85.2 360.3,84.55 359.4,84.8 359.35,84.9 359.35,85 359.05,85.8 358.4,86.3 357.7,86.7 356.8,86.5 355.85,86.2 355.55,85.5 355.15,84.85 355.35,83.9"/><path fill="#F1EFEE" fill-opacity="0.898" d="M363.8,86.25Q363.4,85.4 362.7,85.9 362.65,85.9 362.65,85.95 362.25,87.25 362.85,88.4 363.55,89.55 364.85,89.95 366.15,90.4 367.35,89.85 368.55,89.15 369,87.9 368.75,87.05 367.75,87.6 367.4,88.4 366.75,88.75 366.05,89.15 365.15,88.9 364.25,88.55 363.95,87.85 363.6,87.15 363.8,86.3L363.8,86.25"/><path fill="#F1EFEE" fill-opacity="0.898" d="M353.3,80.15L352.05,79.8 350.6,82.25Q350.15,83.15 350,83.3 350,83.25 349.9,82.1L349.3,79.1 349.2,79.1 347.35,81.5Q347,82 346.8,82.65 346.8,82.55 346.7,81.45L346.45,78.5 345.15,78.25 345.95,84.9 346.05,84.95 348.1,82.3Q348.45,81.85 348.7,81.3 348.65,81.6 348.9,82.5L349.55,85.75 349.7,85.75 353.3,80.15"/><path fill="#F1EFEE" fill-opacity="0.898" d="M371.25,88.7L370.2,91.6 372.05,92.3Q373.5,92.75 374.6,92.25 375.8,91.7 376.25,90.35 375.8,89.5 375.05,90.05 374.7,90.9 374,91.2 373.3,91.5 372.4,91.2L371.75,90.95 372.35,89.1Q372.2,88.25 371.25,88.7"/><path fill="#F1EFEE" fill-opacity="0.898" d="M450.6,135.25Q450.85,134.35 449.75,134.35 449.55,134.5 449.4,134.7 448.35,135.75 448.55,137.05 448.6,138.45 449.6,139.3 450.55,140.2 451.9,140.25 453.3,140.25 454.15,139.25L454.2,139.25Q454.4,138.15 453.3,138.35 453.3,138.4 453.25,138.4 452.6,139.05 451.85,139.15 451.05,139.2 450.35,138.5 449.7,137.9 449.7,137.1 449.65,136.25 450.25,135.55 450.45,135.4 450.6,135.25"/><path fill="#F1EFEE" fill-opacity="0.898" d="M446,131.15L446.95,128.5 445.9,127.5 443.95,134.2 444,134.3 450.3,131.35 449.4,130.55 446.65,131.8Q446.15,132 445.45,132.55 445.8,131.8 446,131.15"/><path fill="#F1EFEE" fill-opacity="0.898" d="M454.5,143.25Q454.55,144.15 455.35,144.95 456.15,145.8 457.05,145.9 458.1,145.9 458.9,145.05L461.7,142.3 460.75,141.35 458.05,144.1Q457.1,145.05 456.1,144.2 455.2,143.3 456.25,142.35L459,139.6 458.15,138.7 455.35,141.4Q454.5,142.25 454.5,143.25"/><path fill="#F1EFEE" fill-opacity="0.898" d="M462.1,147.25L462.85,146.6Q463.15,145.8 462,145.6L458.95,148.5 459.8,149.35 461.3,148 461.9,148.55 461.25,151 462.2,152 463,149.4Q464.2,150 465.2,149.2 465.15,148.2 464.25,148.2 463.55,148.9 462.65,147.9L462.1,147.25"/><path fill="#F1EFEE" fill-opacity="0.898" d="M434.1,123.55L432.95,123.4Q432.7,124.1 433,124.8 433.35,125.5 434,125.95 434.8,126.65 435.55,126.65 436.3,126.6 436.8,126 437.3,125.35 437.15,124.7 437.1,124.1 436.65,123.2L436.45,122.9Q436.25,122.45 436.2,122.2 436.15,121.95 436.3,121.7 436.75,121.25 437.3,121.65 437.7,122 437.75,122.7L438.85,122.8Q438.85,121.6 437.95,120.8 437.25,120.4 436.5,120.4 435.8,120.45 435.45,121.05 434.9,121.55 435,122.2 435.05,122.8 435.45,123.5L435.65,123.85Q435.95,124.4 436,124.65 436.05,125 435.9,125.2 435.7,125.5 435.3,125.5 435,125.45 434.7,125.15 433.85,124.6 434.1,123.55"/><path fill="#F1EFEE" fill-opacity="0.898" d="M442.2,129.55Q442.15,128.45 441.3,128.55L441.15,129.25 439.75,128.15 440.65,127.7Q440.8,126.9 439.95,126.85L437,128.35 437.95,129.05 438.8,128.5 440.85,130.1 440.4,131.1 441.5,131.9 442.2,129.55"/><path fill="#F1EFEE" fill-opacity="0.898" d="M468.85,150.1L468,149.05 466.4,153.25 464.65,154.7 465.45,155.75 467.25,154.2 471.55,153.15 470.7,152.2 468.7,152.6Q468.2,152.8 467.55,153.15 467.55,153.1 467.75,152.65 467.95,152.25 468.15,151.9L468.85,150.1"/><path fill="#F1EFEE" fill-opacity="0.898" d="M507.45,215.4Q508.25,215.65 508.6,216.45 509.05,217.45 508.3,218.35L509.35,219Q510.3,217.7 509.6,216.1 509.05,214.85 507.9,214.3 506.7,213.8 505.35,214.3 504.1,214.8 503.5,215.95 503.1,217.2 503.55,218.5 504.2,220.3 505.9,220.55L506.2,219.4Q505.05,219.15 504.6,218.15 504.3,217.3 504.6,216.55 504.95,215.85 505.9,215.5 506.75,215.2 507.45,215.4"/><path fill="#F1EFEE" fill-opacity="0.898" d="M499.15,203.5L500,203.1 500.6,204.35Q501,205.2 500.25,205.55 500.2,205.6 500.15,205.6 499.55,206.3 500.6,206.7 501.7,206.2 501.45,205 502.1,205.55 502.9,205.3 503.05,204.2 502.3,204.25 501.7,204.45 501.35,203.8L500.9,202.7 501.45,202.45Q501.6,201.5 500.9,201.45L498.6,202.5Q498.2,203.15 499.15,203.5"/><path fill="#F1EFEE" fill-opacity="0.898" d="M499.6,208.95L500.1,210.05 501.2,209.95 502.2,212.3 501.45,213.05 501.95,214.25 504,211.95Q504.15,210.85 503.55,210.85L502.8,211.65 502.2,210 503.25,209.95Q503.75,209.2 502.75,209L499.6,208.95"/><path fill="#F1EFEE" fill-opacity="0.898" d="M511.75,225.2L512.8,224.85 511.35,220.9 505.5,223.05 506.95,227.15 507.95,226.7 506.9,223.85 508.4,223.3 509.25,225.75 510.25,225.35 509.35,223 510.8,222.5 511.75,225.2"/><path fill="#F1EFEE" fill-opacity="0.898" d="M508.65,229.65Q508.1,230.75 508.5,232.2 508.95,233.45 510.1,234.1 511.15,234.7 512.35,234.4 512.75,233.3 511.95,233.1 511.2,233.35 510.55,233 509.8,232.65 509.65,231.8 509.35,230.95 509.7,230.2 510.1,229.55 510.8,229.3 511.25,228.4 510.35,228.05 509.15,228.5 508.65,229.65"/><path fill="#F1EFEE" fill-opacity="0.898" d="M511.9,239.55Q511.6,238.35 512.9,237.95L516.65,236.9 516.3,235.65 512.5,236.75Q511.35,237.1 510.95,238 510.55,238.75 510.85,239.95 511.15,241.05 511.9,241.4 512.75,241.85 513.9,241.65L517.65,240.5 517.4,239.35 513.55,240.5Q512.25,240.8 511.9,239.55"/><path fill="#F1EFEE" fill-opacity="0.898" d="M515.3,245.45L515.3,245.85Q515.2,246.45 515.05,246.65 514.95,246.95 514.65,247.05 514.3,247.15 514.05,246.9 513.75,246.7 513.7,246.25 513.4,245.35 514.2,244.6L513.35,243.75Q512.2,244.8 512.6,246.5 512.9,247.45 513.5,247.95 514.05,248.45 514.95,248.25 515.7,248.1 516.05,247.45 516.35,246.95 516.5,245.95L516.6,245.5Q516.7,244.7 517.1,244.55 517.7,244.4 517.85,245.15 518.1,245.75 517.6,246.25L518.4,247Q519.2,246.05 518.85,244.85 518.65,244.1 518.15,243.65 517.55,243.2 516.85,243.35 516.15,243.6 515.75,244.1 515.45,244.65 515.3,245.45"/><path fill="#F1EFEE" fill-opacity="0.898" d="M524.95,317.75L518.6,317.25 518.55,318.45 520.8,318.65 520.5,321.3 521.6,321.3 521.9,318.8 523.7,318.95 523.35,321.8 524.5,321.95 524.95,317.75"/><path fill="#F1EFEE" fill-opacity="0.898" d="M524.1,325.6L524.25,324.35 518,323.6 517.6,327.6 518.6,327.75 519,324.95 524.1,325.6"/><path fill="#F1EFEE" fill-opacity="0.898" d="M518.2,334.1Q517.7,333.45 517.85,332.55 518,331.65 518.7,331.2 519.35,330.7 520.3,330.85 520.8,330.9 521.2,331.1 521.75,330.6 521.4,329.8 520.95,329.6 520.45,329.6 519.05,329.35 517.95,330.2 517,331 516.75,332.45 516.5,333.8 517.3,334.9 518.1,335.9 519.5,336.2 520,336.3 520.45,336.3 521.15,335.6 520.65,334.9 520.15,335 519.6,334.9 518.7,334.8 518.2,334.1"/><path fill="#F1EFEE" fill-opacity="0.898" d="M514.5,345.45L515.35,346.05 514.9,348.5 513.8,348.7 513.55,349.95 516.75,349.3Q517.5,348.75 516.9,348.2L515.8,348.35 516.05,346.6 517,347.2Q517.7,346.85 517.15,346.05L514.75,344.35 514.5,345.45"/><path fill="#F1EFEE" fill-opacity="0.898" d="M516,337.95L515.8,339.15 517.85,339.55 517.7,340.45 515.35,341.3 515.05,342.75 517.65,341.7Q517.85,343.05 519.2,343.3 519.25,343.35 519.3,343.4 519.85,342.8 519.45,342.1L519.4,342.1Q518.4,341.9 518.7,340.6L518.85,339.75 519.8,340Q520.65,339.45 520.05,338.75L516,337.95"/><path fill="#F1EFEE" fill-opacity="0.898" d="M518.85,354.6L519.05,353.5 513.1,351.9 512.05,355.9 513.05,356.1 513.75,353.45 518.85,354.6"/><path fill="#F1EFEE" fill-opacity="0.898" d="M260.7,77.85L260.55,76.85 255.6,77.75 255.85,78.8 257.65,78.45 258.6,83.5 259.85,83.3 258.85,78.25 260.7,77.85"/><path fill="#F1EFEE" fill-opacity="0.898" d="M253.7,79.25L253.4,78.2 249.35,79.1 250.65,85.2 254.9,84.25 254.65,83.2 251.7,83.85 251.3,82.3 253.8,81.8 253.55,80.85 251.05,81.4 250.8,79.9 253.7,79.25"/><path fill="#F1EFEE" fill-opacity="0.898" d="M245.15,85.4L244.8,83.9 247.25,83.25 246.95,82.25 244.5,82.9 244.15,81.4 247,80.7 246.85,79.65 242.75,80.65 244.25,86.75 248.4,85.7 248.15,84.7 245.15,85.4"/><path fill="#F1EFEE" fill-opacity="0.898" d="M236.55,82.3L236.45,82.35 236.05,85.3Q236,86.45 235.95,86.55 235.8,86.15 235.35,85.45L233.8,83.2 232.5,83.55 236.4,89.05 236.55,88.95 237.05,85.65Q237.1,85.2 237.15,84.5 237.5,85.05 237.8,85.35L240,88 240.1,87.95 240.55,81.2 239.3,81.55 239.25,84.35Q239.2,85.55 239.2,85.6 239.1,85.4 238.5,84.5L236.55,82.3"/><path fill="#F1EFEE" fill-opacity="0.898" d="M230.15,85.95L230.8,85Q229.95,84.35 228.6,84.7 227.85,85 227.5,85.55 227.15,86.2 227.3,86.9 227.6,87.55 228.15,87.85 228.6,88.05 229.5,88.15L229.9,88.25Q230.55,88.25 230.8,88.35 231.1,88.5 231.15,88.8 231.3,89.1 231,89.4 230.8,89.65 230.4,89.75 229.45,90.15 228.75,89.4L227.95,90.25Q228.45,90.75 229.15,90.9 230,91.15 230.75,90.8 231.7,90.5 232.1,89.85 232.6,89.25 232.35,88.4 232.1,87.8 231.45,87.4 230.95,87.15 229.95,87.15L229.5,87.1Q228.65,86.95 228.55,86.55 228.25,85.85 229,85.7 229.55,85.55 230.15,85.95"/><path fill="#F1EFEE" fill-opacity="0.898" d="M117.7,164.45L117,165.45 120.1,167.8Q121.1,168.5 121.95,168.25 122.9,168.15 123.65,167.2 124.25,166.3 124.2,165.45 124.1,164.45 123.1,163.7L120.1,161.35 119.3,162.4 122.35,164.7Q123.45,165.5 122.75,166.55 121.9,167.6 120.9,166.75L117.7,164.45"/><path fill="#F1EFEE" fill-opacity="0.898" d="M116.15,171.95L115.1,171.25Q114,171.35 114.35,172.3L117.95,174.8 118.75,173.75 116.9,172.6 117.55,171.8 120,172 120.85,170.8 118,170.65Q118.45,169.35 117.3,168.6 117.2,168.55 117.1,168.45 116.1,168.95 116.4,169.45 116.5,169.55 116.6,169.65 117.4,170.25 116.65,171.25L116.15,171.95"/><path fill="#F1EFEE" fill-opacity="0.898" d="M100.65,195.5Q99.5,195.95 100.1,196.65 100.9,197.1 100.45,198.25L100,199 99.2,198.6Q98.2,198.85 98.65,199.75L102.2,201.6 102.75,200.45 100.85,199.5 101.25,198.7 103.8,198.45 104.45,197.25 101.7,197.45Q101.9,196.1 100.7,195.5L100.65,195.5"/><path fill="#F1EFEE" fill-opacity="0.898" d="M113.25,177.8L114.65,175.7 113.75,175.05 112.25,177.2 110.8,176.25 112.4,173.85 111.45,173.2 109.25,176.7 114.4,180.1 115.1,179.05 113.25,177.8"/><path fill="#F1EFEE" fill-opacity="0.898" d="M108.75,183.45L108.7,183.45Q107.65,183.9 108,184.55 109.75,185.55 108.75,187.35L108.4,187.9 106.65,186.8Q105.6,186.9 105.95,187.9L108.65,189.55 109.7,187.85Q110.4,186.55 110.1,185.35 109.85,184.2 108.75,183.45"/><path fill="#F1EFEE" fill-opacity="0.898" d="M107.55,191.55L106.6,191.05 105.05,193.75 103.75,193 105,190.8 104.1,190.25 102.85,192.45 101.55,191.8 102.9,189.15 101.95,188.55 99.95,192.4 105.45,195.3 107.55,191.55"/><path fill="#F1EFEE" fill-opacity="0.898" d="M128.05,153.3L127.1,152.6 123.9,156.45 124.8,157.15 126,155.7 129.95,159 130.8,158.1 126.8,154.75 128.05,153.3"/><path fill="#F1EFEE" fill-opacity="0.898" d="M122.5,158.3L121.7,159.35 126.55,163.15 127.45,162.2 122.5,158.3"/><path fill="#F1EFEE" fill-opacity="0.898" d="M74.75,320.35L73.7,320.45 74.15,325.4 75.25,325.25 75.1,323.45 80.2,322.9 80.05,321.7 74.9,322.2 74.75,320.35"/><path fill="#F1EFEE" fill-opacity="0.898" d="M74.9,331.55L75.25,332.75 79,332.2Q80.4,332 80.5,333.25 80.75,334.5 79.4,334.7L75.5,335.25 75.75,336.5 79.6,335.9Q80.7,335.8 81.25,335 81.75,334.15 81.7,333.05 81.45,331.9 80.75,331.4 80,330.75 78.75,330.95L74.9,331.55"/><path fill="#F1EFEE" fill-opacity="0.898" d="M80.7,326.9L74.45,327.7 74.65,328.95 80.85,328.15 80.7,326.9"/><path fill="#F1EFEE" fill-opacity="0.898" d="M78.3,338.45Q77.4,339.2 78.4,339.8 79.4,339.55 79.65,340.85L79.85,341.7 78.55,342.05Q77.95,342.45 78.55,343.25L83.15,342.4 82.95,341.2 80.85,341.55 80.65,340.65 82.5,338.95 82.25,337.55 80.2,339.4Q79.6,338.25 78.3,338.45"/><path fill="#F1EFEE" fill-opacity="0.898" d="M78.55,345.7L77.45,345.9 78.35,349.95 84.45,348.6 84.15,347.35 82,347.85 81.45,345.4 80.3,345.55 80.95,348.1 79.15,348.5 78.55,345.7"/><path fill="#F1EFEE" fill-opacity="0.898" d="M79.8,356.05L80.9,360.05 86.95,358.5 85.8,354.3 84.75,354.6 85.55,357.5 84.05,357.9 83.35,355.45 82.4,355.75 83.05,358.2 81.65,358.55 80.85,355.7 79.8,356.05"/><path fill="#F1EFEE" fill-opacity="0.898" d="M85.65,362.6Q85.3,363.05 85.05,363.55L83,367.6 83.05,367.7 89.15,365.8 88.85,364.65 86.15,365.5Q85.4,365.7 85.05,365.9 85.45,365.35 85.7,364.9L87.8,360.85 81.6,362.7 81.9,363.7 85.65,362.6"/><path fill="#F1EFEE" fill-opacity="0.898" d="M86.85,369.05Q86.45,369.8 87.25,370.3L87.25,370.25Q88.15,369.9 88.95,370.3 89.55,370.65 89.85,371.45 90.25,372.3 89.8,373.05 89.4,373.75 88.65,374 88.55,374.05 88.5,374.05 88,374.8 88.85,375.35 88.9,375.3 88.95,375.3 90.3,374.85 90.85,373.55 91.5,372.45 90.9,371.15 90.55,369.8 89.3,369.2 88.2,368.5 86.85,369L86.85,369.05"/><path fill="#F1EFEE" fill-opacity="0.898" d="M93.6,378.65L93.15,377.45 88.3,379.3 87.7,377.6 86.65,378.05 88.4,382.55 89.4,382.2 88.8,380.45 93.6,378.65"/><path fill="#F1EFEE" fill-opacity="0.898" d="M94.75,382.55Q94.15,382.15 93.3,382.4 92.6,382.7 92.35,383.4 92.1,383.95 92.15,384.95L92.1,385.4Q92.05,385.9 92.05,386.1 91.95,386.3 91.7,386.45 91.1,386.65 90.8,386 90.6,385.4 90.9,384.85L90,384.2Q89.4,385.3 89.8,386.4 90.15,387.15 90.75,387.45 91.45,387.85 92.1,387.55 92.75,387.3 93.15,386.65 93.3,386.15 93.3,385.3L93.35,384.85Q93.35,384.25 93.35,384 93.5,383.75 93.75,383.6 94.1,383.5 94.35,383.65 94.7,383.85 94.9,384.3 95.15,385.15 94.55,386L95.45,386.65Q95.9,386.15 96,385.45 96.2,384.6 95.8,383.9 95.4,382.9 94.75,382.55"/><path fill="#F1EFEE" fill-opacity="0.898" d="M164.15,473.8L163.1,473 159.25,477.95 160.25,478.65 164.15,473.8"/><path fill="#F1EFEE" fill-opacity="0.898" d="M166.35,481.35Q165.6,481.6 164.95,481.05 164.05,480.35 164.1,479.3L162.9,479.3Q162.85,480.85 164.25,481.9 165.35,482.8 166.65,482.5 167.95,482.35 168.8,481.2 169.6,480.1 169.4,478.8 169.25,477.45 168.1,476.7 166.6,475.55 165,476.2L165.45,477.3Q166.55,476.85 167.5,477.55 168.15,478.1 168.25,478.85 168.25,479.75 167.75,480.45 167.2,481.2 166.35,481.35"/><path fill="#F1EFEE" fill-opacity="0.898" d="M240.85,512.15L239.6,511.85 239,514.1 235.9,517.3 237.2,517.7 238.55,516.25Q238.85,515.85 239.3,515.1 239.25,516 239.5,516.55L239.85,518.45 241.25,518.85 240.2,514.4 240.85,512.15"/><path fill="#F1EFEE" fill-opacity="0.898" d="M298.8,520.1L298.8,522.8Q298.9,523.9 298.85,523.95 298.85,523.9 298.1,522.95L296.9,521.4 296.8,521.45 295.5,522.85Q295.15,523.3 294.85,523.85 294.95,523.65 294.9,522.75L294.95,520.05 293.7,520.05 293.65,526.35 293.8,526.35 296.8,522.95 299.85,526.5 299.95,526.5 300.05,520.1 298.8,520.1"/><path fill="#F1EFEE" fill-opacity="0.898" d="M291.15,519.95L289.9,519.85 289.6,526.15 290.9,526.2 291.15,519.95"/><path fill="#F1EFEE" fill-opacity="0.898" d="M287.3,519.75L286.25,519.75 286,522.45 286.1,523.55Q286.05,523.55 285.35,522.65L282.35,519.35 282.2,519.35 281.8,525.65 282.9,525.75 283.1,523.05Q283.15,522.5 283.15,521.85 283.2,522.05 283.8,522.8L286.8,526.1 286.95,526.1 287.3,519.75"/><path fill="#F1EFEE" fill-opacity="0.898" d="M273.15,518.5L271.9,518.4 271.6,520.5 270.75,520.45 269.75,518.05 268.35,517.9 269.55,520.35Q268.55,520.6 268.2,521.3 268.65,522 269.5,521.65 269.8,521.25 270.65,521.4L271.5,521.45 271.35,522.2Q271.8,522.85 272.6,522.55L273.15,518.5"/><path fill="#F1EFEE" fill-opacity="0.898" d="M265.5,517.5L264.95,518.35 262.5,517.95 262.3,516.95 261.05,516.75 261.65,519.55Q262.25,520.15 262.95,519.95L262.7,518.9 264.45,519.2 263.95,520.2Q264.05,520.7 264.9,520.4L266.7,517.65 265.5,517.5"/><path fill="#F1EFEE" fill-opacity="0.898" d="M279.75,519.25L275.4,518.8 275.3,519.9 278.3,520.2 278.2,521.75 275.75,521.55 275.55,522.55 278.1,522.8 277.95,524.2 275,523.95 274.9,525.05 279.1,525.45 279.75,519.25"/><path fill="#F1EFEE" fill-opacity="0.898" d="M247.6,513.95L246.35,513.6 245.15,518.65 243.35,518.2 243.1,519.3 248,520.45 248.15,519.4 246.35,518.95 247.6,513.95"/><path fill="#F1EFEE" fill-opacity="0.898" d="M252.8,515.1L251.55,514.85 250.2,520.95 251.45,521.2 252.8,515.1"/><path fill="#F1EFEE" fill-opacity="0.898" d="M259,516.4L254.95,515.6 254.8,516.65 257.55,517.2 256.5,522.25 257.75,522.45 259,516.4"/><path fill="#F1EFEE" fill-opacity="0.898" d="M141.85,456.9Q141.85,456.6 142,456.45 142.2,456.25 142.55,456.3 142.9,456.35 143.25,456.6 143.95,457.3 143.65,458.35L144.7,458.65Q144.95,458 144.8,457.3 144.55,456.55 143.95,455.9 143.25,455.2 142.5,455.1 141.7,455 141.1,455.65 140.6,456.2 140.6,456.85 140.6,457.45 141,458.35L141.1,458.75Q141.35,459.15 141.35,459.4 141.3,459.65 141.15,459.9 140.65,460.35 140.15,459.8 139.75,459.35 139.85,458.7L138.8,458.45Q138.65,459.65 139.4,460.5 140.05,461.15 140.75,461.2 141.45,461.25 142,460.7 142.5,460.2 142.55,459.55 142.5,459 142.2,458.2L142,457.85Q141.9,457.2 141.85,456.9"/><path fill="#F1EFEE" fill-opacity="0.898" d="M149.85,462.4Q149.8,461.45 148.95,460.75 148.15,459.9 147.2,459.95 146.25,459.85 145.45,460.8L142.75,463.65 143.7,464.45 146.35,461.6Q147.35,460.6 148.2,461.5 149.1,462.4 148.15,463.45L145.55,466.25 146.45,467.1 149.1,464.25Q149.95,463.35 149.85,462.4"/><path fill="#F1EFEE" fill-opacity="0.898" d="M149.65,467.1Q149.5,468.15 150.55,467.95L150.55,467.9Q151.2,467.2 152.15,468L152.9,468.6 152.1,469.55Q151.9,470.5 152.95,470.45L155.85,467.1 155,466.25 153.55,467.9 152.85,467.3 153.3,464.85 152.25,463.85 151.8,466.55Q150.55,466.05 149.65,467.1"/><path fill="#F1EFEE" fill-opacity="0.898" d="M158.05,475.6L156.55,474.5 159.95,470.5 158.95,469.6 155.7,473.65 154.2,472.5 153.6,473.4 157.35,476.5 158.05,475.6"/><path fill="#F1EFEE" fill-opacity="0.898" d="M465.35,444.25L464.7,445.15 466.75,446.85Q467.65,447.6 467.6,447.65 466.95,447.6 466.45,447.6L461.95,447.9 461.9,448 466.65,452.25 467.4,451.4 465.4,449.6Q465,449.3 464.45,448.85 464.85,448.95 465.65,448.8L470.1,448.55 470.1,448.45 465.35,444.25"/><path fill="#F1EFEE" fill-opacity="0.898" d="M443,466.5L444.5,468.3 445.5,472.65 446.5,471.75 446,469.9Q446,469.3 445.55,468.5 446.25,469 446.8,469.25L448.6,470 449.65,469 445.4,467.45 443.95,465.8 443,466.5"/><path fill="#F1EFEE" fill-opacity="0.898" d="M460.2,450.75Q459.3,450.8 458.5,451.65 457.75,452.45 457.75,453.4 457.7,454.4 458.5,455.15L461.4,457.9 462.25,457 459.4,454.3Q458.45,453.3 459.25,452.4 460.15,451.5 461.15,452.5L464.05,455.15 464.85,454.25 462,451.4Q461.15,450.7 460.2,450.75"/><path fill="#F1EFEE" fill-opacity="0.898" d="M454,456.35L453.1,457.25 456.8,460.95 455.5,462.25 456.2,463.05 459.75,459.5 459,458.75 457.65,460 454,456.35"/><path fill="#F1EFEE" fill-opacity="0.898" d="M449.15,461.05L448.25,461.9 451.75,465.75 450.35,466.95 451,467.7 454.75,464.35 454,463.55 452.75,464.95 449.15,461.05"/><path fill="#F1EFEE" fill-opacity="0.898" d="M385.35,503.65L385.9,505.2Q386.65,505.75 387.05,504.7L385.95,502.15 384.15,503Q382.8,503.55 382.35,504.7 381.85,505.65 382.25,506.8 383.05,507.4 383.35,506.35 382.9,504.65 384.65,504L385.35,503.65"/><path fill="#F1EFEE" fill-opacity="0.898" d="M376.4,507.15L375.7,506.4 374.5,506.8 376.75,509.15Q377.55,509.6 377.8,508.7L377.05,507.85 378.7,507.25 378.7,508.3Q379.4,508.7 379.7,507.85L379.85,504.85 378.7,505.15 378.75,506.25 376.4,507.15"/><path fill="#F1EFEE" fill-opacity="0.898" d="M372.5,507.55L371.35,507.9 373.4,513.8 374.6,513.45 372.5,507.55"/><path fill="#F1EFEE" fill-opacity="0.898" d="M368.9,508.75L367.65,509.15 368.35,511.2 367.55,511.4 365.6,509.75 364.25,510.3 366.35,512.05Q365.25,512.85 365.65,514.15 365.7,514.3 365.8,514.45 366.6,514.85 366.95,513.95 366.9,513.8 366.85,513.75 366.6,512.75 367.85,512.4L368.65,512.2 368.95,513.1Q369.65,513.45 370.15,512.5L368.9,508.75"/><path fill="#F1EFEE" fill-opacity="0.898" d="M360.75,511.3L359.55,511.65 360.25,513.85 359.3,518.25 360.6,517.85 360.95,516Q361.1,515.4 361.05,514.6 361.5,515.25 361.95,515.7L363.25,517.05 364.6,516.75 361.4,513.5 360.75,511.3"/></g><g id="Scene 1_0.0"><path fill="#F1EFEE" fill-opacity="0.898" d="M500.7,197.9Q500.85,197.05 500.3,196.05L499.3,194.05 497.4,195.15Q496.95,195.95 498,196.25L498.9,195.7 499.3,196.5Q499.9,197.6 499.1,198.05 498.45,199.05 499.65,199.25 500.55,198.75 500.7,197.9"/><path fill="#F1EFEE" fill-opacity="0.898" d="M355.65,81.6Q354.8,82.05 354.4,83.05 354.45,83.9 355.5,83.45 355.8,82.9 356.3,82.6 357,82.1 357.9,82.35 358.8,82.6 359.15,83.35 359.5,84 359.4,84.8 359.7,85.75 360.6,85.2 360.9,83.9 360.3,82.8 359.55,81.7 358.15,81.3 356.8,80.9 355.65,81.6"/><path fill="#F1EFEE" fill-opacity="0.898" d="M364.2,83.95Q363.1,84.6 362.7,85.9 363,86.7 363.8,86.25 364.15,85.4 364.85,85 365.55,84.6 366.4,84.85 367.3,85.15 367.65,85.95 368.05,86.6 367.8,87.5 367.8,87.55 367.75,87.6 367.8,88.35 369,87.9L369,87.85Q369.45,86.55 368.75,85.35 368.15,84.25 366.75,83.85 365.45,83.4 364.2,83.95"/><path fill="#F1EFEE" fill-opacity="0.898" d="M374.15,86.35L372.4,85.7 371.25,88.7Q371.6,89.55 372.35,89.1L373.1,87.15 373.7,87.3Q374.7,87.65 374.95,88.4 375.3,89.05 375.05,90L375.05,90.05Q375.45,90.85 376.25,90.35 376.65,89.05 376.15,87.9 375.55,86.85 374.15,86.35"/><path fill="#F1EFEE" fill-opacity="0.898" d="M450.6,135.25Q451.1,134.85 451.75,134.8 452.6,134.8 453.25,135.4 453.85,136 453.9,136.85 453.95,137.65 453.3,138.35 453.2,139.3 454.2,139.25 455.2,138.2 455.1,136.85 454.95,135.6 454,134.6 452.95,133.65 451.75,133.7 450.6,133.65 449.75,134.35 449.7,135.25 450.6,135.25"/><path fill="#F1EFEE" fill-opacity="0.898" d="M464.15,146.5Q464.95,147.5 464.25,148.15L464.25,148.2Q463.9,149.25 465.2,149.2 465.9,148.4 465.85,147.55 465.75,146.65 465,145.85L463.5,144.2 462,145.6Q461.85,146.9 462.85,146.6L463.6,145.9 464.15,146.5"/><path fill="#F1EFEE" fill-opacity="0.898" d="M440.85,127.5Q441.4,127.2 441.9,126.9 441.65,127.4 441.5,127.95L441.3,128.55Q441.55,129.65 442.2,129.55L443.45,125.25 443.3,125.15 439.95,126.85Q439.7,127.5 440.65,127.7L440.85,127.5"/><path fill="#F1EFEE" fill-opacity="0.898" d="M506.65,209.1L506.5,209 502.75,209Q502.4,209.45 503.25,209.95L503.45,209.9Q504,209.9 504.6,209.9 504.15,210.3 503.8,210.65L503.55,210.85Q503.1,211.8 504,211.95L506.65,209.1"/><path fill="#F1EFEE" fill-opacity="0.898" d="M501.45,202.45L502.2,202.15 502.7,203.15Q503,203.85 502.3,204.2L502.3,204.25Q501.85,205 502.9,205.3 502.95,205.25 503.05,205.2 503.65,204.8 503.85,204.25 504.05,203.6 503.7,202.75L502.6,200.6 500.9,201.45Q500.65,202.05 501.45,202.45"/><path fill="#F1EFEE" fill-opacity="0.898" d="M498.35,203.9L499.15,203.5Q499.6,202.5 498.6,202.5L496.95,203.25 498.05,205.65Q498.45,206.5 499.15,206.75 499.8,207.1 500.55,206.7L500.6,206.7Q500.85,205.7 500.15,205.6 499.35,205.8 498.95,205.1L498.35,203.9"/><path fill="#F1EFEE" fill-opacity="0.898" d="M510.55,227.95Q510.45,228 510.35,228.05 509.9,228.8 510.8,229.3 510.8,229.25 510.9,229.25 511.8,228.9 512.6,229.3 513.35,229.65 513.65,230.5 513.9,231.35 513.45,232.15 513.1,232.8 512.15,233.05 512.05,233.1 511.95,233.1 511.35,234.1 512.35,234.4 512.5,234.35 512.6,234.3 514,233.9 514.5,232.7 515.1,231.5 514.7,230.15 514.2,228.85 513.05,228.1 511.9,227.5 510.55,227.95"/><path fill="#F1EFEE" fill-opacity="0.898" d="M521.75,331.65Q522.25,332.25 522.1,333.2 521.95,334.1 521.25,334.55 521,334.7 520.65,334.9 519.85,335.5 520.45,336.3 521.25,336.05 521.9,335.6 523,334.7 523.2,333.35 523.45,331.95 522.65,330.9 522.05,330.2 521.4,329.8 520.5,330.1 521.2,331.1 521.5,331.3 521.75,331.65"/><path fill="#F1EFEE" fill-opacity="0.898" d="M519.8,340L520.85,340.15 520.7,341.05Q520.4,342.3 519.45,342.1 518.85,342.65 519.3,343.4 520.25,343.55 520.85,342.95 521.5,342.35 521.75,341.3L522.2,339.15 520.05,338.75Q519.2,339.35 519.8,340"/><path fill="#F1EFEE" fill-opacity="0.898" d="M516.75,349.3L520.35,348.5 520.4,348.4 517.15,346.05Q516.6,346.45 517,347.2L517.25,347.35Q518.05,347.9 518.3,347.95 517.6,347.95 517.05,348.1L516.9,348.2Q516.15,348.6 516.75,349.3"/><path fill="#F1EFEE" fill-opacity="0.898" d="M114.15,169.4L112.85,171.15 114.35,172.3Q115.4,172.1 115.1,171.25L114.45,170.75 114.95,170.05Q115.6,169.1 116.4,169.45 117.55,169.35 117.1,168.45 116.25,168 115.6,168.2 114.75,168.5 114.15,169.4"/><path fill="#F1EFEE" fill-opacity="0.898" d="M98.55,197.25Q99.15,196.15 100.1,196.65 100.9,196.45 100.65,195.5 99.75,195 98.95,195.35 98.1,195.7 97.65,196.85L96.65,198.7 98.65,199.75Q99.6,199.25 99.2,198.6L98.15,198.05 98.55,197.25"/><path fill="#F1EFEE" fill-opacity="0.898" d="M106.45,184.2Q107.2,184.05 108,184.55 109.15,184.45 108.7,183.45 107.5,182.7 106.25,183.05 105.1,183.4 104.3,184.65L103.3,186.35 105.95,187.9Q106.95,187.6 106.65,186.8L104.9,185.85 105.2,185.3Q105.75,184.4 106.45,184.2"/><path fill="#F1EFEE" fill-opacity="0.898" d="M78.3,338.45Q78.2,338.5 78.15,338.5 77.1,338.7 76.75,339.5 76.35,340.25 76.55,341.4L76.9,343.55 78.55,343.25Q79.35,342.4 78.55,342.05L77.8,342.15 77.6,341.2Q77.45,339.95 78.4,339.8 79.2,339 78.3,338.45"/><path fill="#F1EFEE" fill-opacity="0.898" d="M86,371.2Q86.45,370.55 87.25,370.3 87.8,369.25 86.85,369.05 85.5,369.45 84.9,370.7 84.4,371.9 84.85,373.15 85.3,374.45 86.5,375.1 87.6,375.7 88.85,375.35 89.15,374.6 88.5,374.05 87.7,374.35 86.95,374.05 86.2,373.65 86,372.75 85.6,372 86,371.2"/><path fill="#F1EFEE" fill-opacity="0.898" d="M263.2,521.45Q263.198,521.242 263,520.2L262.95,519.95Q262.35,519.2 261.65,519.55L262.7,523.4 262.85,523.5 264.9,520.4Q264.8,519.8 263.95,520.2L263.8,520.35Q263.204,521.243 263.2,521.45"/><path fill="#F1EFEE" fill-opacity="0.898" d="M270.15,524.4L272.3,524.75 272.6,522.55Q272.15,521.65 271.35,522.2L271.15,523.45 270.3,523.4Q269.1,523.2 269.2,522.2 269.25,521.85 269.5,521.65 269.2,520.8 268.2,521.3 268.05,521.65 267.95,522.1 267.8,523.1 268.4,523.65 269.05,524.3 270.15,524.4"/><path fill="#F1EFEE" fill-opacity="0.898" d="M150.55,467.95Q150.65,467.05 149.65,467.1 149.6,467.1 149.6,467.15 148.95,467.9 149.1,468.8 149.2,469.6 150.15,470.35L151.7,471.8 152.95,470.45Q152.95,469.5 152.1,469.55L151.5,470.15 150.85,469.55Q149.9,468.7 150.55,467.95"/><path fill="#F1EFEE" fill-opacity="0.898" d="M387.05,504.7Q386.3,504.2 385.9,505.2L386.85,507.5 386.25,507.7Q385.25,508.15 384.55,507.9 383.85,507.5 383.45,506.65 383.4,506.5 383.35,506.35 382.5,506.05 382.25,506.8 382.3,507 382.4,507.15 382.95,508.45 384.05,508.9 385.15,509.4 386.6,508.75L388.45,508 387.05,504.7"/><path fill="#F1EFEE" fill-opacity="0.898" d="M366.85,515.45Q367.65,515.7 368.8,515.45L370.85,514.7 370.15,512.5Q369.25,512.05 368.95,513.1L369.3,514.05 368.45,514.4Q367.35,514.7 366.95,513.95 366.15,513.65 365.8,514.45 366.1,515.2 366.85,515.45"/><path fill="#F1EFEE" fill-opacity="0.898" d="M378.45,509.4Q378.1,509 377.9,508.8L377.8,508.7Q376.9,508.25 376.75,509.15L379.4,511.75 379.5,511.7 379.7,507.85Q379.25,507.6 378.7,508.3L378.7,508.5Q378.65,509.65 378.65,509.7 378.65,509.65 378.45,509.4"/></g><defs/></svg>