<?xml version="1.0" encoding="utf-8"?><svg xmlns:xlink="http://www.w3.org/1999/xlink" id="Scene_1" image-rendering="auto" baseProfile="basic" version="1.1" x="0px" y="0px" width="30" height="30" viewBox="0 0 30 30" xmlns="http://www.w3.org/2000/svg"><g id="Scene 1_1.0"><path fill="#786F65" d="M21.25,21.95Q21.5,22.25 22.05,22.25 22.5,22.25 22.85,21.95 23.25,21.55 23.25,21.1 23.25,20.6 22.85,20.3L19.7,17.15Q20.779,15.648 20.85,13.75 19.772,12.008 18.5,13.75 18.411,15.289 17.3,16.4 16.15,17.6 14.4,17.6 12.7,17.6 11.5,16.4 10.389,15.289 10.3,13.75 9.416,12.685 7.95,13.75 7.997,14.953 8.45,15.95 8.95,17.2 9.85,18.05 10.55,18.8 11.9,19.45 13.05,19.95 14.4,19.95 16.45,19.95 18.1,18.8L21.25,21.95"/></g><g id="Scene 1_0.0"><path fill="#786F65" d="M20.85,13.75Q20.85,13.626 20.85,13.5 20.85,12.1 20.35,10.95 19.7,9.65 19,8.9 18.15,8.05 16.9,7.55 15.7,7 14.4,7 13.15,7 11.9,7.55 10.7,8.05 9.85,8.9 8.95,9.75 8.45,10.95 7.95,12.1 7.95,13.5 7.95,13.626 7.95,13.75 9.125,14.815 10.3,13.75 10.3,13.626 10.3,13.5 10.3,11.8 11.5,10.6 12.7,9.4 14.4,9.4 16.15,9.4 17.3,10.6 18.5,11.8 18.5,13.5 18.5,13.626 18.5,13.75 19.675,14.981 20.85,13.75"/></g><defs/></svg>