<?xml version="1.0" encoding="utf-8"?><svg xmlns:xlink="http://www.w3.org/1999/xlink" id="Scene_1" image-rendering="auto" baseProfile="basic" version="1.1" x="0px" y="0px" width="30" height="30" viewBox="0 0 30 30" xmlns="http://www.w3.org/2000/svg"><g id="Scene 1_1.0"><path fill="#EF4929" d="M21.35,18.95Q23.05,16.6 23.15,13.65 21.45,10.95 19.5,13.65 19.35,16.05 17.65,17.8 15.85,19.65 13.1,19.65 10.45,19.65 8.6,17.8 6.9,16.05 6.75,13.65 5.35,12 3.05,13.65 3.15,15.5 3.85,17.1 4.65,19 6.05,20.35 7.1,21.5 9.2,22.5 11,23.3 13.1,23.3 16.3,23.3 18.85,21.5L23.8,26.4Q24.15,26.9 25,26.9 25.7,26.9 26.25,26.4 26.9,25.8 26.9,25.1 26.9,24.3 26.25,23.85L21.35,18.95"/></g><g id="Scene 1_0.0"><path fill="#EF4929" d="M23.15,13.65Q23.15,13.5 23.15,13.25 23.15,11.1 22.35,9.3 21.35,7.25 20.25,6.1 18.95,4.8 17,4 15.15,3.15 13.1,3.15 11.15,3.15 9.2,4 7.35,4.8 6.05,6.1 4.65,7.45 3.85,9.3 3.05,11.1 3.05,13.25 3.05,13.5 3.05,13.65 4.95,15.3 6.75,13.65 6.75,13.5 6.75,13.25 6.75,10.6 8.6,8.75 10.45,6.9 13.1,6.9 15.85,6.9 17.65,8.75 19.5,10.6 19.5,13.25 19.5,13.5 19.5,13.65 21.35,15.6 23.15,13.65"/></g><defs/></svg>