<?xml version="1.0" encoding="utf-8"?><svg xmlns:xlink="http://www.w3.org/1999/xlink" id="Scene_1" image-rendering="auto" baseProfile="basic" version="1.1" x="0px" y="0px" width="110" height="110" viewBox="0 0 110 110" xmlns="http://www.w3.org/2000/svg"><g id="Scene 1_3.0"><path fill="#EA421D" d="M31.25,79.65Q31.25,81.05 32.65,81.2L48.6,81.2 57.05,87.65Q57.3,87.75 57.7,87.75L58.2,87.75Q58.85,87.5 58.85,86.75L58.85,81.05 63.5,81.05 63.65,80.95 65.65,80.95Q66.9,80.95 67.95,79.9 68.8,79.05 68.8,77.75L68.8,52.85Q68.8,51.5 67.95,50.6 66.9,49.6 65.65,49.6L55.55,49.6Q53.65,49.45 53.65,51.1L53.65,71.05Q53.65,75.1 49.45,75.9L48.45,76 34.45,76 31.25,78.4 31.25,79.65"/></g><g id="Scene 1_2.0"><path fill="#EA421D" d="M30.4,58.8L30.4,58.7Q28.6,57.05 26.45,58.7L26.45,58.8Q26.45,59.8 25.7,60.6 25.1,61.35 23.95,61.35 22.95,61.35 22.15,60.6 21.4,59.8 21.4,58.8L21.4,58.7Q17.6,56.05 13.35,58.7L13.35,71.2Q13.35,72.6 14.2,73.45 15.1,74.35 16.35,74.35L22.95,74.35 22.95,79.9Q22.95,80.8 23.55,81.05L24.05,81.05Q24.6,81.05 24.85,80.95L33.4,74.35 48.85,74.35Q50.1,74.35 51.1,73.45 52,72.6 52,71.2L52,69.8 52.15,69.45 52.15,58.7Q48.35,57.4 44.4,58.7L44.4,58.8Q44.4,59.8 43.65,60.6 43.05,61.35 41.9,61.35 40.9,61.35 40.1,60.6 39.35,59.8 39.35,58.8L39.35,58.7Q37.6,57.4 35.45,58.7L35.45,58.8Q35.45,59.8 34.7,60.6 33.95,61.35 32.9,61.35 31.8,61.35 31.15,60.6 30.4,59.8 30.4,58.8"/></g><g id="Scene 1_1.0"><path fill="#EA421D" d="M51.1,43.15Q50.1,42.25 48.85,42.25L16.35,42.25Q15.1,42.25 14.2,43.15 13.35,44.05 13.35,45.4L13.35,58.7Q17.9,61.6 21.4,58.7 21.4,57.7 22.15,56.9 22.95,56.15 23.95,56.15 25.1,56.15 25.7,56.9 26.45,57.7 26.45,58.7 28.5,60.45 30.4,58.7 30.4,57.7 31.15,56.9 31.8,56.15 32.9,56.15 33.95,56.15 34.7,56.9 35.45,57.7 35.45,58.7 37.45,60.2 39.35,58.7 39.35,57.7 40.1,56.9 40.9,56.15 41.9,56.15 43.05,56.15 43.65,56.9 44.4,57.7 44.4,58.7 48.1,60.85 52.15,58.7L52.15,47.95 52,47.45 52,45.4Q52,44.05 51.1,43.15"/></g><defs/></svg>