<?xml version="1.0" encoding="utf-8"?><svg xmlns:xlink="http://www.w3.org/1999/xlink" id="Scene_1" image-rendering="auto" baseProfile="basic" version="1.1" x="0px" y="0px" width="110" height="110" viewBox="0 0 110 110" xmlns="http://www.w3.org/2000/svg"><g id="Scene 1_2.0"><path fill="#EA421D" d="M33.8,45.95Q32.4,45.95 31.15,46.6L16.75,51.7Q15.8,52 15.35,52.75 14.7,53.5 14.85,54.45L14.85,55.65Q15.9,65.25 20.45,73.1 25.15,80.8 33.05,85.9L33.8,86.35Q36.65,81.1 33.8,75.9L31.25,75.9 31.25,68.3 23.65,68.3 23.65,62.9 31.15,62.9 31.15,55.3 33.8,55.3Q36.35,50.85 33.8,45.95"/></g><g id="Scene 1_1.0"><path fill="#EA421D" d="M36.75,46.6Q35.4,45.95 33.9,45.95L33.8,45.95Q31.75,50.85 33.8,55.3L36.55,55.3 36.55,62.8 44.1,62.8 44.1,68.3 36.55,68.3 36.55,75.9 33.8,75.9Q31.65,81.1 33.8,86.35L33.9,86.35 34.75,85.9Q42.65,80.7 47.2,73.1 51.9,65.25 52.95,55.65L53.05,54.45Q53.2,53.5 52.55,52.75 52,52 51.05,51.7L36.75,46.6"/></g><defs/></svg>