<?xml version="1.0" encoding="utf-8"?><svg xmlns:xlink="http://www.w3.org/1999/xlink" id="Scene_1" image-rendering="auto" baseProfile="basic" version="1.1" x="0px" y="0px" width="110" height="110" viewBox="0 0 110 110" xmlns="http://www.w3.org/2000/svg"><g id="Scene 1_3.0"><path fill="#EA421D" d="M45.2,48.85Q44.1,48.8 43.2,49.4 42.4,50.15 42.3,51.35L42.1,52.8Q39.3,50.15 35.6,48.7 32.05,47.2 28.05,47.2 19.55,47.2 13.5,53.35 7.5,59.4 7.5,67.95 7.5,68.4 7.5,68.9 10.05,72 12.95,68.9 12.85,68.4 12.85,67.95 12.85,61.65 17.35,57.2 21.85,52.7 28.05,52.7 30.95,52.7 33.7,53.8 36.35,54.8 38.55,56.8L36.35,56.65Q35.15,56.55 34.35,57.25 33.5,58 33.35,59.1 33.25,60.2 34,61.1 34.7,61.95 35.8,62.05L44.2,62.85Q45.15,62.85 45.95,62.2 46.85,61.5 46.95,60.3L47.7,51.8Q47.8,50.7 47.05,49.8 46.3,48.95 45.2,48.85"/></g><g id="Scene 1_2.0"><path fill="#EA421D" d="M13.5,82.5Q19.55,88.6 28.05,88.6 34,88.6 38.9,85.5 43.95,82.5 46.6,77.2 47.05,76.2 46.75,75.1 46.4,74.1 45.3,73.55 44.3,73.1 43.3,73.35 42.2,73.7 41.75,74.75 39.75,78.65 36.1,80.95 32.45,83.15 28.05,83.15 21.85,83.15 17.35,78.75 13.25,74.65 12.95,68.9 11.05,65.5 7.5,68.9 7.85,76.85 13.5,82.5"/></g><g id="Scene 1_1.0"><path fill="#E14523" d="M29.6,61.5Q29.05,60.75 28.05,60.75 27.2,60.75 26.65,61.5L20.35,67.6Q19.9,68.15 19.9,68.95 19.9,69.7 20.35,70.25 20.9,70.8 21.75,70.8 22.45,70.8 23,70.25L26.2,66.95 26.2,77Q26.2,77.75 26.75,78.4 27.3,78.85 28.05,78.85 28.75,78.85 29.3,78.4L29.4,78.4 29.4,78.3Q29.85,77.75 29.85,77L29.85,66.95 33.25,70.35Q33.8,70.9 34.55,70.9 35.25,70.9 35.8,70.35 36.35,69.8 36.35,69.05 36.35,68.35 35.8,67.8L29.6,61.5"/></g><defs/></svg>