<?xml version="1.0" encoding="utf-8"?><svg xmlns:xlink="http://www.w3.org/1999/xlink" id="Scene_1" image-rendering="auto" baseProfile="basic" version="1.1" x="0px" y="0px" width="50" height="50" viewBox="0 0 50 50" xmlns="http://www.w3.org/2000/svg"><g id="Scene 1_2.0"><path fill="#EA421D" d="M28.7,18.45L27.5,18.35Q26.85,18.3 26.4,18.7 25.95,19.1 25.85,19.7 25.8,20.3 26.2,20.8 26.6,21.25 27.2,21.3L31.8,21.75Q32.3,21.75 32.75,21.4 33.25,21 33.3,20.35L33.7,15.7Q33.75,15.1 33.35,14.6 32.95,14.15 32.35,14.1 31.75,14.05 31.25,14.4 30.8,14.8 30.75,15.45L30.65,16.25Q29.1,14.8 27.1,14 25.15,13.2 22.95,13.2 18.3,13.2 15,16.55 11.7,19.85 11.7,24.55 11.7,24.802 11.7,25.05 13.103,26.739 14.675,25.05 14.65,24.803 14.65,24.55 14.65,21.1 17.1,18.65 19.55,16.2 22.95,16.2 24.55,16.2 26.05,16.8 27.5,17.35 28.7,18.45"/></g><g id="Scene 1_1.0"><path fill="#EA421D" d="M11.7,25.05Q11.879,29.379 15,32.5 18.3,35.85 22.95,35.85 26.2,35.85 28.9,34.15 31.65,32.5 33.1,29.6 33.35,29.05 33.2,28.45 33,27.9 32.4,27.6 31.85,27.35 31.3,27.5 30.7,27.7 30.45,28.25 29.35,30.4 27.35,31.65 25.35,32.85 22.95,32.85 19.55,32.85 17.1,30.45 14.829,28.179 14.675,25.05 13.652,23.193 11.7,25.05"/></g><g id="Scene 1_0.0"><path fill="#E14523" d="M22.95,20.6Q22.5,20.6 22.2,21L18.75,24.35Q18.5,24.65 18.5,25.1 18.5,25.5 18.75,25.8 19.05,26.1 19.5,26.1 19.9,26.1 20.2,25.8L21.95,24 21.95,29.5Q21.95,29.9 22.25,30.25 22.55,30.5 22.95,30.5 23.35,30.5 23.65,30.25L23.7,30.25 23.7,30.2Q23.95,29.9 23.95,29.5L23.95,24 25.8,25.85Q26.1,26.15 26.5,26.15 26.9,26.15 27.2,25.85 27.5,25.55 27.5,25.15 27.5,24.75 27.2,24.45L23.8,21Q23.5,20.6 22.95,20.6"/></g><defs/></svg>