<?xml version="1.0" encoding="utf-8"?><svg xmlns:xlink="http://www.w3.org/1999/xlink" id="Scene_1" image-rendering="auto" baseProfile="basic" version="1.1" x="0px" y="0px" width="50" height="50" viewBox="0 0 50 50" xmlns="http://www.w3.org/2000/svg"><g id="Scene 1_0.0"><path fill="#EA421D" d="M21,23.6L21.25,24.25 15.05,24.25 13.1,21.6Q12.9,21.25 12.5,21.25L12.4,21.25Q12,21.25 11.8,21.55 11.6,21.8 11.7,22.2L13.15,26.45 11.7,30.65Q11.6,31.05 11.8,31.35 12,31.6 12.4,31.6L12.5,31.6Q12.9,31.6 13.1,31.25L15,28.65 21.15,28.65 19.05,36.6Q18.95,36.95 19.15,37.2 19.35,37.5 19.75,37.5L19.9,37.5Q20.3,37.5 20.5,37.2L26.8,28.65 30.85,28.65Q31.85,28.65 33.45,27.95 35.3,27.2 35.3,26.45 35.3,25.7 33.45,24.95 31.85,24.25 30.85,24.25L26.9,24.25 26.35,23.6 20.55,15.65Q20.3,15.35 19.95,15.35L19.75,15.35Q19.4,15.35 19.2,15.65 19,16 19.05,16.25L21,23.6"/></g><defs/></svg>