<?xml version="1.0" encoding="utf-8"?><svg xmlns:xlink="http://www.w3.org/1999/xlink" id="Scene_1" image-rendering="auto" baseProfile="basic" version="1.1" x="0px" y="0px" width="50" height="50" viewBox="0 0 50 50" xmlns="http://www.w3.org/2000/svg"><g id="Scene 1_0.0"><path fill="#EA421D" d="M28.5,15.6Q28.25,15.6 28.1,15.75L27.35,16.5Q27.2,16.65 27.2,16.9 27.2,17.15 27.35,17.3L28.6,18.55 26.5,20.65 28.4,22.5 30.45,20.45 31.7,21.7Q31.9,21.85 32.1,21.85 32.35,21.85 32.55,21.7L33.25,20.95Q33.45,20.8 33.45,20.55 33.45,20.3 33.25,20.15L28.9,15.75Q28.75,15.6 28.5,15.6"/><path fill="#EA421D" d="M23.3,23.65L22.8,24.15 21.25,22.6 20.2,23.65 21.75,25.2 21.25,25.7 19.7,24.15 18.65,25.2 20.2,26.75 19.7,27.3 18.1,25.7 17.1,26.75 18.65,28.3 18.1,28.85 16.55,27.3 14.3,29.5Q14.15,29.7 14.15,29.95 14.15,30.2 14.3,30.35L18.65,34.7Q18.85,34.9 19.1,34.9 19.3,34.9 19.5,34.7L29.15,25.1Q29.3,24.9 29.3,24.7 29.3,24.45 29.15,24.25L24.75,19.9Q24.6,19.75 24.35,19.75 24.1,19.75 23.9,19.9L21.75,22.05 23.3,23.65"/><path fill="#EA421D" d="M17.1,34L15,31.95 11.35,37.2Q11.3,37.3 11.35,37.45L11.55,37.65Q11.7,37.7 11.8,37.7L17.1,34"/></g><defs/></svg>