<?xml version="1.0" encoding="utf-8"?><svg xmlns:xlink="http://www.w3.org/1999/xlink" id="Scene_1" image-rendering="auto" baseProfile="basic" version="1.1" x="0px" y="0px" width="110" height="110" viewBox="0 0 110 110" xmlns="http://www.w3.org/2000/svg"><g id="Scene 1_1.0"><path fill="#EA421D" d="M46.75,45.7Q46.95,46.5 47.65,46.85 52.15,49.45 54.2,54.2 56,58.6 55.1,63.55 54.95,64.25 55.4,65 55.75,65.7 56.55,65.9L57.1,66.15Q58,66.5 58.8,66.05 59.7,65.45 59.8,64.55 61.2,58.15 58.6,52.25 55.85,45.95 50,42.55 49.2,42.1 48.3,42.45 47.4,42.65 46.95,43.6L46.75,44.15Q46.4,44.95 46.75,45.7"/><path fill="#EA421D" d="M23.5,42.45Q21,43.8 19.55,48.3 19.2,49.45 19.2,50.9 19.4,57.45 21.8,63.3 24.75,70.3 29.15,75.75 31.4,78.45 32.95,79.7L37.6,83.2Q42.9,86.55 46.15,86.55 52.25,86.55 55.1,82.3 56.55,80.15 55.3,77.9L51.15,71.45Q50.45,70.55 47.95,69.85 45.95,69.4 43,71.1 42,71.7 41,73.05 40.4,73.7 40.05,74.25 39.15,73.95 37.8,72.9 35,71.1 32.65,67.95 30.35,64.9 29.35,61.05L29,57.7 30.35,57.7Q32.2,57.35 34.2,55.4 36.25,53.5 36.1,50.8L35.55,48.45Q33.75,45.5 32.05,43.35 30.5,41.1 28.55,41 26.55,40.65 23.5,42.45"/><path fill="#EA421D" d="M46.6,57.7Q47.4,59.5 47.2,61.3 46.95,62.75 48.55,63.3L49.1,63.55Q49.9,63.9 50.7,63.3 51.6,62.85 51.6,61.95 52.05,58.8 50.8,56 49.35,52.85 46.6,51 45.95,50.55 45.05,50.8 44.15,51 43.8,51.95L43.55,52.4Q42.9,53.85 44.15,54.75 45.95,56 46.6,57.7"/></g><defs/></svg>