<?xml version="1.0" encoding="utf-8"?><svg xmlns:xlink="http://www.w3.org/1999/xlink" id="Scene_1" image-rendering="auto" baseProfile="basic" version="1.1" x="0px" y="0px" width="50" height="50" viewBox="0 0 50 50" xmlns="http://www.w3.org/2000/svg"><g id="Scene 1_0.0"><path fill="#EA421D" d="M27.55,17.85Q27.4,18.2 27.55,18.55 27.65,18.9 27.95,19.05 29.95,20.2 30.85,22.3 31.65,24.25 31.25,26.45 31.2,26.75 31.4,27.1 31.55,27.4 31.9,27.5L32.15,27.6Q32.55,27.75 32.9,27.55 33.3,27.3 33.35,26.9 33.95,24.05 32.8,21.45 31.6,18.65 29,17.15 28.65,16.95 28.25,17.1 27.85,17.2 27.65,17.6L27.55,17.85"/><path fill="#EA421D" d="M20.3,23.85Q21.1,23.7 22,22.85 22.9,22 22.85,20.8L22.6,19.75Q21.8,18.45 21.05,17.5 20.35,16.5 19.5,16.45 18.6,16.3 17.25,17.1 16.15,17.7 15.5,19.7 15.35,20.2 15.35,20.85 15.45,23.75 16.5,26.35 17.8,29.45 19.75,31.85 20.75,33.05 21.45,33.6L23.5,35.15Q25.85,36.65 27.3,36.65 30,36.65 31.25,34.75 31.9,33.8 31.35,32.8L29.5,29.95Q29.2,29.55 28.1,29.25 27.2,29.05 25.9,29.8 25.45,30.05 25,30.65 24.75,30.95 24.6,31.2 24.2,31.05 23.6,30.6 22.35,29.8 21.3,28.4 20.3,27.05 19.85,25.35L19.7,23.85 20.3,23.85"/><path fill="#EA421D" d="M29.35,23.1Q28.7,21.7 27.5,20.9 27.2,20.7 26.8,20.8 26.4,20.9 26.25,21.3L26.15,21.5Q25.85,22.15 26.4,22.55 27.2,23.1 27.5,23.85 27.85,24.65 27.75,25.45 27.65,26.1 28.35,26.35L28.6,26.45Q28.95,26.6 29.3,26.35 29.7,26.15 29.7,25.75 29.9,24.35 29.35,23.1"/></g><defs/></svg>