<?xml version="1.0" encoding="utf-8"?><svg xmlns:xlink="http://www.w3.org/1999/xlink" id="Scene_1" image-rendering="auto" baseProfile="basic" version="1.1" x="0px" y="0px" width="50" height="50" viewBox="0 0 50 50" xmlns="http://www.w3.org/2000/svg"><g id="Scene 1_1.0"><path fill="#EA421D" d="M29.95,12.55L29.95,14.55 27.85,14.55 27.85,16.05 29.95,16.05 29.95,18.15 31.3,18.15 31.3,16.05 33.45,16.05 33.45,14.55 31.3,14.55 31.3,12.55 29.95,12.55"/><path fill="#EA421D" d="M20.6,18.55Q20.55,18.55 20.5,18.55 19.22,20.052 20.5,21.75 20.715,21.771 20.85,21.95 21,22.1 21,22.3L21,28.05 24.4,30.35Q24.6,30.45 24.65,30.65 24.65,30.75 24.65,30.85 24.6,31 24.55,31.05 24.4,31.3 24.1,31.3 23.95,31.3 23.8,31.2L20.5,29Q19.516,32.8 20.5,36.6 20.55,36.6 20.6,36.6 24.35,36.6 26.95,34 28.4,32.55 29.05,30.85 29.65,29.35 29.65,27.6 29.65,23.9 26.95,21.2 25.1,19.3 22.6,18.8 21.6,18.55 20.6,18.55"/></g><g id="Scene 1_0.0"><path fill="#EA421D" d="M20.5,21.75Q21.681,20.052 20.5,18.55 16.815,18.585 14.25,21.2 11.6,23.85 11.6,27.6 11.6,31.3 14.25,34 16.815,36.565 20.5,36.6 21.621,32.972 20.5,29L20.35,28.9Q19.95,28.75 19.95,28.35L19.95,22.3Q19.95,22.1 20.1,21.95 20.25,21.75 20.45,21.75L20.5,21.75"/></g><defs/></svg>