<?xml version="1.0" encoding="utf-8"?><svg xmlns:xlink="http://www.w3.org/1999/xlink" id="Scene_1" image-rendering="auto" baseProfile="basic" version="1.1" x="0px" y="0px" width="50" height="50" viewBox="0 0 50 50" xmlns="http://www.w3.org/2000/svg"><g id="Scene 1_1.0"><path fill="#EA421D" d="M24,16.4Q23.329,16.411 22.75,16.7L16,19.1Q15.55,19.25 15.35,19.6 15.05,19.95 15.1,20.4L15.1,20.95Q15.6,25.45 17.75,29.15 19.95,32.75 23.65,35.15L24,35.325Q25.346,32.888 24,30.45L22.8,30.45 22.8,26.9 19.25,26.9 19.25,24.35 22.75,24.35 22.75,20.8 24,20.8Q25.177,18.684 24,16.4"/></g><g id="Scene 1_0.0"><path fill="#EA421D" d="M24,16.4Q23.068,18.693 24,20.8L25.3,20.8 25.3,24.3 28.85,24.3 28.85,26.9 25.3,26.9 25.3,30.45 24,30.45Q23.006,32.888 24,35.325L24.05,35.35 24.45,35.15Q28.15,32.7 30.3,29.15 32.5,25.45 33,20.95L33.05,20.4Q33.1,19.95 32.8,19.6 32.55,19.25 32.1,19.1L25.4,16.7Q24.75,16.4 24.05,16.4L24,16.4"/></g><defs/></svg>