<?xml version="1.0" encoding="utf-8"?><svg xmlns:xlink="http://www.w3.org/1999/xlink" id="Scene_1" image-rendering="auto" baseProfile="basic" version="1.1" x="0px" y="0px" width="110" height="110" viewBox="0 0 110 110" xmlns="http://www.w3.org/2000/svg"><g id="Scene 1_2.0"><path fill="#EA421D" d="M49.25,44.25Q49.25,43.2 48.55,42.6 47.8,41.85 46.85,41.85L39.8,41.85Q38.75,42.7 39.8,44.25L46.85,44.25 46.85,51.5 43.4,51.5 43.4,50.15 39.8,50.15Q37.3,66.95 39.8,85.25L51.7,85.25Q51.7,86.3 52.45,86.95 53.15,87.7 54.1,87.7 55.15,87.7 55.8,86.95 56.55,86.3 56.55,85.25L58.95,85.25Q60.95,85.25 62.4,83.9 63.8,82.55 63.8,80.55L63.8,56.25Q63.8,54.25 62.4,52.9 60.95,51.5 58.95,51.5L49.25,51.5 49.25,44.25"/></g><g id="Scene 1_1.0"><path fill="#EA421D" d="M32.35,41.85Q31.4,41.85 30.65,42.6 29.95,43.2 29.95,44.25L29.95,51.5 20.25,51.5Q18.25,51.5 16.9,52.9 15.4,54.25 15.4,56.25L15.4,80.55Q15.4,82.55 16.9,83.9 18.25,85.25 20.25,85.25L22.7,85.25Q22.7,86.3 23.4,86.95 24.15,87.7 25.1,87.7 26.15,87.7 26.8,86.95 27.5,86.3 27.5,85.25L39.8,85.25Q42.65,67.7 39.8,50.15L36.15,50.15 36.15,51.5 32.35,51.5 32.35,44.25 39.8,44.25Q41.2,43.1 39.8,41.85L32.35,41.85"/></g><defs/></svg>