<?xml version="1.0" encoding="utf-8"?><svg xmlns:xlink="http://www.w3.org/1999/xlink" id="Scene_1" image-rendering="auto" baseProfile="basic" version="1.1" x="0px" y="0px" width="110" height="110" viewBox="0 0 110 110" xmlns="http://www.w3.org/2000/svg"><g id="Scene 1_1.0"><path fill="#EA421D" d="M56.55,43.1Q54.5,44.9 54.5,47.6 54.5,50.35 56.55,52.25 58.35,54.15 60.9,54.15 63.75,54.15 65.55,52.25 67.45,50.35 67.45,47.6 67.45,44.9 65.55,43.1 63.75,41.2 60.9,41.2 58.35,41.2 56.55,43.1"/><path fill="#EA421D" d="M46.5,47.6Q46.5,44.9 44.55,43.1 42.65,41.2 40.05,41.2 37.25,41.2 35.45,43.1 33.5,44.9 33.5,47.6 33.5,50.35 35.45,52.25 37.25,54.15 40.05,54.15 42.65,54.15 44.55,52.25 46.5,50.35 46.5,47.6"/><path fill="#EA421D" d="M23.6,43.1Q21.8,41.2 19,41.2 16.4,41.2 14.45,43.1 12.65,44.9 12.65,47.6 12.65,50.35 14.45,52.25 16.4,54.15 19,54.15 21.8,54.15 23.6,52.25 25.5,50.35 25.5,47.6 25.5,44.9 23.6,43.1"/><path fill="#EA421D" d="M40.2,58.1L40.05,58.1 39.6,58.35 37.45,60.7 37.45,60.6 37.25,61.05 37.7,61.4 39.05,61.4 39.05,69.25 39.4,69.5 40.65,69.5Q41.2,69.5 41.2,68.95L41.2,61.4 42.3,61.4 42.55,61.15 42.65,61.15 42.65,60.7 40.4,58.35 40.4,58.2 40.2,58.1"/><path fill="#EA421D" d="M20.9,61.4L21.45,61.15Q21.7,60.8 21.45,60.6L21.45,60.7 19.1,58.35 18.75,58.1 18.75,58 16.4,60.6Q16.05,60.6 16.15,60.8 16.05,60.95 16.25,61.15L16.5,61.25 16.6,61.4 17.85,61.4 17.85,69.25 18.1,69.5 18.3,69.5 29.35,75.6 29.6,75.8 30.5,74 19.9,68.05 19.9,61.4 20.9,61.4"/><path fill="#EA421D" d="M35.45,84.7Q37.25,86.65 40.05,86.65 42.65,86.65 44.55,84.7 46.5,82.9 46.5,80.1 46.5,77.5 44.55,75.7 42.65,73.65 40.05,73.65 37.25,73.65 35.45,75.7 33.5,77.5 33.5,80.1 33.5,82.9 35.45,84.7"/><path fill="#EA421D" d="M60.8,58.2L60.8,58.35 58.65,60.7 58.65,61.15 58.9,61.25 59,61.4 60.25,61.4 60.25,68.25 50.45,73.65 51.35,75.45 62.4,69.4 62.3,69.15 62.4,68.95 62.4,61.4 63.5,61.4 63.95,61.05 63.85,60.8 61.25,58 60.8,58.2"/></g><defs/></svg>