<?xml version="1.0" encoding="utf-8"?><svg xmlns:xlink="http://www.w3.org/1999/xlink" id="Scene_1" image-rendering="auto" baseProfile="basic" version="1.1" x="0px" y="0px" width="50" height="50" viewBox="0 0 50 50" xmlns="http://www.w3.org/2000/svg"><g id="Scene 1_2.0"><path fill="#EA421D" d="M30.3,18.45Q29.55,18.4 29.55,19.05L29.55,26.95Q29.55,28.55 27.9,28.85L27.5,28.9 21.95,28.9 20.7,29.85 20.7,30.35Q20.7,30.9 21.25,30.95L27.55,30.95 30.9,33.5Q31,33.55 31.15,33.55L31.35,33.55Q31.6,33.45 31.6,33.15L31.6,30.9 33.45,30.9 33.5,30.85 34.3,30.85Q34.8,30.85 35.2,30.45 35.55,30.1 35.55,29.6L35.55,19.75Q35.55,19.2 35.2,18.85 34.8,18.45 34.3,18.45L30.3,18.45"/></g><g id="Scene 1_1.0"><path fill="#EA421D" d="M20.35,22.1L20.35,22.05Q19.67,21.384 18.8,22.05L18.8,22.1Q18.8,22.5 18.5,22.8 18.25,23.1 17.8,23.1 17.4,23.1 17.1,22.8 16.8,22.5 16.8,22.1L16.8,22.05Q15.294,21.019 13.6,22.05L13.6,27Q13.6,27.55 13.95,27.9 14.3,28.25 14.8,28.25L17.4,28.25 17.4,30.45Q17.4,30.8 17.65,30.9L17.85,30.9Q18.05,30.9 18.15,30.85L21.55,28.25 27.65,28.25Q28.15,28.25 28.55,27.9 28.9,27.55 28.9,27L28.9,26.45 28.95,26.3 28.95,22.05Q27.425,21.554 25.9,22.05L25.9,22.1Q25.9,22.5 25.6,22.8 25.35,23.1 24.9,23.1 24.5,23.1 24.2,22.8 23.9,22.5 23.9,22.1L23.9,22.05Q23.22,21.574 22.35,22.05L22.35,22.1Q22.35,22.5 22.05,22.8 21.75,23.1 21.35,23.1 20.9,23.1 20.65,22.8 20.35,22.5 20.35,22.1"/></g><g id="Scene 1_0.0"><path fill="#EA421D" d="M28.55,15.9Q28.15,15.55 27.65,15.55L14.8,15.55Q14.3,15.55 13.95,15.9 13.6,16.25 13.6,16.8L13.6,22.05Q15.391,23.194 16.8,22.05 16.817,21.633 17.1,21.35 17.4,21.05 17.8,21.05 18.25,21.05 18.5,21.35 18.783,21.633 18.8,22.05 19.575,22.739 20.35,22.05 20.367,21.633 20.65,21.35 20.9,21.05 21.35,21.05 21.75,21.05 22.05,21.35 22.333,21.633 22.35,22.05 23.125,22.671 23.9,22.05 23.917,21.633 24.2,21.35 24.5,21.05 24.9,21.05 25.35,21.05 25.6,21.35 25.883,21.633 25.9,22.05 27.332,22.883 28.95,22.05L28.95,17.8 28.9,17.6 28.9,16.8Q28.9,16.25 28.55,15.9"/></g><defs/></svg>