<?xml version="1.0" encoding="utf-8"?><svg xmlns:xlink="http://www.w3.org/1999/xlink" id="Scene_1" image-rendering="auto" baseProfile="basic" version="1.1" x="0px" y="0px" width="110" height="110" viewBox="0 0 110 110" xmlns="http://www.w3.org/2000/svg"><g id="Scene 1_1.0"><path fill="#EA421D" d="M56.45,36.15Q56.1,36.55 56.1,37.1 56.1,37.7 56.45,38.05L59.4,41 54.45,45.95 58.95,50.35 63.8,45.5 66.75,48.45Q67.2,48.8 67.65,48.8 68.25,48.8 68.75,48.45L70.4,46.65Q70.85,46.3 70.85,45.75 70.85,45.15 70.4,44.8L60.1,34.4Q59.75,34.05 59.2,34.05 58.6,34.05 58.25,34.4L56.45,36.15"/><path fill="#EA421D" d="M50.35,44.2Q50,43.85 49.4,43.85 48.8,43.85 48.35,44.2L43.25,49.25 46.9,53.05 45.75,54.2 42.1,50.55 39.6,53.05 43.25,56.7 42.1,57.9 38.4,54.2 35.95,56.7 39.6,60.35 38.4,61.65 34.65,57.9 32.3,60.35 35.95,64 34.65,65.3 31,61.65 25.7,66.85Q25.35,67.3 25.35,67.9 25.35,68.5 25.7,68.85L35.95,79.1Q36.4,79.6 37,79.6 37.5,79.6 37.95,79.1L60.7,56.45Q61.05,56 61.05,55.5 61.05,54.95 60.7,54.45L50.35,44.2"/><path fill="#EA421D" d="M19.2,86.05Q19.55,86.2 19.8,86.2L32.3,77.45 27.35,72.6 18.7,85Q18.6,85.25 18.7,85.6L19.2,86.05"/></g><defs/></svg>