<?xml version="1.0" encoding="utf-8"?><svg xmlns:xlink="http://www.w3.org/1999/xlink" id="Scene_1" image-rendering="auto" baseProfile="basic" version="1.1" x="0px" y="0px" width="110" height="110" viewBox="0 0 110 110" xmlns="http://www.w3.org/2000/svg"><g id="Scene 1_3.0"><path fill="#EA421D" d="M56.05,30L52.9,30 52.9,34.75 47.95,34.75 47.95,38.3 52.9,38.3 52.9,43.25 56.05,43.25 56.05,38.3 61.15,38.3 61.15,34.75 56.05,34.75 56.05,30"/><path fill="#EA421D" d="M35.55,44.75Q33.2,44.2 30.8,44.2 30.7,44.2 30.6,44.2 27.5,47.7 30.6,51.75 31.05,51.75 31.4,52.2 31.75,52.55 31.75,53.05L31.75,66.6 39.8,72.05Q40.25,72.25 40.35,72.75 40.35,72.95 40.35,73.2 40.25,73.55 40.15,73.7 39.8,74.25 39.1,74.25 38.7,74.25 38.35,74.05L30.6,68.85Q28.2,77.8 30.6,86.8 30.7,86.8 30.8,86.8 39.65,86.8 45.8,80.65 49.2,77.2 50.75,73.2 52.15,69.65 52.15,65.55 52.15,56.8 45.8,50.45 41.45,45.95 35.55,44.75"/></g><g id="Scene 1_2.0"><path fill="#EA421D" d="M30.45,51.75L30.6,51.75Q33.4,47.7 30.6,44.2 21.85,44.3 15.85,50.45 9.6,56.7 9.6,65.55 9.6,74.25 15.85,80.65 21.85,86.65 30.6,86.8 33.2,78.15 30.6,68.85L30.25,68.6Q29.3,68.25 29.3,67.3L29.3,53.05Q29.3,52.55 29.65,52.2 30,51.75 30.45,51.75"/></g><defs/></svg>