<?xml version="1.0" encoding="utf-8"?><svg xmlns:xlink="http://www.w3.org/1999/xlink" id="Scene_1" image-rendering="auto" baseProfile="basic" version="1.1" x="0px" y="0px" width="110" height="110" viewBox="0 0 110 110" xmlns="http://www.w3.org/2000/svg"><g id="Scene 1_1.0"><path fill="#EA421D" d="M28.5,42.45Q28,41.85 27.3,41.85L26.9,41.85Q26.2,41.85 25.8,42.45 25.4,43.15 25.5,43.65L29.4,58.45 29.9,59.75 17.45,59.75 13.5,54.45Q13.1,53.7 12.3,53.7L12.1,53.7Q11.3,53.7 10.9,54.35 10.5,54.85 10.7,55.65L13.6,64.2 10.7,72.65Q10.5,73.45 10.9,74.05 11.3,74.55 12.1,74.55L12.3,74.55Q13.1,74.55 13.5,73.85L17.35,68.6 29.7,68.6 25.5,84.6Q25.3,85.3 25.7,85.85 26.1,86.45 26.9,86.45L27.2,86.45Q28,86.45 28.4,85.85L41.1,68.6 49.25,68.6Q51.25,68.6 54.5,67.2 58.2,65.7 58.2,64.2 58.2,62.7 54.5,61.15 51.25,59.75 49.25,59.75L41.3,59.75 40.2,58.45 28.5,42.45"/></g><defs/></svg>