<?xml version="1.0" encoding="utf-8"?><svg xmlns:xlink="http://www.w3.org/1999/xlink" id="Scene_1" image-rendering="auto" baseProfile="basic" version="1.1" x="0px" y="0px" width="50" height="50" viewBox="0 0 50 50" xmlns="http://www.w3.org/2000/svg"><g id="Scene 1_0.0"><path fill="#EA421D" d="M24.55,16.45Q23.3,16.45 22.5,17.3 21.65,18.1 21.65,19.3 21.65,20.5 22.5,21.35 23.3,22.2 24.55,22.2 25.7,22.2 26.55,21.35 27.4,20.5 27.4,19.3 27.4,18.1 26.55,17.3 25.7,16.45 24.55,16.45"/><path fill="#EA421D" d="M24.6,23.95L24.55,23.95 24.35,24.05 23.4,25.1 23.4,25.05 23.3,25.25 23.5,25.4 24.1,25.4 24.1,28.9 24.2,28.95 24.25,29 24.8,29Q25.05,29 25.05,28.75L25.05,25.4 25.55,25.4 25.65,25.3 25.7,25.3 25.7,25.1 24.7,24.05 24.7,24 24.6,23.95"/><path fill="#EA421D" d="M33.8,16.45Q32.65,16.45 31.85,17.3 30.95,18.1 30.95,19.3 30.95,20.5 31.85,21.35 32.65,22.2 33.8,22.2 35.05,22.2 35.85,21.35 36.7,20.5 36.7,19.3 36.7,18.1 35.85,17.3 35.05,16.45 33.8,16.45"/><path fill="#EA421D" d="M33.95,23.9L33.75,24 33.75,24.05 32.8,25.1 32.8,25.3 32.9,25.35 32.95,25.4 33.5,25.4 33.5,28.45 29.15,30.85 29.55,31.65 34.45,28.95 34.4,28.85 34.45,28.75 34.45,25.4 34.95,25.4 35.15,25.25 35.1,25.15 33.95,23.9"/><path fill="#EA421D" d="M17.25,17.3Q16.45,16.45 15.2,16.45 14.05,16.45 13.2,17.3 12.4,18.1 12.4,19.3 12.4,20.5 13.2,21.35 14.05,22.2 15.2,22.2 16.45,22.2 17.25,21.35 18.1,20.5 18.1,19.3 18.1,18.1 17.25,17.3"/><path fill="#EA421D" d="M15.1,23.95L15.1,23.9 14.05,25.05Q13.9,25.05 13.95,25.15 13.9,25.2 14,25.3L14.1,25.35 14.15,25.4 14.7,25.4 14.7,28.9 14.8,29 14.9,29 19.8,31.7 19.9,31.8 20.3,31 15.6,28.35 15.6,25.4 16.05,25.4 16.3,25.3Q16.4,25.15 16.3,25.05L16.3,25.1 15.25,24.05 15.1,23.95"/><path fill="#EA421D" d="M22.5,31.75Q21.65,32.55 21.65,33.7 21.65,34.95 22.5,35.75 23.3,36.6 24.55,36.6 25.7,36.6 26.55,35.75 27.4,34.95 27.4,33.7 27.4,32.55 26.55,31.75 25.7,30.85 24.55,30.85 23.3,30.85 22.5,31.75"/></g><defs/></svg>