<?xml version="1.0" encoding="utf-8"?><svg xmlns:xlink="http://www.w3.org/1999/xlink" id="Scene_1" image-rendering="auto" baseProfile="basic" version="1.1" x="0px" y="0px" width="10" height="20" viewBox="0 0 10 20" xmlns="http://www.w3.org/2000/svg"><g id="Scene 1_2.0"><path fill="#EDEBEC" d="M3.65,7.4Q3.128,6.721 2.8,7.4L2.8,11.85 2.75,11.95Q2,12.85 2,14 2,15.3 2.85,16.15 3.75,17 5,17 6.3,17 7.15,16.15 8,15.3 8,14 8,12.8 7.2,12L7.2,7.4Q6.775,6.721 6.35,7.4L6.35,12.15 6.45,12.4Q7.2,13.05 7.2,14 7.2,14.9 6.55,15.55 5.9,16.15 5,16.15 4.1,16.15 3.45,15.55 2.85,14.9 2.85,14 2.85,13.05 3.5,12.4 3.65,12.35 3.65,12.15L3.65,7.4"/></g><g id="Scene 1_1.0"><path fill="#EDEBEC" d="M5.95,4.25Q6.35,4.65 6.35,5.2L6.35,7.4Q6.866,8.038 7.2,7.4L7.2,5.2Q7.2,4.3 6.55,3.6 5.9,3 4.95,3L4.75,3Q3.9,3.1 3.35,3.75 2.8,4.35 2.8,5.25L2.8,7.4Q3.322,7.982 3.65,7.4L3.65,5.2Q3.65,4.65 4.05,4.25 4.45,3.85 5,3.85 5.55,3.85 5.95,4.25"/></g><g id="Scene 1_0.0"><path fill="#EDEBEC" d="M5.45,10.95L4.55,10.95 4.55,12.8Q3.75,13.2 3.75,13.95 3.75,14.45 4.15,14.85 4.5,15.2 5,15.2 5.5,15.2 5.85,14.85 6.2,14.45 6.2,13.95 6.2,13.2 5.45,12.8L5.45,10.95"/></g><defs/></svg>