<?xml version="1.0" encoding="utf-8"?><svg xmlns:xlink="http://www.w3.org/1999/xlink" id="Scene_1" image-rendering="auto" baseProfile="basic" version="1.1" x="0px" y="0px" width="50" height="70" viewBox="0 0 50 70" xmlns="http://www.w3.org/2000/svg"><g id="Scene 1_1.0"><path fill="#786F65" d="M25.35,7.35Q25.176,7.35 25,7.35 17.35,7.35 11.95,13.1 6.55,18.85 6.55,27.05L6.55,43Q6.55,51.2 11.95,56.95 17.35,62.7 25,62.7 25.176,62.7 25.35,62.7 27.391,58.675 25.35,54.65 25.182,54.7 25,54.7 24.5,54.7 24.1,54.35 23.8,54 23.8,53.5L23.8,32.45 17.85,38.4Q17.5,38.75 17,38.75 16.5,38.75 16.15,38.4 15.75,38 15.75,37.5 15.75,37.05 16.15,36.65L24.15,28.65Q24.5,28.25 25,28.25 25.182,28.25 25.35,28.3 27.139,25.188 25.35,22.075 25.178,22.1 25,22.1 23.7,22.1 22.85,21.2 21.95,20.35 21.95,19.05 21.95,17.8 22.85,16.85 23.7,15.95 25,15.95 25.178,15.95 25.35,15.975 27.901,11.663 25.35,7.35"/></g><g id="Scene 1_0.0"><path fill="#786F65" d="M43.45,43L43.45,27.05Q43.45,18.9 38.05,13.1 32.774,7.482 25.35,7.35 23.185,11.663 25.35,15.975 26.385,16.078 27.2,16.85 28.1,17.8 28.1,19.05 28.1,20.35 27.2,21.2 26.385,21.972 25.35,22.075 23.786,25.188 25.35,28.3 25.645,28.395 25.9,28.65L33.85,36.65Q34.25,37.05 34.25,37.5 34.25,38 33.85,38.4 33.45,38.75 33,38.75 32.5,38.75 32.1,38.4L26.25,32.45 26.25,53.5Q26.25,53.95 25.9,54.35 25.645,54.573 25.35,54.65 23.393,58.381 25.35,62.7 32.774,62.568 38.05,56.95 43.45,51.2 43.45,43"/></g><defs/></svg>