<?xml version="1.0" encoding="utf-8"?><svg xmlns:xlink="http://www.w3.org/1999/xlink" id="Scene_1" image-rendering="auto" baseProfile="basic" version="1.1" x="0px" y="0px" width="30" height="30" viewBox="0 0 30 30" xmlns="http://www.w3.org/2000/svg"><g id="Scene 1_2.0"><path fill="#EF4929" d="M23.8,23.85Q27.45,20.2 27.45,15 27.45,9.8 23.8,6.15 20.15,2.5 15,2.5 9.85,2.5 6.2,6.15 2.55,9.8 2.55,15 2.55,20.2 6.2,23.85 9.85,27.5 15,27.5 20.15,27.5 23.8,23.85"/></g><g id="Scene 1_1.0"><path fill="#FFF" d="M13.75,11.45Q14.25,11.6 14.45,12.05 14.65,12.5 14.65,13.45L14.65,18.3Q14.65,19.25 14.1,19.6 13.55,19.95 12.55,19.95L12.55,20.35Q13,20.35 13.85,20.3 14.65,20.25 15.6,20.25 16.45,20.25 17.2,20.3 17.95,20.35 18.35,20.35L18.35,19.95Q17.35,19.95 16.9,19.6 16.45,19.25 16.45,18.3L16.45,9.85Q15.7,10.35 14.75,10.6 13.75,10.85 12.35,10.85L12.35,11.3Q13.25,11.3 13.75,11.45"/></g><defs/></svg>