<?xml version="1.0" encoding="utf-8"?><svg xmlns:xlink="http://www.w3.org/1999/xlink" id="Scene_1" image-rendering="auto" baseProfile="basic" version="1.1" x="0px" y="0px" width="30" height="30" viewBox="0 0 30 30" xmlns="http://www.w3.org/2000/svg"><g id="Scene 1_2.0"><path fill="#EF4929" d="M23.8,23.85Q27.45,20.2 27.45,15 27.45,9.8 23.8,6.15 20.15,2.5 15,2.5 9.85,2.5 6.2,6.15 2.55,9.8 2.55,15 2.55,20.2 6.2,23.85 9.85,27.5 15,27.5 20.15,27.5 23.8,23.85"/></g><g id="Scene 1_1.0"><path fill="#FFF" d="M16.9,10.45Q16.1,9.8 14.7,9.8 13.65,9.8 12.9,10.15 12.1,10.5 11.6,11.05 11.1,11.65 10.8,12.3L11.1,12.45Q11.65,11.5 12.3,11.05 13,10.6 13.8,10.6 14.7,10.6 15.25,11.1 15.75,11.6 15.75,12.75 15.75,14 15.25,15 14.7,16.05 13.9,16.95 13.15,17.85 12.3,18.6 11.5,19.35 10.85,20L10.85,20.35 15.55,20.35Q16.15,20.35 16.75,20.35 17.35,20.35 17.85,20.4 18.3,20.4 18.5,20.45 18.5,20.15 18.45,19.8 18.45,19.45 18.45,18.95 18.45,18.5 18.45,17.8L18.1,17.8Q18.05,18.15 17.95,18.4 17.85,18.6 17.55,18.7 17.3,18.8 16.75,18.8L12.7,18.8Q13.25,18.1 14.1,17.35 14.95,16.6 15.75,15.8 16.6,15 17.15,14.15 17.7,13.3 17.7,12.3 17.7,11.1 16.9,10.45"/></g><defs/></svg>