<?xml version="1.0" encoding="utf-8"?><svg xmlns:xlink="http://www.w3.org/1999/xlink" id="Scene_1" image-rendering="auto" baseProfile="basic" version="1.1" x="0px" y="0px" width="30" height="30" viewBox="0 0 30 30" xmlns="http://www.w3.org/2000/svg"><g id="Scene 1_2.0"><path fill="#EF4929" d="M23.8,23.85Q27.45,20.2 27.45,15 27.45,9.8 23.8,6.15 20.15,2.5 15,2.5 9.85,2.5 6.2,6.15 2.55,9.8 2.55,15 2.55,20.2 6.2,23.85 9.85,27.5 15,27.5 20.15,27.5 23.8,23.85"/></g><g id="Scene 1_1.0"><path fill="#FFF" d="M11.8,11.45Q12.3,10.55 12.95,10.1 13.65,9.65 14.45,9.65 15.3,9.65 15.75,10.1 16.2,10.5 16.2,11.45 16.2,12.25 15.85,12.95 15.45,13.7 14.65,14.35 14.5,14.3 14.3,14.3 14.15,14.25 13.95,14.25 13.75,14.25 13.6,14.35 13.45,14.45 13.45,14.65 13.45,14.75 13.55,14.8 13.6,14.9 13.8,14.9 13.95,14.9 14.2,14.8 14.4,14.7 14.7,14.6 15.7,14.7 16.25,15.45 16.8,16.2 16.85,17.4 16.8,18.5 16.35,19.35 15.9,20.2 15.1,20.8 14.3,21.35 13.35,21.65 12.35,22 11.35,22L11.35,22.35Q12.65,22.35 13.95,22 15.25,21.65 16.3,21 17.4,20.35 18.05,19.45 18.7,18.55 18.75,17.4 18.7,16.35 18.2,15.7 17.65,15.05 16.8,14.7 16,14.4 15.05,14.35 15.8,14.1 16.45,13.6 17.15,13.15 17.55,12.5 18,11.85 18,11.05 18,10 17.2,9.4 16.4,8.8 15.15,8.8 14.15,8.8 13.45,9.15 12.75,9.5 12.25,10.05 11.8,10.6 11.5,11.3L11.8,11.45"/></g><defs/></svg>