<?xml version="1.0" encoding="utf-8"?><svg xmlns:xlink="http://www.w3.org/1999/xlink" id="Scene_1" image-rendering="auto" baseProfile="basic" version="1.1" x="0px" y="0px" width="30" height="30" viewBox="0 0 30 30" xmlns="http://www.w3.org/2000/svg"><g id="Scene 1_2.0"><path fill="#EF4929" d="M23.8,23.85Q27.45,20.2 27.45,15 27.45,9.8 23.8,6.15 20.15,2.5 15,2.5 9.85,2.5 6.2,6.15 2.55,9.8 2.55,15 2.55,20.2 6.2,23.85 9.85,27.5 15,27.5 20.15,27.5 23.8,23.85"/></g><g id="Scene 1_1.0"><path fill="#FFF" d="M14.6,8.85Q14,8.85 13.4,8.8 12.8,8.8 12.3,8.8 11.85,8.75 11.65,8.75 11.7,9.2 11.7,9.85 11.7,10.5 11.7,11.55L12.05,11.55Q12.1,11.15 12.2,10.9 12.3,10.7 12.6,10.6 12.85,10.5 13.4,10.5L18.1,10.5Q17.45,11.65 16.7,12.9 15.95,14.1 15.3,15.4 14.65,16.7 14.25,18.05 13.85,19.45 13.85,20.95 13.85,21.4 14.05,21.7 14.25,22.05 14.75,22.05 15.15,22.05 15.4,21.75 15.65,21.5 15.65,21.05 15.65,20.75 15.65,20.35 15.6,19.95 15.6,19.45 15.6,17.75 15.95,16.3 16.3,14.9 16.9,13.65 17.45,12.45 18,11.35 18.6,10.25 19.05,9.25L19.05,8.85 14.6,8.85"/></g><defs/></svg>