<?xml version="1.0" encoding="utf-8"?><svg xmlns:xlink="http://www.w3.org/1999/xlink" id="Scene_1" image-rendering="auto" baseProfile="basic" version="1.1" x="0px" y="0px" width="30" height="30" viewBox="0 0 30 30" xmlns="http://www.w3.org/2000/svg"><g id="Scene 1_3.0"><path fill="#EF4929" d="M23.8,23.85Q27.45,20.2 27.45,15 27.45,9.8 23.8,6.15 20.15,2.5 15,2.5 9.85,2.5 6.2,6.15 2.55,9.8 2.55,15 2.55,20.2 6.2,23.85 9.85,27.5 15,27.5 20.15,27.5 23.8,23.85"/></g><g id="Scene 1_2.0"><path fill="#FFF" d="M10.05,16.85L10.05,17.25 15.25,17.25 15.25,21.15 16.85,21.15 16.85,17.3Q17.55,17.3 18.1,17.3 18.6,17.35 18.85,17.35 18.8,17.1 18.8,16.75 18.75,16.45 18.75,16 18.75,15.55 18.75,14.9L18.4,14.9Q18.4,15.3 18.25,15.5 18.15,15.75 17.9,15.85 17.6,15.95 17.1,15.95L16.85,15.95 16.85,13Q16.05,12.3 15.25,13L15.25,15.95 11.2,15.95 13.3,13 12.8,13 10.05,16.85"/></g><g id="Scene 1_1.0"><path fill="#FFF" d="M16.85,7.8L16.5,7.8 12.8,13Q12.69,13.27 13.3,13L15.25,10.25 15.25,13Q16.05,13.634 16.85,13L16.85,7.8"/></g><defs/></svg>