<?xml version="1.0" encoding="utf-8"?><svg xmlns:xlink="http://www.w3.org/1999/xlink" id="Scene_1" image-rendering="auto" baseProfile="basic" version="1.1" x="0px" y="0px" width="30" height="30" viewBox="0 0 30 30" xmlns="http://www.w3.org/2000/svg"><g id="Scene 1_3.0"><path fill="#EF4929" d="M23.8,23.85Q27.45,20.2 27.45,15 27.45,9.8 23.8,6.15 20.15,2.5 15,2.5 9.85,2.5 6.2,6.15 2.55,9.8 2.55,15 2.55,20.2 6.2,23.85 9.85,27.5 15,27.5 20.15,27.5 23.8,23.85"/></g><g id="Scene 1_2.0"><path fill="#FFF" d="M15.35,8.2Q14.2,8.8 13.15,9.85 12.15,10.95 11.5,12.55 10.8,14.2 10.8,16.45 10.8,17.776 11.05,18.8 11.975,19.49 12.9,18.8 12.75,17.816 12.75,16.4 12.75,16.15 12.75,15.9 12.75,15.65 12.75,15.4 13,14.75 13.4,14.35 13.85,14 14.3,13.85 14.75,13.65 15.15,13.7 15.75,13.65 16.25,14.05 16.75,14.45 17.05,15.3 17.3,16.15 17.3,17.6 17.3,18.258 17.25,18.8 18.076,19.49 19.1,18.8 19.25,18.178 19.25,17.45 19.25,16.05 18.75,15.1 18.25,14.1 17.45,13.6 16.6,13.1 15.65,13.1 15.2,13.1 14.65,13.25 14.15,13.4 13.65,13.75 13.15,14.15 12.8,14.75 12.95,12.9 13.45,11.65 13.95,10.4 14.65,9.65 15.35,8.9 16.1,8.45 16.9,8.05 17.65,7.8L17.55,7.4Q16.55,7.6 15.35,8.2"/></g><g id="Scene 1_1.0"><path fill="#FFF" d="M11.05,18.8Q11.33,19.899 11.9,20.65 12.95,22.1 14.85,22.15 16.1,22.15 17.05,21.6 18.05,21.05 18.65,20 18.959,19.46 19.1,18.8 18.175,17.553 17.25,18.8 17.169,19.495 17,20 16.7,20.9 16.2,21.3 15.65,21.75 15.05,21.75 14.5,21.75 14,21.3 13.45,20.85 13.1,19.65 12.986,19.276 12.9,18.8 11.975,16.729 11.05,18.8"/></g><defs/></svg>