<?xml version="1.0" encoding="utf-8"?><svg xmlns:xlink="http://www.w3.org/1999/xlink" id="Scene_1" image-rendering="auto" baseProfile="basic" version="1.1" x="0px" y="0px" width="30" height="30" viewBox="0 0 30 30" xmlns="http://www.w3.org/2000/svg"><g id="Scene 1_3.0"><path fill="#EF4929" d="M23.8,23.85Q27.45,20.2 27.45,15 27.45,9.8 23.8,6.15 20.15,2.5 15,2.5 9.85,2.5 6.2,6.15 2.55,9.8 2.55,15 2.55,20.2 6.2,23.85 9.85,27.5 15,27.5 20.15,27.5 23.8,23.85"/></g><g id="Scene 1_2.0"><path fill="#FFF" d="M19.45,14.15Q19.45,13.8 19.45,13.45 18.45,13 17.5,13.45 17.5,13.8 17.5,14.2 17.5,14.6 17.5,15 17.45,15.4 17.45,15.75 17.15,16.35 16.75,16.7 16.35,17.05 15.9,17.2 15.45,17.35 15.1,17.35 14.5,17.35 14,16.95 13.5,16.55 13.2,15.7 12.95,14.85 12.9,13.45 11.95,12.75 11,13.45 11,13.5 11,13.55 11,14.95 11.5,15.95 12,16.9 12.8,17.4 13.65,17.9 14.6,17.9 15,17.9 15.55,17.75 16.05,17.65 16.5,17.3 17,17 17.35,16.45 17.05,18.4 16.25,19.55 15.5,20.65 14.55,21.2 13.55,21.75 12.6,22L12.7,22.4Q13.7,22.25 14.9,21.7 16.05,21.15 17.05,20.15 18.1,19.2 18.75,17.7 19.45,16.2 19.45,14.15"/></g><g id="Scene 1_1.0"><path fill="#FFF" d="M13.15,9.45Q12.2,10 11.6,11 11,12 11,13.45 11.95,14.35 12.9,13.45L12.9,13.4Q12.95,11.95 13.25,11 13.55,10.1 14.05,9.7 14.6,9.3 15.2,9.3 15.75,9.25 16.25,9.7 16.8,10.1 17.15,11.2 17.45,12.05 17.5,13.45 18.45,14.45 19.45,13.45 19.3,11.4 18.35,10.25 17.3,8.9 15.35,8.9 14.15,8.9 13.15,9.45"/></g><defs/></svg>