<?xml version="1.0" encoding="utf-8"?><svg xmlns:xlink="http://www.w3.org/1999/xlink" id="Scene_1" image-rendering="auto" baseProfile="basic" version="1.1" x="0px" y="0px" width="30" height="30" viewBox="0 0 30 30" xmlns="http://www.w3.org/2000/svg"><g id="Scene 1_3.0"><path fill="#EF4929" d="M23.8,23.85Q27.45,20.2 27.45,15 27.45,9.8 23.8,6.15 20.15,2.5 15,2.5 9.85,2.5 6.2,6.15 2.55,9.8 2.55,15 2.55,20.2 6.2,23.85 9.85,27.5 15,27.5 20.15,27.5 23.8,23.85"/></g><g id="Scene 1_2.0"><path fill="#FFF" d="M23.65,14.25Q22.7,13.789 21.75,14.25 21.788,14.652 21.8,15.1 21.75,17.55 20.95,18.9 20.15,20.25 18.85,20.25 18,20.3 17.3,19.8 16.6,19.3 16.2,18.2 15.8,17.1 15.75,15.3 15.761,14.747 15.8,14.25 15.137,13.337 13.925,14.25 13.85,14.778 13.85,15.35 13.85,17 14.45,18.15 15.1,19.35 16.2,20 17.25,20.6 18.65,20.65 20.2,20.6 21.3,19.9 22.45,19.15 23.05,17.9 23.7,16.65 23.7,15.05 23.7,14.637 23.65,14.25"/><path fill="#FFF" d="M6.35,11.3Q7.25,11.3 7.75,11.45 8.25,11.6 8.45,12.05 8.65,12.5 8.65,13.45L8.65,18.3Q8.65,19.25 8.1,19.6 7.55,19.95 6.55,19.95L6.55,20.35Q7,20.35 7.85,20.3 8.65,20.25 9.6,20.25 10.45,20.25 11.2,20.3 11.95,20.35 12.35,20.35L12.35,19.95Q11.35,19.95 10.9,19.6 10.45,19.25 10.45,18.3L10.45,9.85Q9.7,10.35 8.75,10.6 7.75,10.85 6.35,10.85L6.35,11.3"/></g><g id="Scene 1_1.0"><path fill="#FFF" d="M21.75,14.25Q22.792,14.895 23.65,14.25 23.545,13.14 23.1,12.25 22.45,11.1 21.4,10.45 20.3,9.8 18.9,9.8 17.35,9.8 16.2,10.55 15.1,11.25 14.45,12.5 14.065,13.303 13.925,14.25 14.863,15.243 15.8,14.25 15.981,12.545 16.6,11.5 17.4,10.15 18.7,10.15 19.55,10.15 20.25,10.65 20.95,11.1 21.35,12.25 21.65,13.038 21.75,14.25"/></g><defs/></svg>