<?xml version="1.0" encoding="utf-8"?><svg xmlns:xlink="http://www.w3.org/1999/xlink" id="Scene_1" image-rendering="auto" baseProfile="basic" version="1.1" x="0px" y="0px" width="30" height="30" viewBox="0 0 30 30" xmlns="http://www.w3.org/2000/svg"><g id="Scene 1_2.0"><path fill="#EF4929" d="M23.8,23.85Q27.45,20.2 27.45,15 27.45,9.8 23.8,6.15 20.15,2.5 15,2.5 9.85,2.5 6.2,6.15 2.55,9.8 2.55,15 2.55,20.2 6.2,23.85 9.85,27.5 15,27.5 20.15,27.5 23.8,23.85"/></g><g id="Scene 1_1.0"><path fill="#FFF" d="M13.7,9.1Q13.4,9.1 13.1,9.05 12.85,9.05 12.6,9L12.25,14.95 12.45,15.1Q12.85,14.9 13.2,14.8 13.55,14.75 14.05,14.75 15.3,14.75 15.95,15.45 16.6,16.15 16.6,17.4 16.55,18.9 15.9,19.95 15.2,20.95 14.15,21.45 13.1,21.95 11.9,21.95L11.9,22.3Q13.1,22.3 14.25,21.95 15.4,21.6 16.35,20.9 17.3,20.25 17.9,19.3 18.45,18.35 18.5,17.2 18.5,16.35 18.1,15.65 17.7,14.95 16.95,14.55 16.15,14.15 14.95,14.15 14.15,14.15 13.6,14.3 13.05,14.5 12.6,14.75L12.85,10.9 15,10.9Q15.55,10.9 16.1,10.9 16.7,10.9 17.1,10.9 17.55,10.95 17.75,11 17.7,10.5 17.7,9.85 17.65,9.2 17.65,8.05L17.3,8.05Q17.25,8.45 17.15,8.65 17.05,8.9 16.75,9 16.5,9.1 15.95,9.1L13.7,9.1"/></g><defs/></svg>