<?xml version="1.0" encoding="utf-8"?><svg xmlns:xlink="http://www.w3.org/1999/xlink" id="Scene_1" image-rendering="auto" baseProfile="basic" version="1.1" x="0px" y="0px" width="30" height="30" viewBox="0 0 30 30" xmlns="http://www.w3.org/2000/svg"><g id="Scene 1_3.0"><path fill="#EF4929" d="M23.8,23.85Q27.45,20.2 27.45,15 27.45,9.8 23.8,6.15 20.15,2.5 15,2.5 9.85,2.5 6.2,6.15 2.55,9.8 2.55,15 2.55,20.2 6.2,23.85 9.85,27.5 15,27.5 20.15,27.5 23.8,23.85"/></g><g id="Scene 1_2.0"><path fill="#FFF" d="M13.7,8.85Q14.2,8.3 15,8.3 15.95,8.3 16.45,9 16.95,9.75 16.95,10.95 16.95,11.3 16.9,11.6 17.65,12.1 18.4,11.6 18.55,11.15 18.55,10.65 18.55,9.75 18.1,9.15 17.65,8.55 16.9,8.25 16.15,7.9 15.25,7.9 14.2,7.95 13.4,8.3 12.55,8.7 12.1,9.4 11.6,10.1 11.6,11.05 11.6,11.35 11.65,11.6 12.5,12.3 13.35,11.6 13.15,11.05 13.15,10.4 13.15,9.45 13.7,8.85"/><path fill="#FFF" d="M19.1,17.6Q18,17.15 16.9,17.6 17,17.75 17.1,17.9 17.55,18.65 17.55,19.65 17.55,20.5 17.2,21.1 16.9,21.7 16.3,21.95 15.75,22.25 15.05,22.25 14.2,22.25 13.7,21.8 13.15,21.35 12.9,20.6 12.7,19.85 12.7,19 12.7,18.25 12.9,17.6 12.35,16.95 11.3,17.6 10.95,18.35 10.95,19.3 10.95,20.4 11.5,21.15 12.05,21.9 12.95,22.25 13.9,22.65 14.95,22.65 16.2,22.6 17.2,22.15 18.15,21.7 18.7,20.8 19.25,19.95 19.25,18.8 19.25,18.15 19.1,17.6"/></g><g id="Scene 1_1.0"><path fill="#FFF" d="M18.4,11.6Q17.95,10.65 16.9,11.6 16.85,12.15 16.65,12.65 16.35,13.5 15.7,14.15 15,13.65 14.45,13.1 13.85,12.55 13.5,11.9 13.4,11.75 13.35,11.6 12.6,10.65 11.65,11.6 11.7,12.15 11.95,12.6 12.3,13.3 12.9,13.9 13.45,14.5 14.15,15 13.25,15.45 12.5,16.1 11.8,16.7 11.35,17.5 11.35,17.55 11.3,17.6 12.1,18.1 12.9,17.6 12.95,17.25 13.1,16.9 13.5,15.95 14.45,15.25 15.2,15.85 15.95,16.5 16.5,17 16.9,17.6 18,18.4 19.1,17.6 18.95,17.25 18.8,16.95 18.3,16.2 17.55,15.55 16.8,14.95 16,14.35 17.15,13.6 17.85,12.7 18.2,12.2 18.4,11.6"/></g><defs/></svg>