<?xml version="1.0" encoding="utf-8"?><svg xmlns:xlink="http://www.w3.org/1999/xlink" id="Scene_1" image-rendering="auto" baseProfile="basic" version="1.1" x="0px" y="0px" width="100" height="100" viewBox="0 0 100 100" xmlns="http://www.w3.org/2000/svg"><g id="Scene 1_1.0"><path fill="#F1EFEE" d="M41.6,49.2L43.15,46.2Q43.7,45.05 44.7,45.6 45.65,46.1 45.15,47.2L43.6,50.25 44.6,50.75 46.15,47.65Q46.65,46.75 46.35,45.95 46.05,45.15 45.15,44.7 43.2,43.75 42.2,45.65L40.6,48.75 41.6,49.2"/><path fill="#F1EFEE" d="M39.8,41.9Q38.1,41 37.3,42.35 36.75,43.35 37.85,44.7L38.1,45Q38.6,45.6 38.35,45.95 38.1,46.4 37.5,46.15 37.1,45.85 37,45.25L36.05,45.35Q36.1,46.4 37.1,46.95 38.6,47.75 39.3,46.45 39.8,45.45 38.85,44.3L38.65,44Q38.05,43.25 38.25,42.85 38.55,42.3 39.35,42.75 40.1,43.15 40.1,44.05L41.1,44.05Q41.2,42.65 39.8,41.9"/><path fill="#F1EFEE" d="M62.5,53.85L63.15,54.7Q63.9,54.1 64.9,54.45 65.6,54.7 65.9,55.4 66.15,56.05 65.85,56.8 65.6,57.55 64.95,57.9 64.3,58.2 63.6,57.95 62.7,57.6 62.55,56.75L61.5,57Q61.9,58.4 63.25,58.85 64.4,59.3 65.45,58.85 66.5,58.35 66.9,57.2 67.35,56.05 66.9,55 66.4,53.95 65.25,53.5 63.75,52.95 62.5,53.85"/><path fill="#F1EFEE" d="M56.8,50.3L55.8,49.85 54,54.05 52.5,53.4 52.15,54.25 56.15,56 56.55,55.1 55,54.45 56.8,50.3"/><path fill="#F1EFEE" d="M58.05,56.75L59.1,57.2 61.15,52.05 60.1,51.65 58.05,56.75"/><path fill="#F1EFEE" d="M50.1,49.35L49.85,47.15 48.7,46.6 49,49Q47.818,48.902 47.325,49.975 47.517,50.803 48.3,50.45 48.7,49.65 49.7,50.15L50.4,50.45 50.025,51.275Q50.127,52.11 51.025,51.75L52.6,48.45 51.6,47.95 50.8,49.65 50.1,49.35"/></g><g id="Scene 1_0.0"><path fill="#F1EFEE" d="M48.3,50.45Q48.161,49.69 47.325,49.975L47.3,50Q46.5,51.7 48.55,52.6L50.25,53.4 51.025,51.75Q50.915,50.83 50.025,51.275L49.65,52.1 48.95,51.75Q47.9,51.3 48.3,50.45"/></g><defs/></svg>