<?xml version="1.0" encoding="utf-8"?><svg xmlns:xlink="http://www.w3.org/1999/xlink" id="Scene_1" image-rendering="auto" baseProfile="basic" version="1.1" x="0px" y="0px" width="100" height="100" viewBox="0 0 100 100" xmlns="http://www.w3.org/2000/svg"><g id="Scene 1_1.0"><path fill="#F1EFEE" d="M44.25,48.85L43.3,49.2 44.65,52.4Q44.4,52.15 43.7,51.9L40.1,50.35 40,50.4 42,55.6 42.95,55.25 41.65,52.05 42.55,52.55 46.15,54.1 46.25,54.05 44.25,48.85"/><path fill="#F1EFEE" d="M47.35,47.55L46.3,48 48.45,53.1 49.45,52.65 47.35,47.55"/><path fill="#F1EFEE" d="M61.75,40.8L60.8,41.3 63.45,46.2 63.55,46.15 64.45,42.2 68.25,43.65 68.35,43.6 65.7,38.65 64.75,39.15 66.4,42.1Q66.15,41.85 65.45,41.6L63.85,41 63.75,41.05 63.25,43.75 61.75,40.8"/><path fill="#F1EFEE" d="M35.6,54.5L35.9,55.4 38,54.65 38.4,55.9 35.95,56.75 36.25,57.65 39.75,56.45 37.95,51.25 34.35,52.5 34.65,53.4 37.2,52.5 37.7,53.8 35.6,54.5"/><path fill="#F1EFEE" d="M50.25,46.3L49.1,46.8 51.15,48.15Q50.25,49.05 50.75,50.1 50.766,50.136 50.775,50.175 51.767,50.43 51.775,49.7L51.75,49.65Q51.45,48.8 52.45,48.35L53.15,48.05 53.525,48.875Q54.309,49.144 54.5,48.425L53,45.05 52,45.5 52.8,47.25 52.05,47.55 50.25,46.3"/><path fill="#F1EFEE" d="M59.2,42.1L58.25,42.55 58.3,43.5 56.35,44.45 55.65,43.8 54.65,44.3 56.85,46.175Q57.742,46.311 57.7,45.7L56.95,45 58.35,44.3 58.45,45.275Q58.956,45.591 59.3,44.775L59.2,42.1"/></g><g id="Scene 1_0.0"><path fill="#F1EFEE" d="M54.5,48.425Q53.913,48.154 53.525,48.875L53.9,49.7 53.2,50Q52.142,50.433 51.775,49.7 50.998,49.475 50.775,50.175 51.543,51.781 53.55,50.9L55.25,50.1 54.5,48.425"/><path fill="#F1EFEE" d="M59.3,44.775Q58.578,44.43 58.45,45.275L58.55,46.5 57.7,45.7Q56.793,45.455 56.85,46.175L59.3,48.25 59.45,48.2 59.3,44.775"/></g><defs/></svg>