<?xml version="1.0" encoding="utf-8"?><svg xmlns:xlink="http://www.w3.org/1999/xlink" id="Scene_1" image-rendering="auto" baseProfile="basic" version="1.1" x="0px" y="0px" width="100" height="100" viewBox="0 0 100 100" xmlns="http://www.w3.org/2000/svg"><g id="Scene 1_1.0"><path fill="#F1EFEE" d="M38.45,49.6L37.5,50.1 38.25,53.6 35.3,51.3 35.2,51.35 35.7,55.1 34.95,54.3 33.05,52.65 32.05,53.25 36.55,57.1 36.7,57.05 36.25,53.05 39.4,55.5 39.5,55.4 38.45,49.6"/><path fill="#F1EFEE" d="M46.35,48.75Q45.458,48.51 45.35,49.25 45.683,49.896 45.45,50.55 45.25,51.3 44.55,51.65 43.85,52.05 43.15,51.8 42.463,51.555 42.075,50.825 41.202,50.804 41.05,51.325L41.05,51.35Q41.65,52.45 42.8,52.75 43.9,53.05 45,52.5 46.05,51.95 46.45,50.85 46.829,49.761 46.35,48.75"/><path fill="#F1EFEE" d="M50,48.3Q49.415,48.075 49.075,47.45 48.07,47.412 48.025,47.95 48.533,48.929 49.6,49.3 50.75,49.65 51.85,49.15 52.95,48.6 53.4,47.55 53.783,46.449 53.35,45.4 52.625,45.151 52.3,45.9 52.584,46.594 52.35,47.25 52.15,47.9 51.4,48.25 50.7,48.6 50,48.3"/><path fill="#F1EFEE" d="M59.4,42.45Q58.393,42.205 58.375,42.95 58.417,43.019 58.45,43.1 59.1,44.75 57.45,45.45L56.9,45.7 56.2,44.025Q55.438,43.771 55.25,44.475L56.3,47 57.9,46.3Q58.6,46 59.05,45.55 59.35,45.2 59.55,44.8 60,43.8 59.5,42.65 59.456,42.55 59.4,42.45"/></g><g id="Scene 1_0.0"><path fill="#F1EFEE" d="M44.2,48.2Q44.9,48.45 45.3,49.15 45.326,49.196 45.35,49.25 46.144,49.588 46.35,48.75 46.329,48.706 46.3,48.65 45.7,47.55 44.55,47.2 43.45,46.9 42.35,47.45 41.3,48.05 40.9,49.1 40.504,50.237 41.05,51.325 41.862,51.675 42.075,50.825L42.05,50.8Q41.65,50.1 41.9,49.4 42.1,48.65 42.8,48.3 43.5,47.95 44.2,48.2"/><path fill="#F1EFEE" d="M48.025,47.95Q48.644,48.171 49.075,47.45 49.035,47.376 49,47.3 48.65,46.6 48.9,45.9 49.1,45.2 49.8,44.85 50.55,44.5 51.25,44.8 51.9,45.05 52.25,45.8 52.272,45.847 52.3,45.9 53.021,46.238 53.35,45.4 53.321,45.347 53.3,45.3 52.75,44.2 51.6,43.85 50.5,43.45 49.4,44 48.3,44.5 47.85,45.55 47.45,46.65 47.95,47.8 47.986,47.88 48.025,47.95"/><path fill="#F1EFEE" d="M58.375,42.95Q59.086,43.195 59.4,42.45 59.245,42.134 59.05,41.9 58.6,41.35 57.95,41.15 56.95,40.75 55.75,41.25L54.15,41.9 55.25,44.475Q55.912,44.718 56.2,44.025L55.5,42.35 56.05,42.15Q57.669,41.436 58.375,42.95"/></g><defs/></svg>