<?xml version="1.0" encoding="utf-8"?><svg xmlns:xlink="http://www.w3.org/1999/xlink" id="Scene_1" image-rendering="auto" baseProfile="basic" version="1.1" x="0px" y="0px" width="20" height="30" viewBox="0 0 20 30" xmlns="http://www.w3.org/2000/svg"><g id="Scene 1_3.0"><path fill="#F5F5EC" d="M5.4,16.25Q5.4,16.098 5.4,15.95 4.231,15.103 3.25,15.95 3.25,16.099 3.25,16.25 3.25,19.05 5.2,21.05 5.85,21.65 6.5,22.05L6.85,22.25 6.9,22.25Q7,22.35 7.15,22.4L7.775,24.05Q8.725,24.704 9.675,24.05L9.3,23 10,23Q10.35,23 10.7,22.95L10.3,24.05Q11.15,24.75 12.2,24.05L12.8,22.45Q13,22.35 13.25,22.2L13.3,22.2 14.75,21.05Q16.75,19.05 16.75,16.25 16.75,16.099 16.75,15.95 15.859,15.307 14.6,15.95 14.6,16.098 14.6,16.25 14.6,18.15 13.25,19.5 12,20.8 10.2,20.85L9.8,20.85Q8,20.8 6.75,19.5 5.4,18.15 5.4,16.25"/></g><g id="Scene 1_2.0"><path fill="#F5F5EC" d="M10,9.5Q7.2,9.5 5.2,11.5 3.355,13.345 3.25,15.95 4.421,16.626 5.4,15.95 5.508,14.242 6.75,13 8.1,11.65 10,11.65 11.9,11.65 13.25,13 14.492,14.242 14.6,15.95 15.774,16.839 16.75,15.95 16.64,13.39 14.75,11.5 12.8,9.5 10,9.5"/></g><g id="Scene 1_1.0"><path fill="#F5F5EC" d="M9.675,24.05Q8.902,23.256 7.775,24.05L10,30 12.2,24.05Q11.25,23.368 10.3,24.05L10,24.9 9.675,24.05"/></g><g id="Scene 1_0.0"><path fill="#F5F5EC" d="M9.35,13.05Q9.05,13.1 9,13.25 8.85,13.45 8.95,13.65L8.95,15.1 7.3,15.1Q6.75,15.1 6.75,15.65L6.75,16.8 6.8,16.9Q6.85,17.35 7.35,17.3L8.9,17.3 8.9,18.95Q8.9,19.15 9.05,19.3 9.2,19.5 9.45,19.45L10.65,19.45Q11.15,19.35 11.05,18.85L11.05,17.3 12.65,17.3 12.65,17.35 12.75,17.35Q13.2,17.25 13.2,16.8L13.2,15.7Q13.2,15.15 12.65,15.15L11.1,15.15 11.1,13.55Q11.1,13 10.55,13L9.45,13 9.4,13.05 9.35,13.05"/></g><defs/></svg>