<?xml version="1.0" encoding="utf-8"?><svg xmlns:xlink="http://www.w3.org/1999/xlink" id="Scene_1" image-rendering="auto" baseProfile="basic" version="1.1" x="0px" y="0px" width="1380" height="795" viewBox="0 0 1380 795" xmlns="http://www.w3.org/2000/svg"><g id="Scene 1_7.0"><path fill="#EF4929" d="M939.35,510.5Q936.3,509.85 932.75,510.05 925.7,510.45 923.3,514.75 920.6,515.2 918.15,516.5 913.3,519.05 914.75,523.3L912.3,526.65Q910.8,530.15 915.8,530.75L921.15,538.25 927.6,551.05 926.55,554.25 925.45,560.65 923.3,562.8 925.45,569.2 928.65,571.3 930.8,577.75 931.9,583.05 930.95,591.1Q929.6,599.45 927.6,601.2L925.2,610Q923.25,619.2 925.45,621.5L941.5,637.5 946.6,636.5Q951.75,636.35 952.2,640.7L954.35,644.95 957.55,643.9 961.85,639.65 957.55,634.3 950.1,632.15 944.7,623.65 941.5,619.35 939.35,614 942.6,609.75 932.95,612.95 932.95,601.2 933.9,598.3 933,603.95Q934.5,600.8 936,597.1 939,589.7 938.95,587 937.75,584.8 937.75,582.65 937.75,578.45 943.95,579L945,584.95 949.05,585Q953.7,585.85 956.95,589.95L958.75,582 962.9,582 960.8,576.65 960.8,570.25 965.05,566 968.25,561.7 974.7,560.65 987.55,561.7Q988,560.15 987.95,557.75 987.85,553 985.4,548.9L982.2,543.55 979,541.45 975.75,530.75Q974.4,528.85 972.4,527.4 968.4,524.45 965.05,526.5 961.75,528.55 960.95,529.85L960.8,530.75 953.3,527.55 944.7,532.9 944.7,517.95 938.3,516.9 939.35,510.5"/></g><defs/></svg>