<?xml version="1.0" encoding="utf-8"?><svg xmlns:xlink="http://www.w3.org/1999/xlink" id="Scene_1" image-rendering="auto" baseProfile="basic" version="1.1" x="0px" y="0px" width="1380" height="795" viewBox="0 0 1380 795" xmlns="http://www.w3.org/2000/svg"><g id="Scene 1_4.0"><path fill="#EF4929" d="M1133,366.05Q1132.9,367.2 1132.95,367.95 1133.15,369.7 1134.6,373.05 1135.4,374.9 1134,375.95 1132.4,377.15 1133.5,380.2 1134.1,381.7 1134.95,383L1132.95,394.95 1132.95,398Q1143.3,398.35 1149.7,393.65 1155.2,389.55 1154,386 1153.15,383.6 1153.95,381.05L1154.95,379Q1155.25,371.1 1149.65,363.75 1147.9,361.45 1145.75,359.45L1144,357.95Q1136.65,356.5 1134.05,362.1 1133.25,363.85 1133,366.05"/></g><defs/></svg>