<?xml version="1.0" encoding="utf-8"?><svg xmlns:xlink="http://www.w3.org/1999/xlink" id="Scene_1" image-rendering="auto" baseProfile="basic" version="1.1" x="0px" y="0px" width="1380" height="795" viewBox="0 0 1380 795" xmlns="http://www.w3.org/2000/svg"><g id="Scene 1_5.0"><path fill="#EF4929" d="M749.85,374L744.35,375.35 738.85,380.85 744.35,385 744.35,389.15 745.75,394.65 748.5,400.15 747.1,405.65 749.85,411.15 749.85,415.3 751.25,420.8 749.85,426.3 752.65,433.2 752.65,437.35 747.1,435.95 745.75,440.1 745.75,444.2 738.85,442.85 733.3,451.1 731.95,456.6 723.65,460.75 719.55,458 714,462.1 715.4,469Q716.75,472.25 720.9,477.3L722.3,485.55 718.15,486.9 704.35,486.9 703,491.05 704.85,491.6 699.95,490.95 701.4,492.6Q703.25,494.6 705.45,496.2 712.5,501.4 719.95,501 722.7,500.8 724.6,500.8 720.6,502.65 717.3,503.5 712.85,504.6 711.25,503.45 709.9,502.5 710.85,504.35 711.8,506.2 714.05,508.9 720.2,516.45 725.05,517.2L734.7,513.1 734.7,503.45 738.85,511.7 737.45,519.95 737.45,529.6 739.65,529.6 739,530.95 739,533.6 738.85,533.75 739,534.25 739,543 738,551.95 745,567.95 746.25,572.7Q747.7,577.55 749,578 750.25,578.4 752.25,583.7 753.25,586.4 754,588.95L770,614.95 770,620.95 781.95,614 784,610 783.8,607.8 788.5,601.25 792.65,597.1 789.85,590.2 791.25,584.7 796.75,580.55 795.4,564.05 794,555.8 800.9,555.8 802.2,553.8 806,553 806.2,551.65 810.55,551.65 814.7,543.4 820.2,540.65 834,529.6 832.65,522.75 836.75,524.1 841.3,520.85Q845.9,516.9 846.4,513.1 846.95,509.3 855,508.05 859.05,507.45 863,507.6L863,503.45 861.6,497.95 861.6,492.45 857.45,488.3 854.7,480.05 861.6,478.65 854.7,471.75 847.8,469 840.9,467.65 834,462.1 828.5,464.9 817.45,458 811.95,453.85Q806.35,452.6 801.65,450.6 792.3,446.65 796.75,442.85L799.55,437.35 792.65,427.7 785.75,420.8 781.6,419.45 781.6,411.15 784.05,409.2Q786.8,407.7 788.5,409.8 791.2,413.1 783,402.9L787.1,396Q790,391.55 790.45,387.95 791.3,380.7 778.85,385 776.15,385.4 773.05,385.05 766.9,384.4 765.05,380.85L756.75,376.75 749.85,374"/></g><defs/></svg>