<?xml version="1.0" encoding="utf-8"?><svg xmlns:xlink="http://www.w3.org/1999/xlink" id="Scene_1" image-rendering="auto" baseProfile="basic" version="1.1" x="0px" y="0px" width="1380" height="795" viewBox="0 0 1380 795" xmlns="http://www.w3.org/2000/svg"><g id="Scene 1_10.0"><path fill="#897F74" d="M1340.95,730.45Q1340.8,734.25 1342.5,736.3 1343.05,737.1 1343.25,738.8 1343.45,740.3 1343.8,740.7 1345.35,742.6 1348.35,742.8 1351.4,743.15 1350.1,739.75 1348.2,736.7 1345.7,735.55 1344.75,735.2 1343.65,733.1 1342.7,731 1340.95,730.45"/><path fill="#897F74" d="M1324.25,715.65Q1322.2,713.9 1318.55,711.65 1313.65,708.6 1312.7,708.05 1312.1,709.95 1319.7,714.3 1327.7,718.65 1326.55,723.25 1326.75,723.6 1328.25,726.85 1329.75,723.25 1329.75,722.85 1329.95,721.5 1328.45,719.05 1328.25,718.85 1327.3,718.85 1326.55,719.05 1326.15,718.5 1325,716.2 1324.25,715.65"/><path fill="#897F74" d="M1311.55,731.2Q1305.85,733.85 1307.95,729.1 1307.75,728.75 1306.25,730.25 1304.35,732.15 1302.8,732.35 1299.95,732.15 1298.45,732.15 1295.8,731.95 1294.1,732.55 1295.4,735.95 1300.9,737.85 1305.85,739.55 1309.25,738.6 1316.65,736.9 1318.2,733.1 1318.55,732.55 1321.4,731.75 1323.7,730.8 1321.25,728.35 1325,727.4 1324.45,724.75 1323.9,722.45 1321.25,720.75 1317.25,718.1 1318.2,727.4 1314.6,729.85 1311.55,731.2"/><path fill="#897F74" d="M1306.6,765.55Q1303.4,765.2 1302.25,764.6 1300.35,763.85 1301.7,761 1296.95,760.8 1295.4,759.1 1294.65,758.35 1291.8,752.45 1291.4,751.5 1289.55,750.35 1287.45,749.25 1286.7,748.65 1285.75,748.1 1284.95,746 1284.4,743.55 1284,742.6L1290.65,741.85Q1291.25,736.3 1284.95,734.6 1276.45,732.35 1275.65,731.6 1274.55,730.45 1273.95,726.85 1273.2,723.8 1271.5,722.65L1261.6,716.6Q1258.75,714.7 1253.65,712.95L1219.85,700.45Q1216.8,699.3 1212.65,701.2 1208.45,702.9 1206.4,705.75 1204.5,708.6 1203.15,710.5 1200.5,714.1 1199.75,713.9 1196.5,712.6 1195.55,711.85 1193.85,710.7 1192.9,708.05 1190.45,701.95 1189.65,696.1 1189.3,693.05 1187.95,692.3 1185.7,691.7 1183.4,691.15 1171.25,688.3 1166.15,698.15L1173.35,699.1Q1173.9,699.1 1173.9,701.4 1173.9,703.65 1174.85,704.05 1177.35,705.55 1181.3,705.4 1183.6,705.2 1188.15,704.6 1188.55,706.35 1187.8,708.25 1184.15,706.9 1180.95,707.3 1179.6,707.45 1173.9,708.8L1180.75,720.55 1186.85,713.15Q1187.8,717.55 1188.35,718.5 1189.1,719.45 1192.9,720.95L1210.2,728.35Q1211.5,728.9 1215.5,730.05 1219.1,731.4 1219.85,733.1L1225.75,747.15Q1220.05,748.65 1219.3,749.4 1217.95,750.55 1217.2,756.05L1232.95,754.55Q1234.3,754.35 1236.75,758.35 1239.2,762.5 1240.95,762.5 1243.8,762.7 1248.9,763.1 1253.25,763.1 1256.3,761.2 1257.45,760.45 1259.55,755.5 1261.25,751.3 1262.55,751.5 1264.1,751.7 1269.8,751.9 1275.1,752.25 1276.45,753.6L1288.95,766.9Q1291.05,768.95 1294.45,769.75 1296.55,770.3 1301.1,770.7 1302.05,770.85 1306.6,772.95 1310.2,774.65 1311.55,774.1 1308.7,771.65 1307.2,769.9 1304.7,767.1 1306.6,765.55"/><path fill="#897F74" d="M341.975,-1.5Q341.57,-0.919 341.3,-0.05L343.8,0.9Q346.227,1.098 347.375,-1.5L341.975,-1.5"/><path fill="#897F74" d="M637.25,-8L633.1,-5.35Q634.25,-2.5 639.35,0.7 644.65,4.35 646.95,2.45 649.05,0.7 643.9,-3.25 638,-7.25 637.25,-8"/><path fill="#897F74" d="M572.15,10.6Q569.85,8.5 567.95,7.55 566.45,6.8 562.85,5.85 554.1,9.65 560.75,15.9 562.3,17.45 566.85,14.75 567.6,14.2 572.15,10.6"/><path fill="#897F74" d="M340.35,0.15Q339.6,1.3 338.3,2.45 336.4,3.75 335.6,4.5L340.75,4.9Q342.25,2.8 342.45,2.05 342.85,0.9 340.35,0.15"/><path fill="#897F74" d="M326.9,9.85Q326.7,13.65 330.7,10.95 331.8,10.2 336,6.4 335.05,4.5 333.7,4.5 333.35,4.5 330.5,5.3 327.85,6.25 327.45,6.6 327.1,7.2 326.9,9.85"/><path fill="#897F74" d="M328.4,13.65Q324.6,13.65 325.75,17.8L334.3,8.7 328.4,13.65"/><path fill="#897F74" d="M324.6,18.75Q325.2,16.85 324.6,15.15 323.85,13.45 322.15,14.4 321.55,14.75 321,16.65 320.45,18.4 318.9,19.15L320.05,13.65Q318.15,13.65 317.4,14.95 316.65,16.1 317.2,18.2L315.3,18.2Q315.1,20.1 314.95,20.3 314.95,20.45 313.6,21.8L316.85,22.35Q318.15,22.35 319.5,20.65 321.55,17.8 324.6,18.75"/><path fill="#897F74" d="M347,0.15Q343.95,1.65 341.9,4.15L346.45,2.6 352.9,-0.4Q350.6,-1.75 347,0.15"/><path fill="#897F74" d="M351.75,128.5Q351.35,124.3 348.9,126.4 346.65,128.3 351,130.95L350.6,128.5 351.75,128.5"/><path fill="#897F74" d="M341.9,162.45Q340.35,160.55 341.1,158.85 341.5,157.9 343.2,155.8 334.65,153.75 335.6,167.4 338.45,163.8 341.9,162.45"/><path fill="#897F74" d="M369.05,152Q370.95,150.9 374.7,149 371.1,147.85 368.65,148.05 366.75,148.2 362.6,149.35 365.6,152.8 364.45,156 365.8,153.75 369.05,152"/><path fill="#897F74" d="M377.55,384.75Q375.85,386.1 375.85,388.55 384.6,391.4 396,391 396.2,389.1 393.15,388.15 390.5,387.2 388.2,387.6 384.8,388 382.7,387.4 381.35,386.85 377.55,384.75"/><path fill="#897F74" d="M444.2,388Q441,388 440.2,389.3 437.75,394.05 444.75,393.7 449.5,393.3 453.3,391.95 452.2,389.7 453.7,388 453.9,387.8 457.1,384.95 454.45,386.45 452.95,387.2 450.1,388.55 448.55,388.35 446.1,388 444.2,388"/><path fill="#897F74" d="M321,10.95L321.75,9.25Q318.9,10.2 317.75,10.8 316.05,11.9 316.65,14.4L321,10.95"/><path fill="#897F74" d="M308.45,18L313.2,18.95Q317.4,16.3 313.2,12.7L308.45,18"/><path fill="#897F74" d="M309.8,20.65Q307.9,21.25 307.9,24.25L314,20.3Q309.8,20.45 309.8,20.65"/><path fill="#897F74" d="M318.9,23.9Q318.15,23.5 316.25,23.5 316.25,26.35 316.65,27.3L323.65,20.1Q320.45,19.9 318.9,23.9"/><path fill="#897F74" d="M313.05,31.3Q312.1,33.2 311.7,33.95 314.55,30.7 314.95,30.15 316.05,28.25 315.5,25 315.7,28.8 310.95,29.6 312.1,30.35 313.05,31.3"/><path fill="#897F74" d="M302.6,25.6Q305.05,26.35 306.75,23.3 304.85,21.4 302.8,23.5L302.6,25.6"/><path fill="#897F74" d="M180.15,147.25Q177.85,146.9 174.85,147.45 171.8,148.05 169.7,149.15L168.95,148.6Q168.75,148.8 167.45,149.35 167.05,146.9 165.7,148.2 164.2,149.35 165.15,151.45L163.05,151.85 162.3,153.75Q163.25,154.7 165.15,156.75 162.7,155.05 159.85,156.4 160.6,157.5 161.35,160.35L159.25,160Q159.05,161.15 159.65,161.5 160,161.7 161.35,162.1L160,162.65 161.75,163.2Q159.85,165.5 159.25,168.35 159.05,168.9 157.75,169.65 156.25,170.8 155.65,171.4 158.15,171.95 158.15,172.7 158.15,173.65 155.85,174.05 157.35,175.55 159.45,174.4 161.35,173.1 158.5,171.4 160.2,172.35 161.75,171.2 162.5,170.6 164.4,168.7L165.15,169.65Q162.3,171.2 160.8,178.05 160.6,178.8 160.95,180.3 160.95,181.25 160.4,182.95 160.2,183.7 159.65,184.65 159.25,185.45 160,186.2 161.55,187.5 161.9,185.45 162.1,182.6 162.1,181.65 162.7,178.2 162.7,177.85 163.45,175.95 165.35,175.2 162.7,177.45 164,178.4 165.55,179.55 167.25,175.75L168,178.4Q166.65,178.6 166.65,179.15 166.5,179.55 166.85,181.45 167.25,182.95 167.6,183.7 167.6,184.3 166.85,186.55 166.3,188.3 164.75,190.2 164,191.5 166.5,193.4L166.3,190.95Q167.25,191.3 169.15,192.25 170.65,192.85 169.9,190.75 171.4,191.7 174.65,190.55 178.45,189.25 180.15,189.4 175.2,190.55 176.55,195.85 177.7,201.2 181.1,198.55 179.6,200.6 179.75,203.85 179.95,207.05 181.85,208.2L180.9,208.4Q180.35,207.45 179.95,207.45 179.2,207.25 178.8,207.05L179.4,208.95Q176.15,208.2 175.8,208.2 173.9,208 172.55,209.15 171.4,206.3 168.4,207.25 172,210.5 167.25,213.55L172.35,212.6Q172.15,213.55 172.55,216.35 172.75,218.25 171.4,220 170.65,221.1 167.8,222.05 164.4,223 163.45,223.4 163.8,224.35 163.8,225.3 164.95,227.4 167.45,226.45 170.65,225.3 172.15,226.05 171.6,226.25 170.85,227 172.15,227 176.15,228.9L183.35,226.25Q182.05,227.95 181.45,228.7 180.35,230.25 180.15,231.75 174.25,230.8 173.5,230.8 170.1,231 169.15,235 168.75,236.85 165.55,239.35 161.55,242.55 160.95,243.35 162.7,244.45 167.45,242 172,239.55 175,241.8 176.9,237.25 179.2,237.8 183.35,238.6 185.25,237.65 186.2,237.25 188.9,235.35 191.35,233.85 192.5,234.05 193.6,234.05 195.35,235.35 196.85,236.5 198.35,236.1 199.15,235.95 204.8,235 208.45,234.4 211.45,233.1 215.65,231.35 212.05,229.65 209.4,228.5 206.15,228.15 211.3,223.95 212.05,223.2 214.5,220.35 215.1,216 215.45,211.8 209.75,212.2 203.7,213.15 203.1,212.6 206.15,210.3 203.3,206.9 200.65,203.65 197.6,203.65 201.05,202.15 202.75,205.35 202,200.6 197.6,196.45 192.85,191.9 191.9,188.85 190,182.6 186.6,180.3 184.15,178.8 177.1,177.85 179.6,174.8 182.4,175.55 181.3,173.1 185.85,167.4 190.2,161.9 188.5,159.4 187.15,157.15 179.95,157.9 172.75,158.65 171.6,160.95L170.85,160.35Q171.4,160 172.15,158.85 172.95,157.7 173.5,157.35L170.1,156.2 172.55,156.2Q172.75,154.85 176.35,152.4 179.75,149.95 180.15,147.25"/><path fill="#897F74" d="M178.8,144.25Q179.95,144.6 180.7,144.45 181.1,144.25 182.6,143.5 180.55,142.9 179.2,143.1L180.55,142.35Q178.05,140.65 177.3,144.05L178.45,145.75 178.8,144.25"/><path fill="#897F74" d="M163.05,181.25Q163.05,183.35 164.4,184.65 165.9,181.8 163.05,181.25"/><path fill="#897F74" d="M279.6,184.5Q278.85,181.05 274.5,183.7 274.85,185.45 276.6,187.5 278.5,189.6 279.8,189.4 281.9,188.85 281.7,186.95 281.5,184.85 279.6,184.5"/><path fill="#897F74" d="M290.25,177.65Q288.9,178.6 290.65,181.8 287,181.45 288.75,178.4 287.6,178.05 286.25,178.4 286.85,181.05 284.35,182.2 283.8,184.1 284.55,186 285.1,188.1 287,187.9 288.9,187.7 289.5,189.4 289.85,190.55 290.05,193.4L290.8,188.45Q291.6,186 294.25,185.8 292.9,183.9 291.95,183.35 299.35,181.8 293.3,178.2 291.2,176.9 290.25,177.65"/><path fill="#897F74" d="M156.8,150.9Q157,148.6 155.65,149.15 151.5,151.25 151.1,151.65 148.65,153.55 151.5,155.65L149.95,156.2 150.7,157.7Q154.35,154.85 155.45,154.5L154.5,153.15Q156.6,152.95 156.8,150.9"/><path fill="#897F74" d="M153.4,159.25L152.45,160.75Q158.5,168.15 160.8,163.6 156.6,164 157.2,160.35 156.6,158.65 155.3,158.65L155.1,160.55 153.4,159.25"/><path fill="#897F74" d="M147.3,159.6Q147.5,159.8 148.05,160.2 148.25,160.75 147.7,162.65 147.7,164.55 149,165.5 149,160.75 150.15,159.25L147.3,158.85Q147.1,159.4 147.3,159.6"/><path fill="#897F74" d="M155.85,165.9L154.9,166.45 155.85,167.4Q156.4,166.65 155.85,165.9"/><path fill="#897F74" d="M137.45,197.4Q135.55,196.8 134.6,196.45 132.9,196.05 131.75,196.65 129.85,197.6 129.85,198.55 129.85,199.3 130.8,201.75 131,202.7 129.65,204.05 128.15,205.55 127.55,206.1 132.9,208.6 136.1,208.8 131.75,212.75 129.1,216 130.6,215.8 133.65,215.05 136.3,214.45 138,215.05 135.55,215.4 134.2,215.6 131.55,216.2 130.8,217.3 129.1,219.8 125.85,220.35 127,220.55 129.45,221.5 126.6,223.2 125.65,223.4L130.6,224.75Q129.25,226.25 128.5,226.6 132.5,230.25 139.7,226.25 143.7,224.15 150.9,220 151.3,220 153.75,220.15 155.1,220.35 155.65,218.65 156.6,215.05 157.95,211.25 159.25,206.5 154.9,201.75 159.25,198.7 159.65,198.15 161.15,196.65 161.35,192.65 160,193 158.9,190.95 157,187.35 156.6,186.95 155.85,186.2 153.4,186.75 150.55,187.7 149.75,187.9L150.9,186Q147.5,183.9 143.5,186.75 140.45,188.85 138.2,193L143.15,194.75Q141.25,196.45 140.45,197 138.95,197.95 137.45,197.4"/><path fill="#897F74" d="M160.2,176.9Q158.9,176.5 158.3,177.45 157.55,178.6 158.3,180.3 159.85,178.05 160.2,176.9"/><path fill="#897F74" d="M154.7,180.5Q156.6,180.85 156.05,182.75 158.7,182 157.2,178.8 156.25,179 154.7,180.5"/><path fill="#897F74" d="M167.25,199.85L168.75,199.85Q171.2,198.35 170.1,195.85 167.8,197 167.25,199.85"/><path fill="#897F74" d="M224.75,351.35L228.75,348.1Q227.05,344.7 225.15,345.1 224.75,345.25 220.4,347.75L224.75,351.35"/><path fill="#897F74" d="M270.5,316.6Q270.5,318.3 270.15,319.05 266.7,321.9 265.4,323.05 263.5,324.6 265.75,327.4 267.85,330.1 269.95,329.9 272.4,322.7 271.65,315.3 270.5,315.45 270.5,316.6"/><path fill="#897F74" d="M265.75,341.3Q265.95,342.25 263.65,345.65 263.65,345.85 264.6,346.8 265.55,347.35 265.4,347.75 265.4,348.3 263.85,351.35 263.1,352.65 264.8,354.2 266.7,355.9 268.05,355.7 269.35,355.5 269.55,353.05 269.55,352.3 271.25,351.7 272.95,351.35 273.15,349.25L274.5,338.05Q275.05,333.1 270.7,333.9 268.05,334.25 264.6,336.35L262.35,335.4Q261.6,337.7 263.3,338.8 265.55,340.15 265.75,341.3"/><path fill="#897F74" d="M565.3,787.95Q561.9,785.1 561.7,791 561.55,795 560.35,797.2L571.05,797.2Q570.75,795.65 570.45,794.4L570.05,794.05Q566.65,789.1 565.3,787.95"/><path fill="#897F74" d="M1256.9,205.95Q1256.1,200.6 1255.55,198.15 1254.6,193.95 1250.6,197 1252.7,199.3 1253.25,201.75 1253.85,204.4 1251.95,206.3 1251.55,206.7 1250.4,206.3 1249.45,205.95 1248.35,206.9 1246.8,208 1246.8,208.95L1247.55,211.8Q1248.15,213.9 1247.2,218.25 1246.8,220.55 1245.65,224.55 1245.5,226.05 1248.5,229.45 1251.2,232.15 1249.1,234.4 1249.1,237.05 1249.1,241.8 1248.9,246 1247.4,249 1245.65,252.65 1246.25,254.9 1246.6,256.45 1247.95,261 1248.5,263.85 1248.35,264.8 1248.15,265.75 1246.6,268.2 1245.65,269.7 1247,274.25 1247,277.3 1246.8,280.75 1246.8,283.4 1248.35,287 1248.9,283.4 1249.45,281.7 1250.4,278.65 1252.9,278.25 1255.55,277.9 1257.05,280.55 1258.4,282.8 1258.2,285.65 1260.5,283.2 1258.95,279 1258.4,277.7 1255.35,272.35 1253.1,268.95 1252.5,267.45 1251.75,265.35 1252.7,261.95 1255,255.1 1255.15,254.7 1256.5,252.65 1260.85,251.85 1263.15,251.3 1264.85,254.7 1266.95,258.5 1268.85,258.5 1265.05,251.5 1262.2,239.9L1259.7,230.05Q1259.55,228.9 1257.8,227 1256.3,224.9 1256.1,223.8 1255.75,220.95 1257.45,214.85 1258.95,209.9 1256.9,205.95"/><path fill="#897F74" d="M1248.9,290.8Q1246.05,287 1246.05,292.5 1246.05,297.6 1247,300.1 1247.4,301.25 1245.65,303.3 1243.95,305.6 1244.15,306.75 1244.15,311.1 1243.2,312.6L1236.55,310.7Q1236.35,311.5 1236,313.95 1235.6,316.2 1234.85,316.6 1232.75,317.75 1232.4,318.1 1231.8,318.9 1231.25,320.8 1231.05,321.55 1232.6,325.9 1233.9,330.45 1234.45,330.65 1234.85,330.65 1236.2,328.95 1237.7,327.25 1238.45,327.6 1242.25,328.2 1240.95,325.9 1240.35,324.95 1237.3,323.8 1234.85,323.05 1235.25,320.4 1236.55,320 1238.85,320.8 1240.95,321.55 1241.5,321.35 1246.05,318.7 1247.2,319.85 1249.45,322.1 1252.15,323.8 1255.95,326.3 1257.45,325.55 1257.25,325.55 1259.35,319.25 1260.1,318.3 1262,317.15 1263.9,316.05 1264.85,316.2 1271.85,316.6 1275.65,312.05 1270.9,312.25 1271.5,308.45 1272.65,302.35 1272.45,302 1268.65,305.95 1266.75,305.8 1266,305.8 1259.7,302.55 1256.5,301.05 1253.85,297.6 1250.6,293.25 1248.9,290.8"/><path fill="#897F74" d="M1214.35,367.3Q1211.15,368.25 1210.2,369 1209.05,369.75 1208.85,372.8 1208.85,374.1 1206.95,376.6 1204.65,379.25 1203.9,380 1203.15,380.95 1203.35,383.05 1203.35,384.75 1201.65,385.5 1199.35,386.65 1198.6,385.5 1197.85,384 1196.7,384.2 1190.8,384.35 1187.4,384.55 1181.5,385.15 1179.6,388 1173.75,396.35 1166.15,396.15 1167.65,399.95 1163.65,403 1158.35,406 1156.45,407.15L1157.2,413.05Q1159.85,413.25 1160.05,410.75 1160.25,408.3 1161.6,408.5 1164.25,408.85 1164.05,411.9 1163.85,414.2 1162.55,415.9 1160.65,419.1 1161.2,423.85 1161.75,429.15 1165.75,426.15 1168.8,424.05 1171.05,419.3 1172.4,416.65 1174.85,410.95 1175.25,410.2 1172.2,405.05 1171.45,403.75 1169.95,403.75 1168.05,403.95 1166.9,402.2 1168.2,400.9 1172.4,400.9 1175.45,401.1 1176.6,397.3 1177.9,399.35 1179.4,399.2 1180,399.2 1182.45,397.65 1183.05,397.3 1185.7,396.5 1187.95,395.75 1188.35,395.4 1189.85,393.5 1193.65,393.7 1195.75,393.85 1199.75,394.65 1196.15,397.85 1197.25,400.9 1198.05,402.8 1201.8,406.2 1202.95,404.7 1205.25,400.7 1207.5,397.65 1210.35,398.25 1205.6,394.65 1210,391.6 1212.45,395.55 1217,394.65 1221.2,393.7 1223.85,389.9L1226.3,394.45Q1231.05,387.8 1232.4,386.65L1231.25,391.95Q1233.15,391.2 1235.05,389.1 1237.15,386.65 1238.65,385.9 1238.85,385.9 1238.45,381.7 1238.1,377.35 1238.25,376.2 1238.45,375.05 1239.8,372.05 1240.75,369.95 1240.75,367.1 1240.75,362.9 1240.95,362.15 1241.7,359.7 1244.55,361.2 1244.35,358.2 1244.35,357.05 1244.55,355.15 1246.05,354 1247.95,352.85 1248.15,350.4 1248.15,347.15 1248.15,345.45 1248.15,344.15 1246.6,341.45 1244.9,338.8 1244.35,337.7 1243.8,336.35 1244.15,334.25 1244.75,332.15 1244.9,330.85 1242.05,329.3 1240.55,331.05 1239.2,332.55 1240,335.6 1238.25,330.25 1235.05,334.45 1232.4,337.85 1231.45,342.05 1231.05,343.55 1232.4,345.1 1233.7,346.8 1233.55,347.35L1229.9,358.2Q1226.9,367.1 1221,369.95 1215.1,372.8 1213,373 1211.3,373 1212.45,370.5 1213.2,368.45 1214.35,367.3"/><path fill="#897F74" d="M909.85,643.1Q904.55,641.6 904,642.35 902.85,643.9 906.65,649.4 909.65,653.95 911.4,655.45 912.9,656.8 917.25,659.05 920.85,661.55 921.05,664.95 921.25,668.15 924.85,670.45 929.05,672.9 929.8,675.6L932.45,685.45Q932.85,686.8 934.35,687.35 936.25,687.9 936.8,688.5 940.25,692.1 944.4,705.4 945.75,708.25 948.2,711.1 949.75,712.8 952.75,716 964.15,728.55 972.3,735.95 972.9,733.3 972.9,731.75 974.4,733.65 977.05,733.1 979.55,732.55 980.85,735.35 981.25,732.9 981.45,725.3 981.6,718.65 982.55,715.65 984.3,710.9 980.1,708.25 976.3,705.95 973.45,708.8 974.6,707.3 974,706.35 972.3,703.65 972.3,703.5 971.95,701 971.75,699.5 971.2,696.45 970.4,696.1 968.35,695.5 967,695.15 964.9,694.2 964.7,692.85 964.35,691.15 965.5,689.6 966.6,687.75 966.45,686.8 966.05,684.9 963.6,683.75 961.3,682.6 961.3,681.65 961.3,679.35 960.15,679 957.5,677.85 957.3,677.65 956.35,676.9 956,675.6 955.8,674.65 953.5,674.25 950.3,673.85 950.1,673.7 948.4,673.3 947.45,671.8 945.75,669.5 942.15,667.05 937.6,664 936.05,662.65 927.9,656.6 925.45,653 923.15,648.6 922.2,647.3 920.5,645.4 916.5,644.8L909.85,643.1"/><path fill="#897F74" d="M1190.8,407.15Q1194.4,403.35 1194.4,402.2 1194.6,396.9 1188.55,398.05 1181.9,400.3 1180.95,399.55 1179.6,402.6 1177.9,404.9 1176.95,406.75 1178.3,411.15 1181.15,412.85 1183.2,410 1186.45,405.65 1187.2,405.25 1187.6,405.05 1189.1,406.6 1190.25,407.7 1190.8,407.15"/><path fill="#897F74" d="M1089.8,484.6Q1087.35,488.2 1086.4,492.4 1085.65,496 1087.75,499.8 1089.05,502.05 1092.1,506.25 1096.65,497.5 1098.2,490.5 1099.9,484.8 1099.9,482.15 1100.25,477.2 1095.35,479.5 1092.3,480.8 1089.8,484.6"/><path fill="#897F74" d="M1013.9,535.1Q1016,534.35 1016.15,532.65 1017.1,526.55 1019.75,526.75 1020.7,522.4 1017.1,521.8L1016.75,523.5Q1012.55,521.25 1008.75,523.7 1004.6,527.5 1002.1,529.05 1002.1,533.6 1002.3,533.95 1002.7,535.5 1005.15,536.8 1006.85,537.95 1009.15,538.15 1010.3,538.35 1010.1,537.55 1010.1,536.45 1010.45,536.25 1011.4,535.85 1013.9,535.1"/><path fill="#897F74" d="M1098.35,536.45Q1096.1,534.7 1094.55,534.35 1093.25,534.15 1091.55,534.9 1089.8,535.85 1089.65,537L1087.35,550.5Q1087.15,551.6 1088.1,553.35 1089.05,555.05 1088.7,556.35L1085.25,553.35Q1084.15,555.2 1084.9,558.85 1085.1,560.9 1086.05,564.7 1086.4,566.4 1088.7,567.35 1089.8,567.95 1092.5,568.7 1089.25,570.4 1090.4,573.05 1091.55,575.75 1094.75,576.1 1096.1,576.3 1097.6,575.35 1098.75,574.8 1101,576.1 1102.75,577.05 1104.45,580.1L1105.6,574.2Q1109,575.55 1109.4,575.9 1110.3,576.85 1110.3,580.1 1110.3,581.25 1112.8,582.75 1114.1,583.5 1116.4,584.65 1117.55,581.8 1115.85,580.3 1113.75,578.4 1113.75,576.3 1116.4,577.8 1117.55,576.5 1118.85,575.35 1116.6,573.05 1115.85,572.1 1115.25,573.25 1114.3,574.6 1113.75,574.4 1110.7,572.5 1109.4,571.75 1108.25,571 1105.2,570.05 1104.25,569.85 1103.1,571.15 1102.15,572.7 1101.6,572.7 1099.3,572.5 1098.75,570.2 1098.55,567.35 1097.8,566.05 1096.3,563 1097.05,561.5 1098.35,559.2 1098.35,557.3 1098.2,556.35 1099.7,556.55 1101.4,556.95 1101.8,556.35 1102.55,555.05 1102.9,551.8 1104.05,548.4 1103.5,547.25 1101.95,544.6 1101.8,543.25 1101.4,542.15 1102.55,539.85 1103.5,537.55 1102.55,535.5 1099.3,537.2 1098.35,536.45"/><path fill="#897F74" d="M1093.45,577.45L1088.5,577.6 1094.75,588.45Q1097.8,584.65 1097.6,582.2 1097.25,579.9 1093.45,577.45"/><path fill="#897F74" d="M1103.5,591.1Q1102.9,590.9 1099.5,591.5 1100.25,600.2 1100.65,601.15 1101.95,604.2 1107.65,601.55 1104.05,606.5 1103.85,606.65 1102.35,609.9 1105.2,611.4 1105.95,611.8 1106.9,613.3 1107.5,614.65 1108.6,614.45 1109.95,614.25 1109.95,612.15 1109.75,609.9 1109.75,608.75 1109.75,607.45 1111.45,603.05 1112.8,599.25 1112.2,598.15 1110.3,594.9 1108.6,593.55 1107.5,592.6 1103.5,591.1"/><path fill="#897F74" d="M1109.55,584.45Q1111.25,587.5 1109.2,589.75 1109.95,589.2 1111.65,587.85 1113.15,590.55 1115.65,592.05 1116.2,590.35 1115.85,587.5 1114.5,587.7 1113.15,586 1111.65,584.45 1109.55,584.45"/><path fill="#897F74" d="M1117.15,585.05Q1117.35,586.95 1118.7,588.45 1119.65,589.2 1121.5,590.7 1122.85,591.65 1122.45,592.8 1122.1,593.75 1122.65,594.7 1126.1,598.9 1126.85,595.45 1127.4,593 1126.45,588.25 1125.7,585.2 1122.65,584.85 1119.05,585.05 1117.15,585.05"/><path fill="#897F74" d="M1124,605.55Q1125.15,604 1124,600.4 1122.45,596.4 1122.65,594.7 1119.8,596.25 1117.55,593.2 1117.9,597.75 1118.85,598.9 1120.4,597.55 1120.75,600.8 1121.35,605.15 1122.85,605.9L1122.65,602.3 1124,605.55"/><path fill="#897F74" d="M1115.25,602.7Q1116,601.9 1116.2,599.25 1116.2,595.65 1116.4,595.1L1115.05,595.65Q1114.5,597.95 1112.05,603.05 1110.15,607.8 1110.5,610.85 1111.25,606.3 1115.25,602.7"/><path fill="#897F74" d="M1114.3,607.25Q1113,609.15 1115.65,609.7 1118.3,610.1 1119.25,607.6 1120.2,604.95 1116.95,604.6 1114.7,606.5 1114.3,607.25"/><path fill="#897F74" d="M1123.8,614.85Q1120.4,612.75 1120.75,618.05 1118.85,616.55 1116.8,618.8 1113.75,622.05 1113,622.4 1114.5,620.7 1114.1,618.65 1113.55,616.55 1111.25,616.35 1109.4,616.15 1108.6,618.65 1107.85,621.3 1107.1,621.45 1103.5,622.6 1101.4,625.1 1098.55,628.3 1101,631.75 1101.95,631.15 1104.25,626.2 1106.55,622.6 1107.3,627.35 1107.65,626.4 1108.05,625.85L1109.2,624.9Q1109.4,626.4 1109.55,626.8 1109.95,627 1111.25,627.75 1111.25,625.25 1110.9,624.3 1115.85,623.55 1115.65,627.75 1115.25,634.75 1115.25,634.95 1116.2,637.25 1119.45,638.95 1123.05,640.85 1123.8,638.2L1124.55,638.2Q1123.25,642.35 1125.7,641.4 1128.15,640.25 1127.4,636.65 1126.25,633.45 1126.1,631.9 1125.9,629.65 1128.55,627.75 1129.7,629.25 1130.05,632.1 1130.45,634.95 1131.2,636.3L1131.4,631.15 1132.7,631.9Q1134.05,626.4 1134.25,625.65 1134.8,621.1 1132.7,620.9 1132.9,620.55 1132.9,618.25 1131.4,617.7 1130.85,617.5L1132.55,615.95Q1132.7,614.05 1132.15,612.95 1131.6,611.6 1130.25,612.15 1128.95,608.2 1125.9,607.6L1126.85,614.05Q1124.95,613.7 1124.75,613.7 1124.55,613.7 1123.8,614.85"/><path fill="#897F74" d="M1083.55,599.45Q1083,596.6 1083.35,595.65 1083,594.9 1081.1,593.55 1079.95,599.05 1079.2,600.95 1077.85,604.2 1074.85,607.05 1068.75,612.95 1065.15,619.6 1068,617.85 1073.1,615 1076.7,612.15 1077.5,607.6 1077.65,606.5 1080.35,604.75 1081.65,603.8 1083.95,602.3 1084.15,602.1 1083.55,599.45"/><path fill="#897F74" d="M1072,637.8Q1070.45,635.9 1067.6,633.45 1064,630.6 1062.7,630.8 1061.35,630.95 1057.95,635.35 1054.7,640.1 1053.75,641.05 1052.6,642.35 1051.85,645.4 1051.5,647.5 1049,648.05 1044.65,649.2 1043.5,649.75 1042,650.9 1039.7,654.3 1037.8,657.75 1036.65,659.25 1034.95,661.7 1032.5,662.5 1028.7,663.45 1027,664.2 1024.15,665.35 1022.6,667.8 1020.15,671.95 1019.95,672.55 1019.75,673.85 1022.6,676.7 1017.9,676.15 1015.4,675.4 1010.85,674.05 1010.3,670.65L1005.55,673.5 1004.4,682.4Q1004.2,683.35 1005.35,684.9 1006.7,686.6 1006.85,687.15 1006.85,687.55 1006.3,688.5 1005.55,689.25 1005.75,689.8L1006.85,694Q1007.05,694.55 1007.8,695.15 1008.4,695.5 1008,697.4 1009.15,696.85 1009.9,696.65 1010.1,696.45 1010.45,695.15 1012.95,697.2 1013.7,702.15 1014.1,705 1014.25,710.5 1014.65,715.05 1025.1,710.3L1026.05,716.2Q1031.75,712.95 1032.85,712.8 1035.15,712.4 1039.5,715.05 1039.9,715.25 1041.6,715.25 1043.5,714.85 1044.25,715.25 1045.4,715.65 1045.95,717.7 1046.15,719.05 1046.55,721.15L1056.8,716Q1055.65,720.4 1058.7,720L1058.9,705.4Q1058.9,702.35 1060,701 1060.8,700.05 1063.45,697.8 1066.85,694.75 1067.4,693.4 1068,692.3 1067.6,687.35 1067.4,684.9 1068.75,682.2 1070.25,679.35 1072.15,679.75 1081.85,681.85 1075,675.6 1071.05,672.9 1070.25,671.4 1070.1,671 1070.65,669.5 1071.2,668 1071.05,667.4 1070.85,666.65 1068.2,661.55 1066.85,659.05 1067.05,655.1 1067.05,653 1070.65,652.25 1072.75,651.85 1075.75,651.45L1072.75,647.1 1080.35,645Q1079.75,643.5 1078.8,642.95 1077.1,642.75 1075.95,642.35 1074.85,642.15 1073.7,640.45 1072.55,638.55 1072,637.8"/><path fill="#897F74" d="M1083.35,687.35Q1085.25,690 1083.75,692.85 1082.8,694.35 1080.5,697.8 1080.15,698.95 1079.95,701.95 1079.55,704.45 1078.8,706.35 1076.7,710.9 1076.7,711.1 1076.35,712.8 1078.25,715.45 1078.6,716 1081.45,716.6 1083.35,716.95 1083,720.2 1082.8,721.35 1081.45,726.65 1080.5,731.6 1081.1,732.7 1081.85,734.05 1085.1,734.25 1088.3,734.6 1089.05,733.1 1089.25,732.7 1088.7,730.8 1087.9,728.9 1087.9,728.35 1087.9,727.6 1088.7,726.25 1089.45,724.95 1089.45,724.35 1089.25,717.9 1089.65,714.85L1088.7,711.1Q1088.1,709.35 1091.7,709 1093.6,708.8 1093.45,712 1093.25,713.75 1092.85,716.2 1093.45,717.7 1095.9,719.6 1097.8,720.95 1097.25,722.85 1095.7,727.6 1101.2,726.65 1100.85,726.65 1103.85,724.15 1107.1,721.35 1106.55,722.85 1107.85,720.2 1105.75,719.25 1102.75,718.1 1102.15,716.6 1101.95,716.2 1102.9,714.7 1104.05,713.35 1103.7,712.8L1101,707.45Q1100.05,705.75 1098.75,704.8 1096.65,703.5 1096.1,702.7 1099.3,703.85 1103.85,698.75 1108.05,693.6 1111.1,695.7 1112.2,692.1 1109.75,692.3 1106.55,693.4 1105.4,693.4 1103.7,693.4 1102.55,694 1101,694.95 1100.25,695.15 1099.3,695.5 1098.35,694.55 1098,694.2 1096.45,695.7 1091.7,700.8 1088.1,694.95 1084.5,689.05 1088.3,684.3 1089.65,682.6 1092.3,683.35 1096.1,684.5 1096.85,684.5 1098.75,684.3 1102.9,683.75 1106.7,683.35 1108.8,684.5 1118.3,690 1124.2,672.9 1122.3,672.9 1119.45,675.95 1116,679.75 1115.05,680.3 1114.1,681.1 1111.85,680.3 1109.2,679.35 1108.6,679.35 1107.65,679.35 1106.55,679.95 1105.6,680.5 1104.05,679.95 1100.05,678.25 1097.6,677.5 1093.25,675.95 1091.15,677.3 1088.3,679.2 1086.6,681.65 1085.65,683 1083.35,687.35"/><path fill="#897F74" d="M997,707.85Q994.55,705.75 994.35,709.35 994.35,711.85 994.9,714.1 998.5,715.25 999.1,712.6 999.65,709.75 997,707.85"/><path fill="#897F74" d="M978.6,700.8Q977.25,702.9 976.5,703.85 977.8,705 979.9,704.6 980.85,704.6 982.2,707.65 982.75,708.25 982.95,709.2 983.35,710.15 984.1,710.7 986.35,712.6 988.25,712.6 986.15,710.5 989,708.4 985.6,708.6 984.3,704.05 983.15,699.5 980.65,699.7L981.05,701.75Q979.7,699.7 978.6,700.8"/><path fill="#897F74" d="M985.05,735.75Q983.7,735.35 982.95,735.95 982.75,736.15 981.25,738.05 978.4,741.45 980.85,742.95 981.45,743.35 986.55,744.7L986.15,746.95Q988.65,747.35 992.8,749.05 997.35,750.95 999.25,751.3 1000.4,751.5 1002.9,750.75 1005.35,750.2 1006.5,750.2 1008.75,750.55 1013.3,752.65 1017.9,754.55 1019.2,754.75L1023.95,755.3Q1024.5,755.5 1025.1,754.75 1025.65,754 1026.05,754L1031.75,755.1Q1034.6,755.7 1037.45,755.1L1045.95,758.9Q1045,757.75 1044.25,752.1 1043.9,748.85 1039.15,749.8 1036.1,750.55 1033.65,748.65 1030.8,746.4 1031.35,742.95 1029.45,743.9 1025.65,743.35 1021.65,742.95 1020.55,741.25 1018.05,738.05 1016.35,742.95 1016,744.1 1014.65,743.9 1013.15,743.75 1012.35,743.55 1007.25,743.35 1005.35,742.95 1001.95,742.2 999.85,738.8 999.65,738.4 995.5,737.1 991.1,735.75 990.35,735.35 989.8,736.9 988.25,736.7 986.15,736.15 985.05,735.75"/><path fill="#897F74" d="M1052.25,753.4Q1049.6,752.45 1047.1,753.4 1047.1,757 1049,758.55 1050.9,760.05 1053,757.2 1055.1,754.55 1052.25,753.4"/><path fill="#897F74" d="M1110.15,725.9Q1109.4,723.05 1107.85,723.6 1106.15,724.15 1106.55,727 1105.4,723.8 1104.05,726.25 1103.1,727.8 1102.55,730.65L1106.7,734.6Q1107.65,733.5 1109,731.75 1109.55,730.25 1108.45,728.75 1107.5,727.4 1108.25,726.45 1108.8,725.5 1110.15,725.9"/><path fill="#897F74" d="M1129.7,713.75Q1128.15,717.9 1133.3,718.1 1136.9,718.1 1139.55,716.95 1139.95,713.9 1135.4,712.2 1130.85,710.5 1129.7,713.75"/><path fill="#897F74" d="M1087.15,759.1Q1092.65,760.25 1093.05,760.6 1094.55,759.1 1095.9,759.65 1097.6,760.25 1098,760.25 1098.55,760.25 1099.5,759.5 1100.25,758.7 1101,758.7 1102.9,759.1 1105,757.75 1107.3,756.05 1108.05,756.05 1110.3,756.05 1116.4,756.65 1121.9,756.85 1124.2,754.75 1120.95,753.6 1117.15,754 1111.45,754.35 1110.15,754.15 1107.65,754 1106.7,754.35 1105.95,754.75 1103.85,756.65 1103.1,757.2 1101.6,756.45 1099.9,755.7 1099.1,756.05 1097.6,756.85 1092.3,755.1 1087.15,753.6 1085.25,755.7 1083,758.15 1087.15,759.1"/><path fill="#897F74" d="M1074.65,759.65Q1082.05,758.35 1077.65,755.3 1073.3,752.1 1069.3,753.6 1071.2,757 1066.85,757 1066.1,756.05 1063.65,755.1 1061.35,754.15 1060,754.15 1057.75,754 1056.8,755.3 1056.05,757.4 1055.25,759.1 1060.2,760.6 1064.95,760.6 1068.2,760.6 1074.65,759.65"/><path fill="#897F74" d="M1083.95,763.45Q1078.25,762.15 1078.45,766.15 1080.35,766.9 1087.15,770.1 1092.65,772.2 1090.6,767.65 1089.45,764.8 1083.95,763.45"/><path fill="#897F74" d="M1124.75,764.05Q1126.65,763.1 1132.7,760.6 1138.25,758.15 1139,755.1L1128.75,756.25Q1125.3,756.65 1124,757.4 1123.6,757.6 1123.25,758.7 1122.85,759.65 1122.3,760.05 1115.45,763.1 1113.35,764.8 1112.2,765.95 1112.8,768.05 1113.55,770.1 1111.65,771.65 1113.15,771.45 1116,771.05 1118.7,770.5 1119.8,768.95 1122.45,765 1124.75,764.05"/><path fill="#897F74" d="M1147.9,679.95Q1150.55,679.35 1150.75,676.9 1150.75,674.65 1147.9,673.85 1149.25,671 1149.8,670.45 1149.25,667.2 1149.05,665.7 1142.6,671.6 1142.05,672.55 1140.5,675 1140.9,676.9 1141.1,677.85 1141.85,680.5 1142.6,685.85 1142.2,689.45 1142.05,690.55 1144.5,692.3 1145.65,693.25 1147.7,694.75 1146.95,689.8 1147.35,687.9 1147.9,684.1 1151.9,685.65 1149.6,684.1 1148.3,682.8 1145.8,680.5 1147.9,679.95"/><path fill="#897F74" d="M1156.05,716Q1159.1,715.25 1161.2,716.2 1161.75,716.4 1165.75,719.25 1166.9,714.3 1162.35,711.85 1161.2,711.25 1154.35,709.55 1150.4,709.95 1148.5,710.3 1145.45,711.1 1143.75,713.15 1141.45,716 1144.5,716.95 1146.4,717.55 1149.05,717.35 1149.6,717.35 1150.2,715.8 1150.4,714.3 1151.15,714.7L1153.6,715.65Q1155.1,716.2 1156.05,716"/><path fill="#897F74" d="M1169,786.25Q1164.25,785.85 1161.4,789.85 1159.15,793.05 1157.6,797.2L1203.55,797.2Q1204.35,795.3 1205.6,793.65 1206.2,792.5 1210.35,787.75 1206.4,783.8 1203.7,782.65 1201.65,781.7 1195.55,781.1 1180.2,779.6 1177.7,779.8L1178.3,788.15Q1171.85,786.65 1169,786.25"/><path fill="#897F74" d="M1170.5,780.35Q1170.7,778.45 1168.05,779.05 1166.9,779.8 1162.7,779.6 1159.85,779.4 1159.7,783.4 1159.85,783.4 1164.25,783.95 1166.9,784.35 1168.4,783.4 1170.5,782.05 1170.5,780.35"/><path fill="#897F74" d="M1246.8,781.1Q1245.85,784.35 1244.75,790.6 1244,793.35 1243.95,797.2L1259.85,797.2Q1257.15,786.75 1251.95,774.3 1248.5,775.05 1246.8,781.1"/><path fill="#897F74" d="M699.05,-10Q699.013,-9.848 698.95,-9.7 698.4,-8.2 695.75,-3.45 693.85,0.7 695.9,2.05L709.8,12.5Q710.9,13.25 710.15,18 709.8,20.45 709,24.25 704.85,20.65 702.75,18.75 698.75,15.35 695.9,14.4L677.15,6.8Q669.35,3.95 661.2,3.4 651.9,2.8 645.45,5.65 647.5,8.3 649.8,11.15 650.75,13.25 648.1,16.65 644.85,20.85 643.7,21.25 642.6,21.6 637.65,20.1L640.3,15.55Q635.75,14.4 633.65,14.6 631.4,14.75 627.4,16.5 624.35,18 621.15,18 620,18 614.5,17.45 612.75,17.25 609.75,20.85 606.9,24.25 604.8,23.7 600.05,22.35 599.1,21.4 598.15,20.45 596.65,15.55L561.7,31.3Q559.45,32.05 557.9,32.6 555.25,33.75 554.5,34.7 553.55,36.05 553.35,39.65 553.35,41.9 550.5,42.3 546.7,43.25 544.8,43.45 541.8,43.8 540.05,41.75 537.2,38.7 536.1,37.15 534.2,34.5 535.7,32.05 536.45,30.7 541,30.35 543.3,30.35 547.1,30.35 544.8,26.55 543.3,24.45 540.85,21.05 538.35,20.85L523,18.75Q523.55,19.35 526,22 528.3,24.65 528.1,25.4L525.25,37Q525.45,36.6 527.75,39.65 528.7,41.35 530,43.45 530.6,44.75 529.65,48 529.25,49.7 528.3,52.75L515.6,48.95Q514.05,48.55 511.2,50.45 508.2,52.95 507.05,53.5L495.1,61.65Q494.3,62.25 499.25,73.6L483.3,68.1Q477.8,66.2 476.85,66.2 474.75,66.2 471.15,69.65 472.3,71.15 474.2,73.8 476.1,75.7 478.35,75.7 480.85,75.7 481.6,78.55 482.55,81.4 480.1,82.35 476.45,83.85 470.6,80.85 463.95,76.85 460.9,75.5 457.7,74.2 456.9,67.35 456.75,65.65 456.75,56.35 456.75,52.95 451.05,47.4 444.4,41.75 442.5,39.85 456.35,46.85 480.25,52.75 485.6,54.05 488.8,53.7 491.65,53.5 497.55,51.6 499.65,50.85 500.95,49.3 501.7,48.35 503.45,45.5 506.1,41.55 506.3,40.4 506.45,38.9 505.15,34.7 502.65,27.5 491.3,23.7 485,21.8 472.5,14.75 466.6,11.55 463.95,10.4 459.95,8.9 454.65,8.7 448.55,9.45 444.95,9.25 437.95,8.9 438.7,3.95 440.05,4.35 442.85,5.3 445.35,5.65 445.9,3.2 443.45,1.65 441.75,0.7 438.7,-0.8 437.95,0.35 436.25,2.6 433.2,2.45 429.6,1.85 427.5,1.65 421.05,3.2 420.45,2.25 419.7,0.35 417.05,-1 416.474,-1.239 415.975,-1.5L360.25,-1.5Q349.544,2.202 341.9,5.65 336,8.3 329.9,14.4 328.05,16.5 319.85,25.95 312.85,33.55 309.25,37.15 303.35,43.8 299.75,49.5 294.6,59 291.95,63.35 287.4,70.95 282.65,75.7 277.35,80.45 272.2,86.55 269.75,89.2 266.15,91.25L259.3,94.7Q250,99.65 247.9,101.35 243,105.5 242.05,107.05 240.9,109.1 240.7,115.4 240.3,120.9 242.2,130.55 244.3,141 244.3,145.55 244.5,151.45 252.1,153.15 258.95,155.05 263.5,152.2 267.1,150.1 272.95,144.05 277.15,141 277.9,140.05 279.6,138.15 280.55,134 280.95,135.1 281.7,137.95 282.45,140.25 283.8,140.45 285.3,140.8 285.1,143.3 284.75,146.9 284.95,147.25 285.1,148.05 288.35,154.5 288.75,155.25 288.75,157.5 288.9,159.6 289.5,160.35 290.8,162.25 294.8,166.85 298.05,171 296.9,173.85 296.5,175 297.65,181.65 298.05,184.65 298.8,185.05 299,185.05 302.6,184.85 303.9,184.85 305.65,184.65 306.95,184.5 307.5,182.75 307.9,180.5 308.3,179.35 308.65,177.65 310,177.45 316.45,176.15 317.75,175.75 321.4,174.05 323.1,169.85 324.4,167.2 324.8,161.5L325.55,152.8Q326.15,148.6 328.8,145.95 330.3,144.25 334.65,140.8 336,139.7 340,136.85 343,134 341.9,131.7 340.75,129.05 335.8,126.75 330.85,124.5 329.55,122.4 325.75,115.55 329.75,106.85 332,101.9 338.65,93.75 339.6,92.6 351,85.4 361.65,78 360.1,75.15 358,71.55 358.8,68.5 359.55,66.2 362.6,62.8 366.55,58.25 369.05,57.3 370.75,56.7 377.2,56.9 386.85,57.3 389.15,65.85 390.1,68.85 388.4,69.05 385.75,68.85 384.6,69.45 383.1,70.2 380.6,73.6 378.15,77.4 377.2,78.55 375.3,80.85 370.95,84.45 366.55,88.05 364.65,90.3 362.4,92.6 360.85,93.95 358,96.6 357.85,98.1 357.25,100.6 360.5,108.95 361.45,112.7 360.7,117.85 360.1,122.2 360.3,122.8 360.7,123.55 364.1,124.85 366.95,126 368.1,127.15 369.2,127.9 370.95,130.95 371.7,132.1 377.95,130 390.1,127.7 413.85,122.6 413.25,124.85 412.7,125.8 414.4,126.6 419.5,128.3 424.25,130.2 425.05,132.65 422.35,131.9 420.85,131.7 418.2,130.95 417.05,131.7 415.75,132.65 412.9,132.85 410.05,133.25 408.9,134 407.4,134.95 407.75,136.85 407.75,137.95 404.7,137.6L392,135.9Q388.4,135.3 383.25,137.2 382.15,137.6 374.9,140.8 374.15,141 374.9,144.25 375.65,147.45 376.45,148.2L379.65,151.65Q379.85,151.85 381,151.25 382.15,150.5 382.5,150.9 382.9,151.05 382.3,154.85 381.75,159.05 381.95,159.8 382.3,162.1 380.8,164.35 379.3,166.85 377.2,166.65 375.3,166.45 370.55,160.95 366.75,156.4 362.6,159.6 361.05,160.75 360.5,163.4 360.1,166.45 359.35,167.2 356.7,170.45 356.9,174.8 357.05,176.7 358.6,185.25 358.95,192.25 353.85,189.8 356.9,185.8 357.05,185.05 356.3,186.4 354.6,187.5 352.15,189.25 351.95,189.4 349.85,189.4 349.3,190 348.35,193.6 347.4,194.75 345.3,197.2 341.7,196.45 338.1,195.7 338.1,192.05L341.1,193.4Q337.7,190.55 331.25,191.9 325.2,193.2 322.35,197 321,198.7 314.35,200.05 306.75,201.4 305.65,202.15L310,202.7Q310,204.4 309.4,205.55 306.95,204.2 305.8,203.65 303.9,202.35 303.35,200.45 302.95,199.1 300.5,197.6 298.05,195.85 296.9,196.05 295.55,196.25 290.05,199.85 285.7,202.7 282.65,201L284.95,196.45Q281.15,198.15 277.55,195.5 274.1,192.85 273.15,188.3 272.4,183.55 276,179.75L282.65,172.7Q278.3,171.75 278.3,166.25 278.3,161.7 280.75,157.9 279.8,158.3 274.7,162.1 271.25,164.75 268.6,164.75 261.75,164.95 262.15,176.5 262.35,178.2 262.35,180.3 262.55,181.8 264.05,182.95 265.75,184.5 265.75,186.55 265.75,189.8 266.15,190.75 266.35,191.15 268.05,193.95 268.6,194.9 266.7,196.45 265.4,197.4 267.3,199.5 268.8,201.4 270.15,201.75 267.45,201.75 266.35,202.15 264.6,202.5 265,205 260.45,204.05 258.95,204.2L254.95,204.8Q254.35,205 254.2,206.1 254.2,207.45 253.8,207.45 253.05,207.65 247.35,208 243.55,208.2 241.25,211.05 240.7,211.65 238.6,212.2 236.7,212.75 236.55,213.9 235.2,219.6 232.75,222.85 232.35,223.4 232.35,224.55 232.15,225.65 231.95,226.05 231.8,226.45 228.15,227 228.35,228.15 230.25,228.7 231.4,229.1 233.3,229.45 227.2,229.1 224,230.6 215.1,233.25 214.15,234.8 213.2,236.1 214.15,239.55 214.7,242.2 212.25,243.35 208.8,244.65 207.1,245.6 204.25,246.95 202.95,248.85 203.9,249 205.75,249.8 201.05,251.85 195.7,251.1 194.2,250.9 193.8,250.55 193.6,250.35 193.05,248.45 192.7,247.15 188.1,247.15 190.4,251.85 191.15,256.05 191.35,257.2 187.75,258.35 183.75,259.25 183,259.45 181.45,259.85 180.55,257.2 179.95,254.9 176.75,257.2 174.85,258.35 172.15,258.7 168.95,258.9 167.25,258.9 167.05,261.75 170.25,263.45 168.75,264 168,264.2 169.35,266.85 172.55,266.5 174.45,266.3 175.8,267.05 176.35,267.45 178.65,269.35 179.2,269.7 183.75,270.5 183.95,270.5 184.5,271.8 184.9,272.35 186.8,272 186.05,273.7 186.8,276.55 187.55,279.8 189.65,280.35 193.25,281.5 193.8,283.4 194,284.15 194,289.65 194,299.7 193.6,302.35 192.5,310.9 187.55,312.05 182.8,313 176.9,310.9 175,310.15 171.05,310.55 167.25,310.9 165.15,310.15 161.35,309 158.5,309 156.6,309 151.85,310.15 150.55,310.55 146.75,308.8 143.9,307.5 141.25,309.75L142,311.3Q138.2,311.65 138,311.85 134.95,312.45 134.4,313.95 133.45,316.05 134.6,317.95 135.75,319.85 137.6,318.3 135.9,327.8 137.8,332 138.95,334.85 137.6,340.35 136.85,343.35 135.15,348.7 134.6,351.15 133.25,354 132.9,356.3 134.8,359.15 134.95,359.5 136.1,359.15 136.85,358.75 137.05,359.7L137.45,364.25Q137.6,366.35 136.3,372.8 138,371.45 141.25,371.85 144.65,372.25 146.35,371.3 148.8,369.75 151.85,371.85 154.9,373.95 156.6,373 153.95,375.05 156.4,378.7 158.9,382.5 161.35,381.55 162.7,381.15 166.1,378.1 169.15,375.25 171.6,375.45 181.3,375.85 186.2,375.45 187.75,375.25 190.4,369.55 190.95,368.6 193.45,368.05 194.55,367.85 196.85,367.5 196.1,365.75 198.2,362.75 199.3,361.2 201.8,358.35 203.3,356.3 201.6,353.8 199.5,351.15 200.1,350.2 205.95,339.95 206.15,339.95 209.55,335 214.5,332.35 215.85,331.8 220.2,330.1 224.2,328.35 225.35,326.85 226.3,325.55 225.5,320.95 224.75,316.8 225.15,316.4 226.1,315.65 228.95,312.45 231.6,309.95 233.1,310.35 237.85,311.85 247.15,314.9 248.3,315.45 255.9,310.15 262.9,305.2 264.45,303.5 266.7,300.65 272.4,303.5 276.2,305.4 277.15,306.9 278.1,308.05 279.05,312.8 280,316.8 284.35,320.4 287,322.5 292.35,326.65 293.65,328 296.3,330.85 298.6,333.1 301.05,332.75 302.8,332.35 305.45,334.65 308.3,337.1 308.1,338.8 309.8,337.85 311.3,338.8 312.85,339.55 312.45,341.65 312.1,343.75 317.2,344.3 318.15,344.5 320.25,350.2 322.15,355.9 320.8,356.45 319.5,357.25 319.5,358.75 319.3,360.25 318.15,361.05 316.85,361.95 313.6,362.35 310.2,362.9 308.85,363.1 307.15,363.5 301.85,362.9 296.7,362.35 295.95,361.6 291.95,365.95 299,368.8 307.9,372.25 308.45,374.1 309.05,376.4 312.65,375.65 316.25,374.9 314.95,372.25 313.4,369.4 314.15,366.55 314.75,363.5 317.6,361.95 317.4,366.15 321,363.5 324.6,360.65 324.25,357.8 324.05,357.05 327.85,354.4 330.7,352.3 327.65,349.8 325.75,348.7 325,348.3 324.25,347.55 324.6,345.85 325,343.35 325.55,342.4 326.15,341.45 327.85,339.95 329.15,338.6 332.6,342.05 334.5,343.75 337.35,346.4 340.15,342.4 331.65,336.55 321.55,330.65 319.65,329.15 322.35,326.85 320.6,326.3 320.05,325.9 316.45,325.7 313.8,325.55 311.7,324.2 310.95,323.65 307.7,320.6 306.2,319.25 305.25,316.05 304.1,312.05 303.35,310.9 302,309.4 299,307.3 294.6,304.25 294.45,304.25 292.55,302.75 293.3,299.7 293.85,296.3 293.65,295.7 291.75,292.3 293.1,291 293.85,290.2 298.05,288.9 300.3,288.3 301.85,287.95 302,288.15 302.6,291 303.15,294.6 304.7,295.35 306.2,296.3 307.5,292.1 310.55,294.6 311.9,296.65 312.85,298.2 314.15,302.75 314.75,304.25 317,307.1 319.5,310.15 320.6,310.35 325.2,310.9 330.85,314.9 331.8,315.65 340,322.1 344.55,325.7 344.75,325.9 346.05,327.6 345.7,331.4 345.5,334.65 344.9,338.8 345.1,341.85 348.15,344.3 349.65,345.45 351.35,349.05 353.65,353.6 354.2,354.4 357.05,358.75 358,359.5 359.35,360.45 363.5,360.45 359.15,363.85 359.15,366.15 359.15,367.1 361.25,374.3 363.15,372.8 364.1,372.6 365.25,372.4 366.2,374.3 367.15,376.4 368.85,376.95 370,377.35 372.85,377.55 371.7,374.9 371.7,373.75 371.3,372.25 373.2,370.9 375.1,369.4 374.7,367.85 374.35,366.55 371.9,365.95 373.8,363.7 375.65,364.45 376.05,364.65 379.3,367.1 380.05,362.9 377.2,360.25 373,357.8 370.75,356.1 373.4,353.45 373.4,352.65 373.4,351.7 371.5,348.5 369.6,345.65 369.05,344.15 367.9,341.45 369.6,339.55 373,341.85 373.4,341.85 375.5,342.6 377.4,341.1 377.75,340.7 377.2,339 376.8,337.5 377.55,337.1 381.95,335.2 383.1,335.4 384.4,335.8 387.65,335.95 390.3,336.15 392.4,336.9 393.5,337.3 396,337.85 398.25,338.25 399.4,338.8 396.35,340.7 396,341.3 394.65,342.6 394.85,345.25L405.85,335Q407,334.05 411.55,335 415.75,335.8 416.3,333.7 416.5,333.1 412.7,330.45 408.7,327.6 407.95,326.1 403.2,317.35 409.25,313.4 412.3,311.5 413.45,307.85 414.2,303.15 414.8,300.3 414.95,299.35 417.45,298.55 419.9,297.8 420.45,297.05 420.85,296.3 421.6,289.25 422,287.2 425.4,283.75 427.3,281.85 430.35,278.85 431.3,277.7 436.4,278.65 442.1,279.6 443.65,278.85 442.7,280.9 440.05,280.9 437,280.55 435.45,280.35 436.25,280.9 438.15,282.45 439.85,283.95 440.8,283.75 442.1,283.75 444.6,283.55 446.65,283.55 448,283.95 452.75,285.45 448.75,288.15 443.25,291 441.9,291.75 444.75,293.05 448,294.4 449.7,295.9 448.2,300.3 450.65,302.35 455.8,299.7 458.45,298.2 463,294.95 463.95,294.6 468.3,294.75 471.55,295.15 473.45,291.75 468.9,292.1 467,292.1 463.55,292.1 461.85,290.05 459.6,287.55 459.4,284.35 459,280.75 462.6,281.3L461.65,283.4Q464.5,280.55 466.8,279.2 468.9,278.25 473.05,277.3L473.05,278.85Q475.35,276 479.3,274.85 480.45,274.45 486.55,273.5 487.3,273.5 489.95,272.95 492.05,272.95 491.45,275.05 491.1,276.15 488.05,276.35 485.4,276.35 486.15,278.85L480.45,279Q481.2,280.75 483.1,282.45 484.25,283.4 486.75,285.1 482.95,284.9 481.05,286.6 478.75,288.7 479.9,293.05L474.2,291.95 472.5,294.2Q474.6,295.7 478.55,298.75L483.9,302Q487.1,302.35 490.35,305.2 492.25,306.9 496.05,310.9 497.75,312.45 501.55,314.7 505.15,316.6 507.05,318.7 509.15,321.15 509.7,324.6 510.45,328.75 507.8,330.45 500,335.2 494.15,334.65 492.4,334.45 488.05,335.4 484.45,336.15 482,335 481.4,334.85 475.15,333.1 470.2,331.8 469.45,330.85 467.75,328.35 466.8,328.95 465.45,329.7 464.35,329.15 460.15,327.25 461.5,324.6 458.65,325.55 455,325.55 454.45,325.55 448.4,324.95 445.15,324.75 437.75,329.7 434.35,332.35 433,333.1 431.1,334.05 427.3,333.5 421.8,332.75 421.05,332.75 417.05,332.75 416.3,334.85L421.8,337.7Q417.8,339.95 414,340.7 411.75,341.1 405.65,341.3 401.7,341.45 398.45,343.2 394.1,345.45 394.65,349.65L400.35,349.05Q396.55,353.45 400.75,362.9 404.55,371.65 409.45,374.5 411,375.45 415.55,378.5 419.7,380.95 422,380.6 424.85,380 425.4,379.65 426.15,379.05 426.95,376.2 427.7,374.1 429.6,374.3 430.7,374.5 433.4,375.25 435.3,375.65 438.9,378.5 442.1,381.15 444.6,380.95 444.95,380.95 448.4,381.15 451.05,381.15 452.2,380.6 453.15,380.2 455.2,377.35 456.9,374.9 458.05,374.7 458.8,374.5 460.7,375.85 462.6,377.15 463.4,376.4 463.95,376 465.65,374.5 467.15,373.35 468.1,374.3 468.7,374.9 466.8,380.2 464.9,385.7 466.4,387.8 469.05,391.6 464.5,403 462.25,409.05 458.05,417.95 455.6,424.6 448.2,426.5 441.55,428.05 435.45,425 431.1,422.9 429,423.3 427.7,423.5 422.35,426.15 418,428.25 416.1,428.4 414.2,428.6 409.65,427.1L393.15,422.35Q392.75,422.15 390.65,423.5 388.95,424.45 388.6,423.65 387.45,421.2 386.85,420.45 386.1,419.3 384.2,418.9L373.95,416.85Q372.85,416.65 372.65,414.75 372.25,412.65 371.7,412.45 366.55,411.15 362.4,411.7 359.75,411.9 353.25,413.8 352.3,414 349.1,420.45 348.7,421.4 349.65,423.85 350.8,426.35 350.25,427.3 347.4,433.35 343.95,433.55 341.3,433.75 335.8,429.95 333.15,428.05 328.6,427.1 323.1,426.15 321.2,425.2 318.55,424.05 316.25,419.7 314.15,415.5 311.15,414.75L288.35,408.65Q285.7,407.9 281.9,404.3 277.9,400.15 276,398.4 277.15,397.3 281.15,393.7 284.35,390.25 283.25,388.15 280.55,383.45 280.75,381.15 280.75,379.65 283.4,373.95 279.25,371.65 277.15,370.9 273.55,369.55 270.7,371.3 267.3,373.15 263.3,373.35 262.55,373.35 255.3,373 250.95,372.25 249.05,372.6 247.9,372.8 245.85,374.3 243.55,375.85 242.4,375.85 241.25,375.85 235.6,373.55 234.25,373.15 231.4,373.55 228.35,374.3 227.05,374.5 214.9,376 199.5,383.05 197.4,384 186.2,390.85 185.65,391.2 183.35,389.7 180.9,388.15 180.35,387.8 179.2,387.2 176.15,388 172.75,388.95 171.8,389.1 169.35,389.9 165.7,386.45 162.3,383.05 161.9,383.05 158.5,384.2 156.4,389.1 155.1,391.8 153.2,397.85 151.65,401.65 142.35,406.4 133.45,410.95 132.9,415.15L129.65,435.8Q129.1,439.45 127.35,440.95 124.7,442.85 122.45,444.15 112,450.65 111.25,451.4 106.1,455.35 102.7,461.25L81.25,500.15Q81.05,500.55 78.6,504.35 76.7,507.2 76.5,508.7 76.1,511.35 77.85,516.7 78.6,519.7 80.1,524.65L84.3,543.05Q84.65,545.35 82.75,549.9 81.8,552.4 79.9,556.55 79.55,557.7 77.45,562.25 75.55,566.6 76.3,567.75L105.75,619Q108.75,624.5 112.4,627.95 114.65,630 121.3,634.75L138.95,647.3Q140.1,648.25 142.95,650.7 145.6,652.6 147.3,652.05L165.55,645.6Q168.75,644.45 172,645 172.35,645 178.45,646.7 183.75,648.05 184.3,648.05 186.8,648.25 189.65,646.7L206.15,638.35Q208.8,637.05 220.75,635.35 233.3,633.6 234.25,635.15L245.85,649.4Q247.55,651.45 252.65,651.1 255.3,650.9 260.05,650.15 264.8,649.95 266.15,650.7 267.3,651.45 270.5,656 273.15,659.45 273.35,661.35 273.55,662.5 272.95,667.6L270.5,689.6Q270.3,691.5 269.55,695.15 269.2,698 270.7,699.9L282.65,716.2Q283.8,717.55 287,721.15 289.85,724.55 290.45,726.85L298.6,762.15Q301.85,775.25 302,777.35 302.8,785.1 298.8,791.95 297.4,794.4 296.3,797.2L502.4,797.2Q502.4,790.05 502.1,785.85 501.55,775.05 497.35,769.35 493.95,764.8 493.35,762.9 492.8,760.8 493,755.3 493.35,748.85 492.8,746.55 492.25,743.75 489,739 487.3,736.5 495.1,724 499.05,717.55 504.95,708.8 511.95,696.65 525.45,682.6 533.25,674.65 548.8,659.05 552.4,655.25 556,648.8 558.1,645.2 561.9,637.6 564.2,633.25 569.85,623.95 574.6,615.6 575.95,609.5 577.65,604.6 578.6,600.95 580.5,594.15 579.75,592.8 578.05,589.95 568.9,593L531.55,602.85Q529.65,603.45 525.25,598.9 520.5,593.75 518.45,593 522.8,588.8 519.55,584.1 514.45,578.55 512.15,576.1L504.4,567Q503.6,566.05 499.45,565.1 495.65,564.35 495.1,563 492.8,555.4 491.45,551.45 489.2,544.4 486.9,540.6 485.6,538.7 482.95,536.25 479.7,533.6 478.35,532.25 477.05,531.1 476.65,527.5 476.3,523.5 476.1,522.2L473.8,507.6Q473.65,505.85 470.95,503.4 468.1,500.95 467.15,500 464.9,497.5 463.75,492 462.45,485.55 461.3,483.45L447.45,454.8Q443.8,449.3 442.3,445.9 439.45,439.8 441.9,436.6 448,448.55 454.25,455.35L459.2,440.35 457.7,452.9Q460.55,452.15 462.45,455.35 463.75,457.1 465.45,461.05L476.85,481.4Q477.8,483.1 480.25,485.35 482.75,487.65 483.3,488.95 484.65,491.45 487.3,496.4 489.55,500.75 490.15,504.15 490.5,506.05 491.1,512.7 492.05,518.6 494.15,519.35 498.3,521.05 500,522.55 501.35,523.7 504,528.25 506.85,533.2 511.95,541.95 515.95,549.35 517.3,556.55L521.25,578Q522.2,582.75 523.55,583.3 523.95,583.5 530,583.5 532.3,583.5 534.75,581.05 537.4,578.4 539.3,578 553,574 555.65,573.65 556.95,573.45 559.05,573.05 560.75,572.5 561.7,571 563.8,567.95 565.15,567.55L584.3,560.55Q586.2,559.95 587.7,556.75 589.25,553.35 591.15,552.4L599.5,548.75Q600.45,548.4 602.9,549.15 605.2,549.9 606.15,549.35 607.1,548.95 608.2,545.15 609.35,541.35 610.5,540.8L622.1,535.3Q623.95,534.55 626.05,533.4 627.4,532.45 627.4,529.6 627.4,526.2 628.15,523.35 628.7,521.8 630.6,517.45 630.8,518.6 631.95,521.05 633.1,519.7 637.85,514.8 642,510.25 642.2,507.95 642.95,504.55 642.75,503.2 642.75,501.3 640.3,500.95 638.95,500.75 637.65,497.7 636.1,494.3 635.55,493.35 634.8,491.8 632.7,491.45L628.9,490.7Q627.4,489.9 624.9,488.2 622.45,486.3 621.15,485.35 618.45,483.65 618.1,477.95 617.9,471.5 617.7,468.85 613.15,474.75 610.7,477.95 606.15,483.65 602.9,485.75 599.5,487.85 592.25,488.2 584.3,488.4 581.25,488.4 581.25,481.55 581.05,478.55 580.5,473.05 578.2,469.05L576.35,481.4Q564,457.45 561.9,454.25 559.05,450.25 557.35,447.6 554.1,442.45 555.45,440.95 559.8,435.8 561.5,435.05 563.25,434.3 569.5,435.05 572.55,435.65 574.45,439.25 575.55,441.3 577.45,446.25 579.75,451.6 581.25,453.1 582.8,454.8 587.7,457.1 589.05,457.85 592.65,461.05 595.7,463.9 597.95,464.3 603.85,465.45 606.15,465.45 609.95,465.45 614.1,464.1 619.05,462.4 620.55,463.7 620.75,464.1 624.15,470.75 625.5,473.4 628.7,474.15 630.6,474.75 634.8,475.3 639.55,476.45 648.85,478.9 656.8,480.6 662.7,480.05 664.8,479.85 679.2,477.2 692.7,475.3 693.85,477.4 694.6,479.1 696.5,484.4 698.4,489.35 700.3,490.3 702.55,491.65 707.5,495.05 712.05,497.9 714.9,498.65 716.05,498.85 717.95,498.65 718.9,498.45 720.8,498.1 720.6,500.95 716.6,502.05 711.7,502.65 709.95,503 711.7,504.75 716.05,510.4 720.4,515.35 723.25,515.55 726.85,515.75 727.45,515.55 728.55,515.15 730.3,512.7L737.7,502.45 738.8,537.95Q738.8,538.7 738.8,544.2 738.8,548.2 739.2,550.5 740.35,555.8 746.05,566.25 764.45,607.25 771.65,621.1L781.9,614.45Q784,613.1 784.4,610.1 784.55,606.3 784.75,604.4 788.95,608.95 789.15,608.95 790.45,611.05 790.25,614.65 790.1,623 790.85,631.35 791.6,640.85 799.55,637.25 807.35,633.8 804.1,626.4 799.95,616.35 796.55,612.15 793.7,608.75 792.35,605.55 791.4,603.45 789.9,597.75 789.15,595.3 790.65,590.35 792.75,585.2 793.1,583.15 793.85,580.45 793.7,575.35 793.1,569.85 792.9,567.55 792.55,562.8 792.55,561.1 792.75,558.25 795.6,556.75 797.5,556 802.05,554.25 806,552.55 807.75,550.85L841.5,515.95Q842.1,515.35 841.7,512.7 841.5,510.05 841.9,509.45 842.45,508.9 847.05,508.9L865.05,506.25Q867.15,506.05 870.4,503.4 872.25,502.05 875.3,499.4 876.85,503 879.7,510.05 882.35,515.95 885.95,518.8 890.1,522.2 892.95,527.9 894.65,531.3 897.7,539.1 898.3,540.4 897.5,544.6 897.15,546.7 896.4,550.1 895.8,554.45 896.2,555.05 896.55,555.6 900.35,556.55 904,557.3 904.95,557.1 905.7,556.75 908.35,553.7L915.95,544.2Q920.5,558.25 921.65,562.25 924.3,572.1 924.85,580.65 924.85,581.25 925.8,590.9 926.55,597.2 926.2,600.95 926,602.85 924.65,610.85 923.55,618.25 924.85,619.6L939.5,635.15Q941.35,637.25 943.1,644.05 944.05,647.65 945.55,653.75 947.65,660 948.4,661.35 949.9,664.2 953.35,667.05 960.35,672.55 961.1,673.1 965.5,675.95 969.85,676.7 965.5,667.6 964.35,663.05 963.75,660.95 964.15,655.1 964.35,649.75 963.4,647.3 962.45,645 959.6,641.8 956.95,639.15 954.65,637.4 950.5,634.75 948,633.25 943.65,630 942.9,627.75 939.5,612.55 937.75,612.55 934.55,612.75 934.35,612.55 933.8,612.15 933.6,609.35 933.2,607.05 933.2,605.9 933,604 933.4,602.7 935.5,597.75 936.45,595.3 938.15,591.1 938.35,587.7 938.9,580.1 939.1,579.5 939.85,577.8 945.55,577.6L944.8,583.5Q950.5,583.7 955.05,586.55 958.85,588.8 963.75,594.15L973.85,604.95Q974.95,606.1 974,610.45 973.1,614.85 974.95,616.75 987.9,607.05 1005.15,591.1 1007.25,589 1006.85,582.2 1005.9,574.6 1005.75,572.3 1005.55,567.2 1003.65,563.95 1002.9,562.45 998.15,556.75 990.55,547.25 987.3,542.15L980.65,531.3Q980.1,530.55 981.45,526.75 983.15,522.75 983.35,522 984.3,518.95 989.6,515 992.45,512.9 997.55,509.65 1000.8,507.2 1005.55,507.95 1009.7,508.7 1013.15,511.35 1010.65,512.7 1009.5,513.1 1011.4,519.7 1012.2,520.1 1014.85,521.45 1015.6,519.35 1016.15,517.85 1015.6,515.35 1015.05,512.9 1015.05,512.3 1015.2,511.55 1017.1,511L1027.75,507Q1035.15,504.35 1061.75,493.55 1068.55,490.7 1074.65,483.3 1078.45,478.9 1085.25,469.4 1089.45,464.3 1094.2,454.4 1096.85,449.1 1101.95,438.5L1089.05,434.7 1099.5,427.3 1085.25,416.85 1098.75,419.3 1090.6,401.45Q1089.25,398.6 1085.85,395.75 1082.05,392.75 1080.15,391L1105.95,369.2Q1098.55,366.9 1095.15,366.15 1089.65,365.2 1084.9,367.65 1080.7,369.55 1080.15,369.55 1079.2,369.4 1076.7,365.75 1074.85,362.55 1068.75,356.1 1067.4,354.55 1070.85,352.5 1072.55,351.55 1075,350.6 1079.2,349.25 1085.25,344.15 1091.55,339.2 1093.8,338.05 1097.05,336.35 1098.55,336.9 1099.3,337.1 1103.1,340.15 1097.05,346.8 1096.65,347.35 1093.45,352.3 1095.15,356.85L1105.95,350.4Q1107.3,349.65 1111.1,346.6 1114.9,343.95 1116.6,343.95 1125.5,349.05 1125.3,349.45 1124.95,350.95 1122.85,355.7 1121.15,360.25 1121.5,361.95 1122.3,365.4 1125.9,365.6 1127.8,365.6 1131.8,364.65 1134.6,364.45 1135.4,366.9 1136.35,369.4 1134.45,371.65 1132.15,374.5 1133.1,376.4 1134.8,379.65 1134.45,381.7L1132.35,395.75Q1137.65,396.15 1140.3,395.75 1143.75,395.4 1147.55,393.3 1152.1,390.85 1153.25,388.15 1153.4,387.4 1154.55,379.45 1155.7,371.1 1151.35,363.7 1148.1,358.35 1140.3,351.9 1144.1,348.3 1151.5,341.3 1157.6,335 1159.85,328.35 1161.6,322.7 1162.55,321.15 1163.85,319.05 1167.65,316.6 1168.2,316.4 1170.9,314.5 1173.55,312.6 1174.3,312.8 1175.05,313 1176.75,315.65 1178.45,318.1 1179.4,317.95 1181.15,317.55 1185.7,316.8 1189.65,316.05 1191.4,314.35L1206.4,299.5Q1211.15,294.75 1215.85,287.55 1216.65,286.6 1224.2,274.45 1229.9,265.35 1231.8,261.55 1235.05,255.1 1236.75,247.5 1242.05,223.95 1244.35,212 1244.9,208 1235.6,201 1226.1,194.15 1223.85,198.55 1221.4,203.65 1219.3,204.4 1218.35,204.6 1211.9,204.05 1211.3,204.05 1209.05,197.4 1208.1,194.75 1207.15,194.35 1206.75,194.15 1203.55,193.8 1200.5,193.6 1199.55,193.2 1197.85,192.65 1196.9,190.35 1209.05,181.65 1211.7,179.55 1219.85,173.3 1225.55,167.4 1234.85,157.7 1254.6,139.1 1256.3,137.4 1262.95,137.6 1266.35,137.8 1271.85,137.95 1281,137.8 1288.95,138.9 1290.1,139.1 1292.35,139.7 1294.175,139.83 1295.275,139.275 1364.316,72.184 1305.9,-10L749.025,-10Q749.067,-8.309 748.1,-6.1 747.2,-4 744.7,0.15 743.95,2.05 745.1,6.05 745.65,8.15 747,11.9 747.2,12.5 753.25,11.55 756.3,10.95 760.1,10.2 764.45,9.45 765.95,9.85 767.7,10.2 771.1,12.7 773.35,14.4 774.15,17.8 774.5,19.7 774.9,24.25L765.95,13.8Q764.85,12.7 761.05,14 756.85,15.7 755.7,15.9 749.25,17.8 751.9,24.05 754.95,31.5 752.7,33.75 747.2,39.85 743.75,43.05 737.7,48.75 733.5,50.25 723.85,53.3 711.7,43.45 713,43.65 717.55,44.55 721.75,45.35 723.05,44.55L737.7,35.65Q739.4,34.5 741.1,30.15 742.8,25 743.4,23.3 744.9,19.7 742.45,17.6 738.65,15.55 736.35,14 734.25,12.7 736.55,0.9 737.894,-6.174 738.15,-10L699.05,-10 M579.75,274.65Q581.25,275.2 584.5,276.75 587.15,277.7 588.65,276 590,274.25 591.9,277.1 593.05,278.45 594.15,280.9 595.1,282.8 594.35,285.85 594,287.35 592.65,290.6 593.8,291 599.1,290.8 601.4,290.8 602.7,294.95 599.7,295.35 597.8,297.25 597.2,297.6 594.35,301.8 594.15,299.35 595.9,297.05 597.2,294.95 599.5,294 597.4,293.05 592.45,292.5 585.45,291.95 584.85,291.75 583.35,291.55 581.65,292.1 579.75,292.9 579,294.2 577.65,296.1 578.8,297.45 579.35,298.2 581.85,299.9 579.75,301.4 577.65,300.3 575,298.75 573.5,299.15 571.2,299.7 574.45,301.8 576.15,302.75 578.2,303.7 578.4,304.85 578.8,309.2 579.15,313.2 579.95,314.15 581.05,315.45 584.7,316.8 586.6,317.55 589.8,318.7 587.7,323.25 588.1,326.3 588.5,328.75 591.15,333.5 591.9,320.2 598.35,324.2 599.1,324.6 599.7,326.85 600.45,329.3 601,329.9 602.15,331.05 604.25,332.75 605.95,334.65 605.35,336.75 603.85,337.5 597.4,336.9 590.95,336.55 591.3,335.95 588.65,341.1 590.95,343.75 591.3,344.3 593.05,344.15 594.75,343.95 595.1,344.3 595.7,344.9 596.05,346.6 596.25,347.55 596.65,349.25 594.55,349.25 593.8,348.9 594.75,350.6 598.15,353.05 599.85,354.2 598.9,358.75 598.15,361.95 598.55,366.35 598.75,369 599.5,374.1 594.55,375.25 591.7,375.85 586.4,376.8 583.9,376L574.25,373Q573.1,372.6 571.6,371.1 570.05,369.4 568.35,369 565.3,368.45 564.35,368.05 563.25,367.5 563.05,364.65 562.45,358.2 563.6,355.15 565.9,349.45 566.65,346.4 567.4,343.2 568.75,342.25 569.1,341.85 573.1,340.7 569.3,339 567.6,336.9 566.1,335.4 563.6,331.05 562.65,329.5 559.6,327.05 556.75,324.75 556,322.85 553.95,318.5 553.35,315.85 552.6,313 552.6,308.25 552.8,305.2 550.3,302.95 547.85,300.85 545,300.65 545.75,299.9 548.05,297.8 550.15,295.7 550.3,294.4 551.1,290.6 551.65,289.85 552.2,288.9 555.05,287.55 556,287.2 560.2,285.85 563.8,284.5 564.2,283.2 565.3,278.45 566.25,278.25 567,277.9 571.4,277.9 572.15,277.7 575.55,275.8 578.4,274.1 579.75,274.65"/></g><g id="Scene 1_8.0"><path fill="#897F74" d="M1295.7,-87.2L1295.7,-74.9Q1304.55,-75.3 1311.85,-77.6 1312.2,-77.8 1312.6,-80.1 1313,-82.55 1312.6,-82.95 1312.4,-83.55 1309.9,-84.1 1307.25,-84.7 1306.65,-84.9 1303.6,-85.85 1301.3,-85.45 1300.15,-85.25 1295.9,-84.1 1295.9,-86.2 1296.1,-87.2 1295.9,-87.2 1295.7,-87.2"/><path fill="#897F74" d="M1314.7,-22.55Q1307.8,-30.8 1306.45,-31.55 1302.8,-33.65 1295.7,-35 1224.6,45.95 1295.7,138.75 1296.85,137.95 1299,136.4 1301.85,134.5 1302.8,134.7L1322.2,138.55 1314.9,143.7 1335.25,141.2Q1336,141.2 1339.85,140.65 1343.3,140.25 1343.65,139.5 1344.6,137.95 1342.3,136.05 1339.45,133.95 1338.5,132.95 1350.95,118.6 1358.05,112.85 1361.1,110.35 1363.4,109.75 1364.75,109.6 1369.95,109.6 1373.95,109.75 1376.65,108.8 1378.55,108.05 1382.8,105.55 1381.65,112.25 1381.65,114.35 1381.45,117.8 1383.35,122.6 1386.05,120.5 1392.55,115.7 1398.3,111.5 1400.6,107.65 1401.6,106.1 1403.7,102.3 1405.8,99.05 1407.9,98.85 1413.3,98.05 1419.6,99.8 1411.95,101.15 1411.75,101.7L1408.5,115.7Q1407.5,119.55 1403.5,122.4 1398.3,125.5 1396,127.2 1388.75,132.6 1387,134.1 1382.8,137.95 1379.9,142.95 1376.85,148.1 1372.45,151 1372.05,151.4 1362.65,156.2 1344.8,164.8 1347.3,193.2 1347.3,194.55 1356.5,237.3 1358.6,234.8 1364.35,228.65 1369.15,222.9 1369.95,218.9 1370.7,214.1 1371.65,213.15 1372.25,212.55 1377.2,211.2 1380.3,210.45 1380.85,207.4 1380.85,203.15 1381.05,200.45 1381.25,197.8 1383.55,196.85 1384.9,196.25 1388.35,195.3 1396.8,192.4 1395.8,190.7 1393.15,184 1396.6,179.95 1398.9,177.25 1406.2,174 1402.9,169.6 1402.55,167.7 1402.35,166.15 1403.9,160.2 1404.45,158.1 1399.85,156.75 1394.5,155.4 1393.15,155.05L1407.5,131.65Q1409.05,129.5 1411.55,129.7 1413.3,129.7 1416.75,130.65 1418.45,130.85 1421.9,128.95 1423.8,128 1426.9,126.05L1427.1,134.1Q1430.9,128.35 1433.05,127.05 1434.95,125.9 1441.25,124.9 1447.6,124.15 1450.1,125.1 1451.8,125.9 1457.2,131.25 1459.5,125.7 1465.45,121.65 1468.9,119.35 1476.55,115.35L1505.7,97.7Q1507.05,96.9 1511.1,97.9 1513.2,98.45 1516.45,99.4 1516.65,99.4 1519.7,100.35 1522.2,100.95 1522.95,100.55 1523.55,100.35 1525.1,98.25 1526.8,96.35 1526.4,95.95L1521.8,89.25Q1519.9,85.8 1519.7,81.6 1519.5,77.95 1516.65,75.45 1512.6,73.15 1510.5,71.6 1513,71.05 1523.55,69.1 1532.95,66.6 1533.15,63.15 1532.95,58.35 1533.15,55.5 1533.3,50.5 1535.6,50.15 1539.45,49.55 1539.45,53.95 1539.25,58.55 1540.4,58.75L1556.15,59.9Q1559.2,60.1 1560.15,63.15 1560.75,64.9 1561.5,69.7 1562.1,71.6 1565.75,71.2 1569.95,70.65 1571.3,71.6 1574.55,74.1 1576.85,75.05 1578.75,75.85 1583.2,76.4 1582.05,72.95 1581.65,71.2 1580.9,68.15 1582.8,67.2 1585.65,66.05 1586.05,64.3 1586.05,64.15 1586.25,58.95L1591.45,60.3Q1595.05,61.05 1596.6,60.7 1598.5,60.1 1601.8,57.2 1603.3,55.7 1606.2,52.8 1601.8,48.8 1599.5,46.7 1595.25,42.85 1592,41.7 1583.95,38.8 1572.65,38.8L1575.3,48.4Q1570.15,48.4 1568.6,46.1 1568.4,45.7 1565.55,37.85 1563.6,32.85 1561.9,31.15 1560.75,30 1555.75,26.9 1538.9,17.35 1525.25,10.8 1516.25,5.85 1511.45,3.35 1503,-0.7 1496.9,-1.25L1458.9,-4.35 1461.4,13.5Q1453.35,15.4 1450.85,14.45 1448.75,13.7 1445.5,10.05 1440.9,4.7 1440.7,4.5 1437.8,1.6 1437.05,1.6 1436.5,1.6 1433.05,4.1 1431.3,5.45 1428.05,4.85 1424.4,3.9 1422.65,3.7 1416.15,2.55 1410.95,2.75 1406.35,2.95 1399.3,4.1 1394.3,5.05 1388.75,3.55L1378.35,0.1Q1379.5,-3.95 1379.5,-5.3 1379.7,-7.2 1378.55,-10.65 1377.6,-13.75 1375.9,-14.5 1373,-15.25 1370.9,-15.85 1363.8,-18.35 1360.35,-19.3 1354.2,-20.85 1349.6,-20.05L1323.15,-15.65Q1320.85,-15.25 1314.7,-22.55"/><path fill="#897F74" d="M1519.9,-12.95L1528.9,-15.45Q1530.05,-15.85 1531.8,-15.25 1533.5,-14.9 1534.45,-15.05 1543.1,-16.6 1543.3,-16.6 1547.5,-17.75 1550.6,-21.2 1548.1,-23.7 1546.95,-24.65 1544.65,-26.4 1542.55,-26.6L1528.9,-27.15Q1527,-27.35 1523.35,-25.45 1519.5,-23.3 1518,-22.75 1517.2,-22.55 1519.9,-12.95"/><path fill="#897F74" d="M1589.7,83.3Q1588.55,84.25 1589.15,86.55 1589.7,88.3 1590.85,89.25 1592.95,91 1597.75,90.2 1601.95,89.45 1603.3,91.15 1606,94.45 1608.7,94.6 1611.95,94.8 1613.5,90.2 1608.9,87.7 1606.4,86.35 1601.95,84.05 1599.1,83.9 1590.3,82.75 1589.7,83.3"/></g><defs/></svg>