<?xml version="1.0" encoding="utf-8"?><svg xmlns:xlink="http://www.w3.org/1999/xlink" id="Scene_1" image-rendering="auto" baseProfile="basic" version="1.1" x="0px" y="0px" width="150" height="150" viewBox="0 0 150 150" xmlns="http://www.w3.org/2000/svg"><g><g id="Monogram_Teamatrix_cs5_-_Copy.ai_Cherry_Japonais_.__3CCompound_Path.__3E" transform="matrix(0.397 0 0 0.397 39.7 35.25)" opacity="0.6"><path fill="#E9BDC9" d="M177.8,58.05Q210.1,9.3 204.25,1.95 200.95,-2.2 188.6,2.75 180.1,6.2 160.95,17 137.1,30.5 128.6,34.75 110.25,44 98.85,46.15 91.4,47.55 76.5,46.35 73.7,46.15 49.2,43.45 32.8,41.65 24.75,41.85 13.6,42.2 10.95,46.15 6.65,52.6 9.8,78.3 10.35,82.6 16.45,119 17.35,124.5 14.15,135.35 12.55,140.65 6.95,155.75 2.2,168.7 0.85,174.75 -1.2,183.8 1.6,186.85 5.6,191.25 14.3,188.75 20.35,187.05 31.85,180.7 46.15,172.8 50,171.1 59.55,166.85 64.4,168.45 71,170.6 77.8,175.65 81.5,178.4 88.7,185 94.95,190.75 98.1,192.7 102.95,195.75 107,194.95 115.35,193.35 125,164.35 127.55,156.65 132.45,139.7 136.95,124.25 139.05,118.3 141.05,112.7 153.35,94.25 160.55,83.5 177.8,58.05"/></g></g><defs/></svg>