<?xml version="1.0" encoding="utf-8"?><svg xmlns:xlink="http://www.w3.org/1999/xlink" id="Scene_1" image-rendering="auto" baseProfile="basic" version="1.1" x="0px" y="0px" width="150" height="150" viewBox="0 0 150 150" xmlns="http://www.w3.org/2000/svg"><g><g id="Symbol_1" transform="matrix(1 0 0 1 41.3 50.2)" opacity="0.6"><path fill="#B5C5CD" d="M87.15,29.6Q86.05,27.5 82.35,25.4 78.4,23.15 70.3,20.45 60.9,17.45 56.8,16.05 49.6,13.6 47.15,11.85 38,5.25 33.75,2.9 26.85,-0.95 23.5,0.3 21.6,1.05 20.45,3.35 19.6,5.1 18.85,8.5 18.4,10.4 17.5,14.5 16.6,18 15.4,20.15 13.75,23 10.5,26.8 8.65,28.95 5.05,32.95 2.1,36.35 0.95,38.5 -0.5,41.25 0.25,43.25 0.85,44.95 2.45,45.75 3.55,46.3 6,46.8 8.9,47.45 10.25,47.9 12.75,48.8 14.6,50.5 16.25,52 16.35,57.35 16.4,58.85 16,68.1 15.75,75.1 16.35,78.45 17.2,83.25 20.2,84 23.25,84.8 27.3,79.7 29.95,76.35 34.95,67.5 40.65,57.5 43.25,53.8 48,46.8 52,44.95 54.3,43.85 60.8,42.5 72.5,40.05 72.65,40 78.35,38.65 81.7,37.2 82.45,36.9 83.1,36.55 87.55,34.3 87.55,31.3 87.55,30.45 87.15,29.6"/></g></g><defs/></svg>