<?xml version="1.0" encoding="utf-8"?><svg xmlns:xlink="http://www.w3.org/1999/xlink" id="Scene_1" image-rendering="auto" baseProfile="basic" version="1.1" x="0px" y="0px" width="150" height="150" viewBox="0 0 150 150" xmlns="http://www.w3.org/2000/svg"><g id="Scene 1_0.0"><path fill="#B5C5CD" d="M102.1,92.7Q113.8,90.25 113.95,90.2 119.65,88.85 123,87.4 123.75,87.1 124.4,86.75 128.85,84.5 128.85,81.5 128.85,80.65 128.45,79.8 127.35,77.7 123.65,75.6 119.7,73.35 111.6,70.65 102.2,67.65 98.1,66.25 90.9,63.8 88.45,62.05 79.3,55.45 75.05,53.1 68.15,49.25 64.8,50.5 62.9,51.25 61.75,53.55 60.9,55.3 60.15,58.7 59.7,60.6 58.8,64.7 57.9,68.2 56.7,70.35 55.05,73.2 51.8,77 49.95,79.15 46.35,83.15 43.4,86.55 42.25,88.7 40.8,91.45 41.55,93.45 42.15,95.15 43.75,95.95 44.85,96.5 47.3,97 50.2,97.65 51.55,98.1 54.05,99 55.9,100.7 57.55,102.2 57.65,107.55 57.7,109.05 57.3,118.3 57.05,125.3 57.65,128.65 58.5,133.45 61.5,134.2 64.55,135 68.6,129.9 71.25,126.55 76.25,117.7 81.95,107.7 84.55,104 89.3,97 93.3,95.15 95.6,94.05 102.1,92.7"/></g><defs/></svg>