<?xml version="1.0" encoding="utf-8"?><svg xmlns:xlink="http://www.w3.org/1999/xlink" id="Scene_1" image-rendering="auto" baseProfile="basic" version="1.1" x="0px" y="0px" width="150" height="150" viewBox="0 0 150 150" xmlns="http://www.w3.org/2000/svg"><g id="Scene 1_0.0"><path fill="#99AABF" d="M95.5,81.05Q95.85,78.55 101.95,75.2 105.4,73.3 115.05,69.1 124.2,65.15 127.6,63.15 133.05,59.95 132.4,57.65 131.3,53.7 110.1,54.35 95.1,54.75 75.15,57.2 59.6,59.05 50.5,61.45 38.55,64.55 38.15,68.4 37.55,73.35 45.5,78.9 48.6,81.15 54.65,84.6 58.15,86.7 66.45,91.45 77.6,97.9 82.4,100.15 90.55,103.85 93.4,102.1 95.5,100.85 96.2,98.5 96.7,96.65 96.35,93.45 95.85,89.55 95.6,87.45 95.25,83.7 95.5,81.05"/></g><defs/></svg>