<?xml version="1.0" encoding="utf-8"?><svg xmlns:xlink="http://www.w3.org/1999/xlink" id="Scene_1" image-rendering="auto" baseProfile="basic" version="1.1" x="0px" y="0px" width="150" height="150" viewBox="0 0 150 150" xmlns="http://www.w3.org/2000/svg"><g id="Scene 1_0.0"><path fill="#ECA08F" d="M102,98.2Q104.05,98.2 109.6,98.9 114.65,99.5 117.35,99.4 120.65,99.2 123,98 123.75,97.65 124.35,97.25 127.85,94.9 129.95,90.65 131.7,87 133.6,79.8 134.15,77.7 134.7,75.3 135.65,71.35 137.3,66.6 139.15,61.2 139.35,60.45 140.05,57.75 139.55,56.35 139,54.75 136.65,53.85 134.15,52.85 114.4,55.7 93.25,58.7 91.65,58.65 84.4,58.35 76.1,55.8 71.35,54.35 62.9,50.9 55.6,47.95 52.8,47.35 48.35,46.35 46.35,48.3 44.95,49.7 45.3,52.55 45.6,54.6 47.05,58.45 49.1,63.8 49.45,65.05 50.6,68.85 50.45,71.45 50.25,73.95 47.15,78.95 45.35,81.9 40.9,88.45 37.1,94.3 35.8,97.7 34,102.35 35.8,104.7 36.9,106.1 39.35,105.75 40.8,105.55 44.6,104.2 48.6,102.85 50.7,102.5 54.3,101.85 56.95,102.85 59.7,103.85 62.6,105.75 63.25,106.2 67.35,109.1 70.05,111.05 71.85,111.85 74.3,113 76.75,112.95 81.75,112.9 87.4,107.45 90.3,104.45 91.65,103.1 94.05,100.6 95.6,99.7 98,98.2 102,98.2"/></g><defs/></svg>