<?xml version="1.0" encoding="utf-8"?><svg xmlns:xlink="http://www.w3.org/1999/xlink" id="Scene_1" image-rendering="auto" baseProfile="basic" version="1.1" x="0px" y="0px" width="150" height="150" viewBox="0 0 150 150" xmlns="http://www.w3.org/2000/svg"><g><g id="Symbol_1" transform="matrix(1 0 0 1 34.9 47)" opacity="0.6"><path fill="#ECA08F" d="M104.65,9.35Q104.1,7.75 101.75,6.85 99.25,5.85 79.5,8.7 58.35,11.7 56.75,11.65 49.5,11.35 41.2,8.8 36.45,7.35 28,3.9 20.7,0.95 17.9,0.35 13.45,-0.65 11.45,1.3 10.05,2.7 10.4,5.55 10.7,7.6 12.15,11.45 14.2,16.8 14.55,18.05 15.7,21.85 15.55,24.45 15.35,26.95 12.25,31.95 10.45,34.9 6,41.45 2.2,47.3 0.9,50.7 -0.9,55.35 0.9,57.7 2,59.1 4.45,58.75 5.9,58.55 9.7,57.2 13.7,55.85 15.8,55.5 19.4,54.85 22.05,55.85 24.8,56.85 27.7,58.75 28.35,59.2 32.45,62.1 35.15,64.05 36.95,64.85 39.4,66 41.85,65.95 46.85,65.9 52.5,60.45 55.4,57.45 56.75,56.1 59.15,53.6 60.7,52.7 63.1,51.2 67.1,51.2 69.15,51.2 74.7,51.9 79.75,52.5 82.45,52.4 85.75,52.2 88.1,51 88.85,50.65 89.45,50.25 92.95,47.9 95.05,43.65 96.8,40 98.7,32.8 99.25,30.7 99.8,28.3 100.75,24.35 102.4,19.6 104.25,14.2 104.45,13.45 105.15,10.75 104.65,9.35"/></g></g><defs/></svg>