<?xml version="1.0" encoding="utf-8"?><svg xmlns:xlink="http://www.w3.org/1999/xlink" id="Scene_1" image-rendering="auto" baseProfile="basic" version="1.1" x="0px" y="0px" width="150" height="150" viewBox="0 0 150 150" xmlns="http://www.w3.org/2000/svg"><g><g id="Symbol_1" transform="matrix(1 0 0 1 35.45 21.95)" opacity="0.6"><path fill="#B9A8D1" d="M87.55,69.55Q87.05,68.85 86.35,68.15 83.3,64.9 75.7,59 66.55,52.05 61.95,48.4 53.85,41.95 49.5,37.3 46,33.55 42.2,26.35 41.05,24.05 36.2,13.65 32.8,6.35 30.7,3.5 27.75,-0.55 25,0.1 23,0.55 21.9,3.95 21.2,6.05 20.55,11.35 19.75,16.95 19.15,19.2 18.05,23.15 16.1,24.45 13.8,25.85 11.05,26.95 9.45,27.5 6.7,28.4 4.4,29.2 3.2,30.05 1.6,31.2 0.6,33.15 -1.15,36.95 2.15,45 3.1,47.15 5,51.45 6.55,55.1 6.95,57.2 7.75,61.55 7.25,68.6 7.05,72.2 5.95,80.95 5.1,88.3 5.1,91.4 5.05,96 6.55,97.05 9,98.65 12.6,96.85 14.7,95.8 20.2,91.45 26.15,86.75 30,84.5 36.35,80.8 42.65,79.75 45.1,79.3 52.95,79.55 65.25,79.8 67.85,79.8 82.85,79.75 87.55,76.8 88.95,75.9 89.45,74.8 90.3,72.85 87.55,69.55"/></g></g><defs/></svg>