<?xml version="1.0" encoding="utf-8"?><svg xmlns:xlink="http://www.w3.org/1999/xlink" id="Scene_1" image-rendering="auto" baseProfile="basic" version="1.1" x="0px" y="0px" width="150" height="150" viewBox="0 0 150 150" xmlns="http://www.w3.org/2000/svg"><g id="Scene 1_0.0"><path fill="#B9A8D1" d="M97.4,70.35Q89.3,63.9 84.95,59.25 81.45,55.5 77.65,48.3 76.5,46 71.65,35.6 68.25,28.3 66.15,25.45 63.2,21.4 60.45,22.05 58.45,22.5 57.35,25.9 56.65,28 56,33.3 55.2,38.9 54.6,41.15 53.5,45.1 51.55,46.4 49.25,47.8 46.5,48.9 44.9,49.45 42.15,50.35 39.85,51.15 38.65,52 37.05,53.15 36.05,55.1 34.3,58.9 37.6,66.95 38.55,69.1 40.45,73.4 42,77.05 42.4,79.15 43.2,83.5 42.7,90.55 42.5,94.15 41.4,102.9 40.55,110.25 40.55,113.35 40.5,117.95 42,119 44.45,120.6 48.05,118.8 50.15,117.75 55.65,113.4 61.6,108.7 65.45,106.45 71.8,102.75 78.1,101.7 80.55,101.25 88.4,101.5 100.7,101.75 103.3,101.75 118.3,101.7 123,98.75 124.4,97.85 124.9,96.75 125.75,94.8 123,91.5 122.5,90.8 121.8,90.1 118.75,86.85 111.15,80.95 102,74 97.4,70.35"/></g><defs/></svg>