<?xml version="1.0" encoding="utf-8"?><svg xmlns:xlink="http://www.w3.org/1999/xlink" id="Scene_1" image-rendering="auto" baseProfile="basic" version="1.1" x="0px" y="0px" width="150" height="150" viewBox="0 0 150 150" xmlns="http://www.w3.org/2000/svg"><g id="Scene 1_0.0"><path fill="#CDC9BB" d="M118.05,94.95Q116.55,87.35 116.2,84.85 115.45,79.15 116.1,75.55 116.85,71.65 119.55,67.4 121.15,64.75 124.65,60.4 128,56.25 128.95,54.65 130.6,51.85 129.85,50.05 128.25,46.45 107.75,49.5 92.1,51.8 72.7,56.6 58.65,60.1 48.7,64.5 37.2,69.5 37.2,73.35 37.2,78.3 49.95,87.3 61.1,95.2 74.1,101.1 89.65,108.25 99.2,110.9 113.9,115.05 118,110.25 119.65,108.4 119.4,104.05 119.3,101.05 118.05,94.95"/></g><defs/></svg>