<?xml version="1.0" encoding="utf-8"?><svg xmlns:xlink="http://www.w3.org/1999/xlink" id="Scene_1" image-rendering="auto" baseProfile="basic" version="1.1" x="0px" y="0px" width="150" height="150" viewBox="0 0 150 150" xmlns="http://www.w3.org/2000/svg"><g><g id="Symbol_1" transform="matrix(1 0 0 1 37.2 48.1)" opacity="0.6"><path fill="#CDC9BB" d="M82.35,19.3Q83.95,16.65 87.45,12.3 90.8,8.15 91.75,6.55 93.4,3.75 92.65,1.95 91.05,-1.65 70.55,1.4 54.9,3.7 35.5,8.5 21.45,12 11.5,16.4 0,21.4 0,25.25 0,30.2 12.75,39.2 23.9,47.1 36.9,53 52.45,60.15 62,62.8 76.7,66.95 80.8,62.15 82.45,60.3 82.2,55.95 82.1,52.95 80.85,46.85 79.35,39.25 79,36.75 78.25,31.05 78.9,27.45 79.65,23.55 82.35,19.3"/></g></g><defs/></svg>