<?xml version="1.0" encoding="utf-8"?><svg xmlns:xlink="http://www.w3.org/1999/xlink" id="Scene_1" image-rendering="auto" baseProfile="basic" version="1.1" x="0px" y="0px" width="150" height="150" viewBox="0 0 150 150" xmlns="http://www.w3.org/2000/svg"><g id="Scene 1_0.0"><path fill="#FACD96" d="M96.85,60.6Q95.6,58.1 86.9,55.55 81.95,54.15 79.5,53.45 75.05,52.25 72.7,51.25 69.3,49.8 63.75,45.9 63.15,45.45 54.1,38.7 48.45,34.4 45.5,32.85 41.45,30.65 39.9,31.8 38.25,32.9 38.65,36.95 38.95,39.55 40.55,45.55 42.25,52.25 42.7,54.9 43.5,59.85 42.45,62.2 41.4,64.5 37.4,67 35.95,67.9 29.5,71.25 24.55,73.75 22.55,75.55 19.7,78.05 20.3,80.65 20.9,83.15 26.35,84.4 30.3,85.35 38.45,85.85 50.1,86.55 51.2,86.7 57.65,87.35 59.5,88.75 61.85,90.6 64.45,93.95 65.6,95.4 68.7,100.05 71.15,103.6 72.55,105.1 74.5,107.15 76.15,107.15 79.85,107.15 84.6,97.45 86.2,94.3 91.15,81.95 94.35,75 95.75,71 98.35,63.8 96.85,60.6"/></g><defs/></svg>