<?xml version="1.0" encoding="utf-8"?><svg xmlns:xlink="http://www.w3.org/1999/xlink" id="Scene_1" image-rendering="auto" baseProfile="basic" version="1.1" x="0px" y="0px" width="150" height="150" viewBox="0 0 150 150" xmlns="http://www.w3.org/2000/svg"><g><g id="Symbol_1" transform="matrix(1 0 0 1 20.2 31.4)" opacity="0.6"><path fill="#FACD96" d="M66.7,24.15Q61.75,22.75 59.3,22.05 54.85,20.85 52.5,19.85 49.1,18.4 43.55,14.5 42.95,14.05 33.9,7.3 28.25,3 25.3,1.45 21.25,-0.75 19.7,0.4 18.05,1.5 18.45,5.55 18.75,8.15 20.35,14.15 22.05,20.85 22.5,23.5 23.3,28.45 22.25,30.8 21.2,33.1 17.2,35.6 15.75,36.5 9.3,39.85 4.35,42.35 2.35,44.15 -0.5,46.65 0.1,49.25 0.7,51.75 6.15,53 10.1,53.95 18.25,54.45 29.9,55.15 31,55.3 37.45,55.95 39.3,57.35 41.65,59.2 44.25,62.55 45.4,64 48.5,68.65 50.95,72.2 52.35,73.7 54.3,75.75 55.95,75.75 59.65,75.75 64.4,66.05 66,62.9 70.95,50.55 74.15,43.6 75.55,39.6 78.15,32.4 76.65,29.2 75.4,26.7 66.7,24.15"/></g></g><defs/></svg>