<?xml version="1.0" encoding="utf-8"?><svg xmlns:xlink="http://www.w3.org/1999/xlink" id="Scene_1" image-rendering="auto" baseProfile="basic" version="1.1" x="0px" y="0px" width="150" height="150" viewBox="0 0 150 150" xmlns="http://www.w3.org/2000/svg"><g><g id="Symbol_1" transform="matrix(1 0 0 1 39.1 26.55)" opacity="0.6"><path fill="#B8C886" d="M57.75,24.9Q55.4,22.5 53.6,18 52.9,16.3 50.8,10.05 49.25,5.35 47.95,3.25 46.2,0.3 43.75,0 39.4,-0.55 29.8,15.45 20.75,30.4 15.7,44.75 14.05,49.35 11.25,58.65 7.75,70.15 5.15,80.25 -2.3,109 1,111.5 3.35,113.3 8.15,108.85 11.6,105.65 18.45,96.85 28.35,84.2 30.8,81.3 38.25,72.45 43.95,68 47.2,65.45 54.25,61.15 58.25,58.75 66.3,53.9 72.9,49.75 75.9,46.95 79.7,43.45 79.1,41.2 78.7,39.7 77.1,38.65 76.75,38.4 72.9,36.5 65.05,32.55 57.75,24.9"/></g></g><defs/></svg>