<?xml version="1.0" encoding="utf-8"?><svg xmlns:xlink="http://www.w3.org/1999/xlink" id="Scene_1" image-rendering="auto" baseProfile="basic" version="1.1" x="0px" y="0px" width="150" height="150" viewBox="0 0 150 150" xmlns="http://www.w3.org/2000/svg"><g id="Scene 1_0.0"><path fill="#B8C886" d="M87.05,29.8Q85.3,26.85 82.85,26.55 78.5,26 68.9,42 59.85,56.95 54.8,71.3 53.15,75.9 50.35,85.2 46.85,96.7 44.25,106.8 36.8,135.55 40.1,138.05 42.45,139.85 47.25,135.4 50.7,132.2 57.55,123.4 67.45,110.75 69.9,107.85 77.35,99 83.05,94.55 86.3,92 93.35,87.7 97.35,85.3 105.4,80.45 112,76.3 115,73.5 118.8,70 118.2,67.75 117.8,66.25 116.2,65.2 115.85,64.95 112,63.05 104.15,59.1 96.85,51.45 94.5,49.05 92.7,44.55 92,42.85 89.9,36.6 88.35,31.9 87.05,29.8"/></g><defs/></svg>