<?xml version="1.0" encoding="utf-8"?><svg xmlns:xlink="http://www.w3.org/1999/xlink" id="Scene_1" image-rendering="auto" baseProfile="basic" version="1.1" x="0px" y="0px" width="150" height="150" viewBox="0 0 150 150" xmlns="http://www.w3.org/2000/svg"><g id="Scene 1_0.0"><path fill="#EE8B9E" d="M97.1,28.95Q94.6,24.3 91.65,23.45 88.3,22.4 85.45,27.35 83.75,30.3 80.8,38.95 77.75,47.75 75.9,51.2 72.75,56.95 68.95,57.2 66.9,57.3 63.9,57.1 60.6,56.9 59.6,56.95 55.3,57 53.35,60.05 52.1,62.05 52.05,65.35 52.05,68.75 53.3,72.75 56.2,82.05 64.15,90 73.65,99.45 87.15,104.5 98.65,108.8 111.6,109.45 117.7,109.7 123,109.2 127.45,108.8 131.35,107.8 139.6,105.8 140.65,102.8 141.85,99.35 138.15,95 135.65,92.05 128.6,86.7 125.4,84.25 123,82.3 119.15,79.2 117.35,77.5 111.5,72 109.65,67.15 107.75,62.15 105.3,53.5 101.9,41.45 101.4,39.85 99.15,32.65 97.1,28.95"/></g><defs/></svg>