<?xml version="1.0" encoding="utf-8"?><svg xmlns:xlink="http://www.w3.org/1999/xlink" id="Scene_1" image-rendering="auto" baseProfile="basic" version="1.1" x="0px" y="0px" width="150" height="150" viewBox="0 0 150 150" xmlns="http://www.w3.org/2000/svg"><g><g id="Symbol_1" transform="matrix(1 0 0 1 52.05 23.25)" opacity="0.6"><path fill="#EE8B9E" d="M88.6,79.55Q89.8,76.1 86.1,71.75 83.6,68.8 76.55,63.45 73.35,61 70.95,59.05 67.1,55.95 65.3,54.25 59.45,48.75 57.6,43.9 55.7,38.9 53.25,30.25 49.85,18.2 49.35,16.6 47.1,9.4 45.05,5.7 42.55,1.05 39.6,0.2 36.25,-0.85 33.4,4.1 31.7,7.05 28.75,15.7 25.7,24.5 23.85,27.95 20.7,33.7 16.9,33.95 14.85,34.05 11.85,33.85 8.55,33.65 7.55,33.7 3.25,33.75 1.3,36.8 0.05,38.8 0,42.1 0,45.5 1.25,49.5 4.15,58.8 12.1,66.75 21.6,76.2 35.1,81.25 46.6,85.55 59.55,86.2 65.65,86.45 70.95,85.95 75.4,85.55 79.3,84.55 87.55,82.55 88.6,79.55"/></g></g><defs/></svg>