<?xml version="1.0" encoding="utf-8"?><svg xmlns:xlink="http://www.w3.org/1999/xlink" id="Scene_1" image-rendering="auto" baseProfile="basic" version="1.1" x="0px" y="0px" width="150" height="150" viewBox="0 0 150 150" xmlns="http://www.w3.org/2000/svg"><g><g id="Symbol_1" transform="matrix(1 0 0 1 38.6 31.7)" opacity="0.6"><path fill="#F3A36A" d="M49.45,30.5Q46.85,25.7 43.85,19.05 40.75,12.1 39.4,9.3 37.15,4.6 35.55,2.55 33.6,0 31.7,0 29.75,0.05 28.65,2.75 28.05,4.2 27,9.2 25.85,14.1 24.75,16.75 23,20.9 20.25,22.9 16.7,25.5 12.8,26.65 10.3,27.4 6.7,27.8 3.3,28.1 2.35,28.5 0.55,29.15 0.1,31 -0.75,34.45 6.05,40.6 7,41.5 12.7,46.35 17.15,50.15 19.8,52.8 24.05,57.05 29.9,63.55 34.7,68.9 36,70 39.6,73.1 44,72.4 48.35,71.75 49.2,68.05 49.45,66.85 49.5,65.1 49.55,62.8 49.55,62.45 49.8,59.75 52.15,59.2 53.15,59 57.75,61.6 60.5,63.2 67.35,67.3 80.95,75 83.35,71.85 84.55,70.3 80.65,65.55 78.1,62.45 70.75,55.05 62.1,46.35 58.65,42.55 52.15,35.4 49.45,30.5"/></g></g><defs/></svg>