<?xml version="1.0" encoding="utf-8"?><svg xmlns:xlink="http://www.w3.org/1999/xlink" id="Scene_1" image-rendering="auto" baseProfile="basic" version="1.1" x="0px" y="0px" width="150" height="150" viewBox="0 0 150 150" xmlns="http://www.w3.org/2000/svg"><g id="Scene 1_0.0"><path fill="#F3A36A" d="M97.25,74.25Q90.75,67.1 88.05,62.2 85.45,57.4 82.45,50.75 79.35,43.8 78,41 75.75,36.3 74.15,34.25 72.2,31.7 70.3,31.7 68.35,31.75 67.25,34.45 66.65,35.9 65.6,40.9 64.45,45.8 63.35,48.45 61.6,52.6 58.85,54.6 55.3,57.2 51.4,58.35 48.9,59.1 45.3,59.5 41.9,59.8 40.95,60.2 39.15,60.85 38.7,62.7 37.85,66.15 44.65,72.3 45.6,73.2 51.3,78.05 55.75,81.85 58.4,84.5 62.65,88.75 68.5,95.25 73.3,100.6 74.6,101.7 78.2,104.8 82.6,104.1 86.95,103.45 87.8,99.75 88.05,98.55 88.1,96.8 88.15,94.5 88.15,94.15 88.4,91.45 90.75,90.9 91.75,90.7 96.35,93.3 99.1,94.9 105.95,99 119.55,106.7 121.95,103.55 123.15,102 119.25,97.25 116.7,94.15 109.35,86.75 100.7,78.05 97.25,74.25"/></g><defs/></svg>