<?xml version="1.0" encoding="utf-8"?><svg xmlns:xlink="http://www.w3.org/1999/xlink" id="Scene_1" image-rendering="auto" baseProfile="basic" version="1.1" x="0px" y="0px" width="150" height="150" viewBox="0 0 150 150" xmlns="http://www.w3.org/2000/svg"><g id="Scene 1_0.0"><path fill="#B1BCB2" d="M105.75,42.1Q109.05,32.9 109.85,27.7 110.85,20.9 108.5,17.5 105.4,13.15 101.05,16 97.9,18.15 92.85,25.35 87.2,33.8 84.5,37.3 79.85,43.3 76.75,43.6 74,43.9 71.3,43.1 69.7,42.7 67.05,41.45 64.55,40.2 63.35,39.95 61.35,39.5 59.65,40.2 57.8,41 56.55,45.3 55.35,49.25 54.8,55.4 53.7,68.7 55.9,79.75 58.45,92.75 64.35,104.6 71.15,118.35 77.25,118.5 83.05,118.6 87.2,106.75 90.1,98.65 94.5,76.3 95.9,69.2 99.55,58.95 103.85,47.4 105.75,42.1"/></g><defs/></svg>