<?xml version="1.0" encoding="utf-8"?><svg xmlns:xlink="http://www.w3.org/1999/xlink" id="Scene_1" image-rendering="auto" baseProfile="basic" version="1.1" x="0px" y="0px" width="150" height="150" viewBox="0 0 150 150" xmlns="http://www.w3.org/2000/svg"><g><g id="Monogram_Teamatrix_cs5_-_Copy.ai_Uji_Sencha_.__3CCompound_Path.__3E" transform="matrix(0.397 0 0 0.397 49.6 20.15)" opacity="0.6"><path fill="#ACC6C9" d="M66.2,0.1Q60.95,1.15 57.25,12.1 54.65,19.65 51.8,36.25 48.25,56.4 47.05,61.5 44.05,73.9 40.2,76.9 36.4,79.85 30.65,79.95 27.75,80 20.2,78.85 13.7,77.85 10.45,78.4 5.6,79.2 2.95,83.35 -3.4,93.4 3.45,129.5 9.95,163.85 21.95,190.5 35.8,221.45 56.8,248.4 79,276.75 89.7,274.6 95.15,273.5 96,262.9 96.6,255.55 94.95,239.75 92.9,220.45 92.75,215.85 92.4,204.25 95.75,201.85 99.25,199.35 107.7,200.4 116.05,201.4 119.5,198.65 122.6,196.2 124.85,189.35 127.4,181.7 127.9,171 129.2,143.8 117.4,109.4 99.25,56.25 93.35,41.55 75.85,-1.85 66.2,0.1"/></g></g><defs/></svg>