<?xml version="1.0" encoding="utf-8"?><svg xmlns:xlink="http://www.w3.org/1999/xlink" id="Scene_1" image-rendering="auto" baseProfile="basic" version="1.1" x="0px" y="0px" width="100" height="100" viewBox="0 0 100 100" xmlns="http://www.w3.org/2000/svg"><g id="Scene 1_1.0"><path fill="#F1EFEE" d="M51.65,47.2Q52.25,46.85 53,47.05 53.85,47.4 54.1,48.25L55.1,47.95Q54.7,46.55 53.3,46.15 52.1,45.8 51.1,46.3 50.1,46.8 49.7,48 49.3,49.15 49.85,50.15 50.35,51.2 51.55,51.55 53.15,52.05 54.25,51.1L53.6,50.3Q52.8,50.9 51.85,50.65 51.1,50.4 50.8,49.75 50.5,49.1 50.75,48.3 51,47.55 51.65,47.2"/><path fill="#F1EFEE" d="M61,48.9L57.5,47.65 55.65,52.85 59.2,54.15 59.55,53.25 57,52.35 57.45,51.05 59.55,51.8 59.85,50.95 57.8,50.15 58.25,48.95 60.7,49.8 61,48.9"/><path fill="#F1EFEE" d="M19,43.95L20.1,44.1 20.45,41.9 22.8,42.25 22.45,44.45 23.55,44.65 24.35,39.2 23.3,39 22.95,41.3 20.55,40.95 20.9,38.65 19.85,38.5 19,43.95"/><path fill="#F1EFEE" d="M27.4,42.05L27.65,40.7 30.2,41.2 30.4,40.25 26.75,39.6 25.75,45 29.5,45.7 29.65,44.75 27,44.3 27.25,42.9 29.4,43.35 29.6,42.45 27.4,42.05"/><path fill="#F1EFEE" d="M74.35,54.45L73.35,54 71.95,57.15Q71.45,58.25 70.45,57.8 69.35,57.35 69.9,56.2L71.3,53.1 70.3,52.65 68.9,55.8Q68,57.75 70.05,58.7 70.95,59.1 71.7,58.85 72.5,58.55 72.95,57.6L74.35,54.45"/><path fill="#F1EFEE" d="M74.1,59.15Q74.2,60.55 75.55,61.25 77.3,62.1 78,60.65 78.45,59.7 77.3,58.35L77.05,58.05Q76.6,57.5 76.75,57.1 77,56.65 77.6,56.9 78.05,57.15 78.15,57.75L79.1,57.6Q78.95,56.55 77.95,56.1 77.3,55.75 76.7,55.9 76.1,56.05 75.8,56.7 75.35,57.6 76.35,58.8L76.55,59.05Q77.15,59.8 77,60.2 76.75,60.75 75.95,60.4 75.15,60 75.15,59.1L74.1,59.15"/><path fill="#F1EFEE" d="M35.225,43.075Q35.21,43.138 35.2,43.2 34.95,44.1 33.9,43.8L33.15,43.65 33.35,42.65Q32.91,42.038 32.275,42.4L31.45,46.1 32.55,46.35 32.95,44.5 33.7,44.7 34.45,46.75 35.65,47.05 34.85,44.75Q36,44.6 36.3,43.45 36.313,43.388 36.325,43.325 35.971,42.711 35.225,43.075"/><path fill="#F1EFEE" d="M42.075,44.725Q41.784,44.095 41.1,44.45 40.913,44.88 40.35,44.75L39.3,44.5 39.45,43.975Q39.238,43.345 38.45,43.675L37.925,45.65Q38.736,45.316 38.95,45.975L39.1,45.3 40.25,45.6Q41.05,45.8 40.85,46.55 41.481,46.337 41.925,46.875 42.114,45.88 41.15,45.35 41.814,45.233 42.075,44.725"/><path fill="#F1EFEE" d="M45.55,46.925Q45.303,46.299 44.675,46.625L42.8,48.85 43.85,49.15 44.45,48.4 46.5,49 46.6,49.95 47.7,50.25 47.325,47.525Q46.923,47.021 46.35,47.2L46.45,48.2 44.95,47.75 45.55,46.925"/><path fill="#F1EFEE" d="M67.35,54.25Q67.226,53.223 66.325,53.75 66.288,53.856 66.25,53.95 65.95,54.7 65.3,55 64.6,55.3 63.85,55 63.15,54.7 62.85,54.05 62.55,53.35 62.9,52.6 62.98,52.401 63.075,52.225 62.96,51.391 62.05,51.75 61.935,51.933 61.85,52.15 61.35,53.3 61.85,54.4 62.35,55.45 63.5,55.9 64.65,56.35 65.7,55.95 66.8,55.5 67.3,54.35 67.32,54.298 67.35,54.25"/></g><g id="Scene 1_0.0"><path fill="#F1EFEE" d="M32.275,42.4Q32.618,43.012 33.35,42.65L33.5,41.9 34.3,42.05Q35.277,42.283 35.225,43.075 35.775,43.694 36.325,43.325 36.628,41.537 34.5,41.15L32.65,40.75 32.275,42.4"/><path fill="#F1EFEE" d="M41.1,44.45Q41.292,44.981 42.075,44.725 42.156,44.575 42.2,44.4 42.3,43.85 42,43.35 41.65,42.85 40.9,42.65L38.85,42.1 38.45,43.675Q38.851,44.322 39.45,43.975L39.65,43.25 40.6,43.5Q41.25,43.65 41.15,44.3 41.13,44.38 41.1,44.45"/><path fill="#F1EFEE" d="M41.925,46.875Q41.128,47.146 40.85,46.55 40.65,47.35 39.85,47.15L38.75,46.85 38.95,45.975Q38.18,46.156 37.925,45.65L37.45,47.45 39.7,48.05Q41.5,48.45 41.9,46.95 41.909,46.912 41.925,46.875"/><path fill="#F1EFEE" d="M44.675,46.625Q44.917,47.264 45.55,46.925L46.25,46 46.35,47.2Q46.639,47.859 47.325,47.525L46.85,44.2 46.75,44.15 44.675,46.625"/><path fill="#F1EFEE" d="M66.325,53.75Q66.54,54.495 67.35,54.25 67.727,53.15 67.25,52.1 66.75,51.05 65.6,50.6 64.5,50.2 63.4,50.6 62.508,50.924 62.05,51.75 62.164,52.485 63.075,52.225 63.372,51.77 63.85,51.55 64.5,51.2 65.25,51.5 66,51.8 66.3,52.5 66.519,53.112 66.325,53.75"/></g><defs/></svg>