<?xml version="1.0" encoding="utf-8"?><svg xmlns:xlink="http://www.w3.org/1999/xlink" id="Scene_1" image-rendering="auto" baseProfile="basic" version="1.1" x="0px" y="0px" width="100" height="100" viewBox="0 0 100 100" xmlns="http://www.w3.org/2000/svg"><g id="Scene 1_1.0"><path fill="#F1EFEE" d="M41.4,46.55L41,47.35 38.85,47.2 38.55,46.3 37.4,46.2 38.25,48.575Q38.763,49.02 39.275,48.7L39.05,48 40.65,48.1 40.25,48.825Q40.448,49.261 41.225,48.925L42.5,46.6 41.4,46.55"/><path fill="#F1EFEE" d="M45.15,46.75L43.9,46.7 45.1,48.8Q43.942,49.186 43.9,50.275 44.45,50.811 45,50.35 45.138,49.552 46.2,49.6L46.95,49.6 46.9,50.475Q47.164,50.989 48,50.55L48.2,46.9 47.1,46.85 47,48.75 46.2,48.7 45.15,46.75"/><path fill="#F1EFEE" d="M50.2,46.95L50.2,47.9 52.9,47.95 52.85,49.35 50.65,49.3 50.65,50.2 52.85,50.25 52.85,51.55 50.25,51.55 50.2,52.5 53.9,52.55 54,47.05 50.2,46.95"/><path fill="#F1EFEE" d="M56.3,46.95L56.2,46.95 56.3,52.55 57.3,52.55 57.2,49.1Q57.2,49.25 57.9,49.85L60.7,52.55 60.8,52.55 60.75,46.95 59.75,47 59.9,50.45 59.2,49.65 56.3,46.95"/><path fill="#F1EFEE" d="M70.45,48.95L69.25,47.75 69.15,47.75 67.6,50 67.4,46.65 66.35,46.75 66.75,52.3 66.85,52.3 69.3,49.05 72.2,51.9 72.3,51.9 71.9,46.35 70.85,46.4 71.15,49.75Q70.8,49.25 70.45,48.95"/><path fill="#F1EFEE" d="M64.1,46.85L62.95,46.9 63.2,52.4 64.3,52.35 64.1,46.85"/><path fill="#F1EFEE" d="M31.95,46.6L34.45,46.85 33.95,51.4 35.05,51.5 35.65,46.05 32.05,45.65 31.95,46.6"/></g><g id="Scene 1_0.0"><path fill="#F1EFEE" d="M39.275,48.7Q38.95,48.17 38.25,48.575L39.45,51.95 39.55,52 41.225,48.925Q40.93,48.393 40.25,48.825L40.1,49.1 39.7,50.1Q39.7,49.75 39.4,49.05L39.275,48.7"/><path fill="#F1EFEE" d="M48,50.55Q47.45,50.034 46.9,50.475L46.85,51.4 46.1,51.4Q45,51.35 45,50.4L45,50.35Q44.55,49.814 43.9,50.275 43.9,50.309 43.9,50.35 43.75,52.2 46,52.35L47.9,52.4 48,50.55"/></g><defs/></svg>