<?xml version="1.0" encoding="utf-8"?><svg xmlns:xlink="http://www.w3.org/1999/xlink" id="Scene_1" image-rendering="auto" baseProfile="basic" version="1.1" x="0px" y="0px" width="100" height="100" viewBox="0 0 100 100" xmlns="http://www.w3.org/2000/svg"><g id="Scene 1_1.0"><path fill="#F1EFEE" d="M48.75,35L49.3,33.45 48.4,33.15 46.95,37.3 47.85,37.6 48.4,36.05 52.7,37.55 53.05,36.5 48.75,35"/><path fill="#F1EFEE" d="M49.25,40.45L48.4,40.2 47.75,42.3 46.45,41.95 47.25,39.45 46.35,39.15 45.25,42.7 50.5,44.35 51.6,40.7 50.7,40.4 49.9,43 48.6,42.6 49.25,40.45"/><path fill="#F1EFEE" d="M44.8,47.65L45.5,45.15 44.55,44.9 43.55,48.45 48.9,49.95 49.9,46.3 49,46 48.25,48.65 46.95,48.25 47.55,46.1 46.65,45.85 46.05,48 44.8,47.65"/><path fill="#F1EFEE" d="M48,53.7L48.05,53.55 43.05,50.35 42.8,51.4 45.85,53.25Q45.25,53.25 44.75,53.35L42.15,53.85 42.15,53.95 44.25,55.55Q45,56.1 45.2,56.1L41.6,56.4 41.35,57.55 47.25,56.85 47.25,56.75 44.9,54.9 44.05,54.35 45.05,54.25 48,53.7"/><path fill="#F1EFEE" d="M42.1,60.35L41.75,59.45Q40.75,59.85 40.55,60.95 40.4,61.65 40.7,62.2 41.05,62.75 41.7,62.9 42.8,63.1 43.6,61.85L43.8,61.55Q44.4,60.75 44.8,60.85 45.45,60.95 45.25,61.85 45.05,62.65 44.2,62.9L44.5,63.9Q45.85,63.55 46.15,62 46.35,61.15 46.05,60.5 45.7,59.9 45,59.75 43.9,59.55 42.95,61L42.7,61.3Q42.3,61.9 41.85,61.85 41.4,61.7 41.45,61.1 41.6,60.55 42.1,60.35"/></g><defs/></svg>