<?xml version="1.0" encoding="utf-8"?><svg xmlns:xlink="http://www.w3.org/1999/xlink" id="Scene_1" image-rendering="auto" baseProfile="basic" version="1.1" x="0px" y="0px" width="230" height="60" viewBox="0 0 230 60" xmlns="http://www.w3.org/2000/svg"><g id="Scene 1_1.0"><path fill="#9B9DA0" d="M223.5,22.15L223.5,20.4 212.95,20.4 212.95,39.7 223.5,39.7 223.5,37.95 214.9,37.95 214.9,30.85 223.25,30.85 223.25,29.05 214.9,29.05 214.9,22.15 223.5,22.15"/><path fill="#9B9DA0" d="M207.3,21.15Q205.8,20.4 202.55,20.4L197.65,20.4 197.65,39.7 199.6,39.7 199.6,22.15 202.95,22.15Q204.25,22.15 205,22.3 205.9,22.45 206.7,22.85 207.65,23.35 208.25,24.4 208.8,25.45 208.8,26.6 208.8,27.95 208,29.05 207.15,30.25 205.65,30.65 205,30.85 204.15,30.9 203.45,30.95 201.5,30.95L208.05,39.7 210.45,39.7 205,32.5Q207.65,32.3 209.25,30.5 210.75,28.85 210.75,26.6 210.75,24.85 209.85,23.35 208.9,21.85 207.3,21.15"/><path fill="#9B9DA0" d="M174.1,22.05Q171.4,20.1 168.1,20.1 163.95,20.1 161,22.95 158.05,25.85 158.05,30.05 158.05,34.25 161.05,37.2 164,40 168.15,40 170.65,40 172.95,38.75 175.55,37.3 177,34.6L174.85,34.6Q172.15,38.3 168.1,38.3 164.9,38.3 162.45,35.9 159.95,33.45 159.95,30.1 159.95,26.8 162.3,24.35 164.75,21.85 168.05,21.85 169.55,21.85 171.1,22.4 173.4,23.3 174.75,25.35L176.95,25.35Q176.15,23.55 174.1,22.05"/><path fill="#58595B" d="M154.95,20.4L153,20.4 153,39.7 154.95,39.7 154.95,20.4"/><path fill="#58595B" d="M130.05,22.15L130.05,20.4 119.5,20.4 119.5,39.7 130.05,39.7 130.05,37.95 121.4,37.95 121.4,30.85 129.75,30.85 129.75,29.05 121.4,29.05 121.4,22.15 130.05,22.15"/><path fill="#58595B" d="M113.7,22.5L113.75,22.5 113.75,39.7 115.7,39.7 115.7,20.4 112.7,20.4 105.7,36.8 98.65,20.4 95.7,20.4 95.7,39.7 97.6,39.7 97.6,22.5 97.7,22.5 104.85,39.7 106.5,39.7 113.7,22.5"/><path fill="#E7432A" d="M89.05,22.1L89.05,20.4 78.35,20.4 78.35,22.1 82.8,22.1 82.8,39.65 84.7,39.65 84.7,22.1 89.05,22.1"/><path fill="#E7432A" d="M62.85,22.1L62.85,20.4 52.3,20.4 52.3,39.65 62.85,39.65 62.85,37.85 54.25,37.85 54.25,30.8 62.55,30.8 62.55,29.05 54.25,29.05 54.25,22.1 62.85,22.1"/><path fill="#E7432A" d="M74.85,21.55Q73.3,20.05 71.1,20.05 68.8,20.05 67.25,21.5 65.65,22.95 65.65,25.25 65.65,27.45 67.25,28.85 67.9,29.4 68.85,29.75 69.4,29.95 70.65,30.3 71.7,30.55 72.2,30.8 73,31.1 73.6,31.55 74.25,32.05 74.6,32.8 74.95,33.5 74.95,34.3 74.95,35.95 73.8,37.05 72.65,38.1 70.95,38.1 69.35,38.1 68.25,36.95 67.15,35.85 67.1,34.25L65.05,34.25Q65.05,36.7 66.8,38.35 68.5,39.95 71,39.95 73.35,39.95 75.1,38.35 76.85,36.7 76.85,34.35 76.85,33.15 76.4,32.1 75.95,31.05 75.1,30.3 74.35,29.65 73.35,29.25 72.95,29.1 71.4,28.65 69.5,28.15 68.75,27.65 67.6,26.8 67.6,25.3 67.6,23.9 68.55,22.9 69.5,21.9 70.9,21.9 72.35,21.9 73.35,22.85 74.3,23.8 74.4,25.3L76.4,25.3Q76.45,23.1 74.85,21.55"/><path fill="#E7432A" d="M49.25,20.4L47.35,20.4 47.35,32.05Q47.35,33.45 47.15,34.3 46.9,35.5 46.25,36.35 45.65,37.2 44.7,37.65 43.75,38.1 42.7,38.1 41.55,38.1 40.6,37.6 39.6,37.05 38.95,36.1 38.1,34.7 38.1,32.05L38.1,20.4 36.15,20.4 36.15,32.05Q36.15,33.85 36.45,35 36.8,36.55 37.7,37.65 38.6,38.75 39.95,39.35 41.25,39.95 42.7,39.95 44.25,39.95 45.55,39.3 46.95,38.7 47.85,37.5 48.7,36.4 49,34.9 49.25,33.75 49.25,32.05L49.25,20.4"/><path fill="#E7432A" d="M10.95,22.65Q14,19.6 18.25,19.6 22.5,19.6 25.55,22.65 28.55,25.65 28.55,29.95 28.55,32.05 28.05,33.35 27.75,33.95 27.25,34.2 26.7,34.45 26.1,34.2 25.889,34.123 25.75,33.975 24.364,34.371 24.825,35.875L28.95,40.95Q31.15,38.8 32.3,36.05 33.55,33.15 33.55,30 33.55,23.65 29.05,19.2 24.6,14.7 18.25,14.7 11.9,14.7 7.45,19.2 2.95,23.65 2.95,30 2.95,36.35 7.45,40.8 11.9,45.3 18.25,45.3 22.8,45.3 26.6,42.85L21.975,37.15Q20.694,36.834 20.525,38 20.645,38.178 20.7,38.4 20.85,38.9 20.65,39.35 20.5,39.75 20.1,39.95 19.6,40.25 18.25,40.25 14,40.25 10.95,37.2 7.95,34.2 7.95,29.95 7.95,25.65 10.95,22.65"/><path fill="#58595B" d="M141.9,22.45Q143.4,22.8 144.65,23.65 146.15,24.75 147.05,26.4 147.95,28.1 147.95,30 147.95,33.85 144.9,36.35 143.45,37.4 141.45,37.75 140.25,37.95 138.3,37.95L135.5,37.95 135.5,32.75Q134.619,31.252 133.55,32.75L133.55,39.7 139.2,39.7Q141,39.7 142.65,39.3 144.3,38.85 145.5,38.1 147.9,36.55 149.05,33.9 149.85,32 149.85,30.1 149.85,28 148.95,25.95 147.8,23.45 145.5,22 144.35,21.2 142.65,20.8 141,20.4 139.2,20.4L133.55,20.4 133.55,26.6Q134.525,27.85 135.5,26.6L135.5,22.15 138.3,22.15Q140.45,22.15 141.9,22.45"/><path fill="#9B9DA0" d="M187.8,20.4L185.6,20.4 177.4,39.7 179.4,39.7 182.2,33.2 185,33.2Q186.021,32.418 185,31.45L182.95,31.45 186.7,22.6 190.4,31.45 188.75,31.45Q187.984,32.325 188.75,33.2L191.15,33.2 193.95,39.7 196.05,39.7 187.8,20.4"/></g><g id="Scene 1_0.0"><path fill="#E7432A" d="M18.3,22.35Q15.15,22.35 12.95,24.55 10.7,26.75 10.7,29.9 10.7,33.05 12.95,35.25 15.15,37.5 18.3,37.5 19.55,37.5 20,37.6 20.347,37.726 20.525,38 22.012,38.622 21.975,37.15L20.8,35.7Q20.55,35.35 20.55,34.9 20.6,34.45 20.95,34.15L21.65,33.65Q22,33.35 22.45,33.4 22.9,33.45 23.15,33.8L24.825,35.875Q26.563,35.22 25.75,33.975 25.512,33.713 25.45,33.25 25.4,32.75 25.55,32.1 25.85,30.85 25.85,29.9 25.85,26.75 23.65,24.55 21.45,22.35 18.3,22.35"/><path fill="#58595B" d="M135.5,26.6Q134.624,25.317 133.55,26.6L133.55,32.75Q134.525,34.033 135.5,32.75L135.5,26.6"/><path fill="#9B9DA0" d="M188.75,33.2Q189.646,32.325 188.75,31.45L185,31.45Q184.212,32.325 185,33.2L188.75,33.2"/></g><defs/></svg>