<?xml version="1.0" encoding="utf-8"?><svg xmlns:xlink="http://www.w3.org/1999/xlink" id="Scene_1" image-rendering="auto" baseProfile="basic" version="1.1" x="0px" y="0px" width="125" height="30" viewBox="0 0 125 30" xmlns="http://www.w3.org/2000/svg"><g id="Scene 1_1.0"><path fill="#9B9DA0" d="M122.3,15.85L122.3,14.9 117.75,14.9 117.75,11.1 122.4,11.1 122.4,10.15 116.65,10.15 116.65,20.7 122.4,20.7 122.4,19.75 117.75,19.75 117.75,15.85 122.3,15.85"/><path fill="#9B9DA0" d="M113.25,11.5Q113.8,11.8 114.1,12.35 114.4,12.9 114.4,13.55 114.4,14.3 113.95,14.9 113.5,15.55 112.7,15.75 112.35,15.85 111.85,15.9 111.5,15.9 110.45,15.9L114,20.7 115.3,20.7 112.35,16.75Q113.8,16.65 114.65,15.65 115.45,14.75 115.45,13.55 115.45,12.6 115,11.8 114.45,10.95 113.6,10.6 112.75,10.15 111,10.15L108.35,10.15 108.35,20.7 109.4,20.7 109.4,11.1 111.2,11.1Q111.95,11.1 112.35,11.2 112.8,11.3 113.25,11.5"/><path fill="#9B9DA0" d="M102.95,10.15L101.75,10.15 97.3,20.7 98.4,20.7 99.9,17.15 101.45,17.15Q102,16.7 101.45,16.2L100.3,16.2 102.35,11.35 104.4,16.2 103.5,16.2Q103.05,16.7 103.5,17.15L104.8,17.15 106.3,20.7 107.45,20.7 102.95,10.15"/><path fill="#9B9DA0" d="M95.5,11.05Q94,10 92.2,10 89.95,10 88.35,11.55 86.75,13.15 86.75,15.45 86.75,17.7 88.4,19.35 90,20.85 92.25,20.85 93.6,20.85 94.85,20.15 96.3,19.4 97.05,17.9L95.9,17.9Q94.45,19.95 92.2,19.95 90.5,19.95 89.15,18.6 87.8,17.3 87.8,15.45 87.8,13.65 89.05,12.3 90.4,10.95 92.2,10.95 93,10.95 93.85,11.25 95.1,11.75 95.85,12.85L97.05,12.85Q96.6,11.9 95.5,11.05"/><path fill="#58595B" d="M85.05,10.15L84,10.15 84,20.7 85.05,20.7 85.05,10.15"/><path fill="#58595B" d="M81.85,17.55Q82.25,16.5 82.25,15.45 82.25,14.3 81.8,13.2 81.15,11.85 79.9,11.05 79.3,10.6 78.35,10.4 77.45,10.15 76.45,10.15L73.4,10.15 73.4,13.55Q73.95,14.25 74.45,13.55L74.45,11.1 76,11.1Q77.15,11.1 77.95,11.3 78.75,11.5 79.45,11.95 80.25,12.55 80.75,13.45 81.25,14.35 81.25,15.4 81.25,17.5 79.6,18.85 78.8,19.45 77.7,19.65 77.05,19.75 76,19.75L74.45,19.75 74.45,16.9Q73.95,16.1 73.4,16.9L73.4,20.7 76.45,20.7Q77.45,20.7 78.35,20.45 79.25,20.2 79.9,19.8 81.2,18.95 81.85,17.55"/><path fill="#58595B" d="M71.5,11.1L71.5,10.15 65.75,10.15 65.75,20.7 71.5,20.7 71.5,19.75 66.75,19.75 66.75,15.85 71.3,15.85 71.3,14.9 66.75,14.9 66.75,11.1 71.5,11.1"/><path fill="#58595B" d="M63.65,10.15L62.05,10.15 58.2,19.1 54.35,10.15 52.75,10.15 52.75,20.7 53.8,20.7 53.8,11.3 53.85,11.3 57.75,20.7 58.65,20.7 62.55,11.3 62.6,11.3 62.6,20.7 63.65,20.7 63.65,10.15"/><path fill="#E7432A" d="M43.3,10.15L43.3,11.1 45.75,11.1 45.75,20.65 46.75,20.65 46.75,11.1 49.15,11.1 49.15,10.15 43.3,10.15"/><path fill="#E7432A" d="M42.25,16.55Q42,15.95 41.55,15.55 41.1,15.2 40.6,15 40.35,14.9 39.5,14.65 38.5,14.4 38.05,14.1 37.45,13.65 37.45,12.85 37.45,12.1 37.95,11.55 38.5,11 39.25,11 40.05,11 40.6,11.5 41.1,12 41.15,12.85L42.25,12.85Q42.25,11.65 41.4,10.8 40.55,10 39.35,10 38.1,10 37.25,10.75 36.4,11.55 36.4,12.8 36.4,14 37.25,14.75 37.6,15.05 38.15,15.25 38.45,15.35 39.1,15.55 39.7,15.7 39.95,15.85 40.4,16 40.7,16.25 41.05,16.5 41.25,16.95 41.45,17.3 41.45,17.75 41.45,18.65 40.8,19.25 40.2,19.8 39.25,19.8 38.4,19.8 37.8,19.2 37.2,18.6 37.15,17.7L36.05,17.7Q36.05,19.05 37,19.95 37.95,20.8 39.3,20.8 40.6,20.8 41.55,19.95 42.5,19.05 42.5,17.75 42.5,17.1 42.25,16.55"/><path fill="#E7432A" d="M34.85,11.1L34.85,10.15 29.1,10.15 29.1,20.65 34.85,20.65 34.85,19.7 30.15,19.7 30.15,15.85 34.7,15.85 34.7,14.9 30.15,14.9 30.15,11.1 34.85,11.1"/><path fill="#E7432A" d="M27.45,10.15L26.4,10.15 26.4,16.5Q26.4,17.3 26.3,17.75 26.15,18.4 25.8,18.85 25.5,19.35 24.95,19.55 24.45,19.8 23.85,19.8 23.25,19.8 22.75,19.55 22.2,19.25 21.85,18.75 21.35,17.95 21.35,16.5L21.35,10.15 20.3,10.15 20.3,16.5Q20.3,17.5 20.45,18.15 20.65,18.95 21.15,19.55 21.65,20.15 22.35,20.5 23.1,20.8 23.85,20.8 24.7,20.8 25.45,20.45 26.2,20.15 26.7,19.5 27.15,18.9 27.3,18.05 27.45,17.45 27.45,16.5L27.45,10.15"/><path fill="#E7432A" d="M10.55,9.75Q12.85,9.75 14.55,11.4 16.15,13.05 16.15,15.35 16.15,16.5 15.9,17.25 15.7,17.55 15.45,17.7 15.15,17.85 14.85,17.7 14.7,17.65 14.65,17.6 13.85,17.75 14.15,18.6L16.4,21.35Q17.6,20.2 18.2,18.7 18.9,17.1 18.9,15.4 18.9,11.95 16.45,9.5 14,7.05 10.55,7.05 7.1,7.05 4.65,9.5 2.2,11.95 2.2,15.4 2.2,18.85 4.65,21.3 7.1,23.75 10.55,23.75 13.05,23.75 15.1,22.4L12.6,19.3Q11.9,19.15 11.8,19.75 11.85,19.85 11.9,20 11.95,20.25 11.85,20.5 11.75,20.7 11.55,20.8 11.3,21 10.55,21 8.25,21 6.55,19.35 4.95,17.7 4.95,15.35 4.95,13.05 6.55,11.4 8.25,9.75 10.55,9.75"/></g><g id="Scene 1_0.0"><path fill="#9B9DA0" d="M103.5,17.15Q103.95,16.7 103.5,16.2L101.45,16.2Q101,16.7 101.45,17.15L103.5,17.15"/><path fill="#58595B" d="M74.45,13.55Q73.95,12.85 73.4,13.55L73.4,16.9Q73.95,17.6 74.45,16.9L74.45,13.55"/><path fill="#E7432A" d="M7.65,12.45Q6.45,13.65 6.45,15.35 6.45,17.05 7.65,18.25 8.85,19.5 10.55,19.5 11.25,19.5 11.5,19.55 11.7,19.65 11.8,19.75 12.6,20.1 12.6,19.3L11.95,18.5Q11.8,18.3 11.8,18.05 11.85,17.85 12,17.65L12.4,17.4Q12.6,17.25 12.85,17.25 13.1,17.3 13.2,17.45L14.15,18.6Q15.05,18.25 14.65,17.6 14.5,17.4 14.45,17.15 14.45,16.9 14.55,16.55 14.7,15.85 14.7,15.35 14.7,13.65 13.5,12.45 12.3,11.25 10.55,11.25 8.85,11.25 7.65,12.45"/></g><defs/></svg>