<?xml version="1.0" encoding="utf-8"?><svg xmlns:xlink="http://www.w3.org/1999/xlink" id="Scene_1" image-rendering="auto" baseProfile="basic" version="1.1" x="0px" y="0px" width="100" height="100" viewBox="0 0 100 100" xmlns="http://www.w3.org/2000/svg"><g><g id="circle" transform="matrix(1 0 0 1 50 50)"><animateTransform attributeName="transform" additive="replace" type="translate" repeatCount="indefinite" dur="0.444s" keyTimes="0;0.35;0.375;0.4;0.425;0.45;0.475;0.601;0.626;0.651;0.676;0.701;0.726;0.751;0.776;0.801;0.826;0.851;0.876;0.901;0.926;1" values="50,50;50,50;50.05,49.95;50,50;50,50;50.05,49.95;50,50;50,50;49.95,50.05;50.05,50.05;50.05,50.05;50,50;50,50.1;50,50;50,50;49.95,50.05;49.95,49.95;49.95,50.05;49.95,49.95;49.95,49.95;50,50;50,50" calcMode="discrete"/><animateTransform attributeName="transform" additive="sum" type="rotate" repeatCount="indefinite" dur="0.444s" keyTimes="0;0.025;0.05;0.075;0.1;0.125;0.15;0.175;0.2;0.225;0.25;0.275;0.3;0.325;0.35;0.375;0.4;0.425;0.45;0.475;0.501;0.526;0.551;0.576;0.601;0.626;0.651;0.676;0.701;0.726;0.751;0.776;0.801;0.826;0.851;0.876;0.901;0.926;0.951;0.976;1" values="0,0,0;9.005,0,0;18.021,0,0;27.043,0,0;36.07,0,0;45.1,0,0;54.131,0,0;63.159,0,0;72.18,0,0;81.195,0,0;90.013,0,0;99.02,0,0;108.034,0,0;117.056,0,0;126.084,0,0;135.114,0,0;144.145,0,0;153.171,0,0;162.194,0,0;171.207,0,0;180.026,0,0;189.033,0,0;198.047,0,0;207.068,0,0;216.097,0,0;225.127,0,0;234.158,0,0;243.184,0,0;252.206,0,0;261.222,0,0;270.039,0,0;279.046,0,0;288.06,0,0;297.083,0,0;306.11,0,0;315.14,0,0;324.172,0,0;333.198,0,0;342.22,0,0;351.206,0,0;0,0,0" calcMode="discrete"/><animateTransform attributeName="transform" additive="sum" type="scale" repeatCount="indefinite" dur="0.444s" keyTimes="0;0.025;0.05;0.075;0.175;0.2;0.225;0.25;0.275;0.3;0.325;0.425;0.45;0.475;0.501;0.526;0.551;0.576;0.601;0.626;0.651;0.676;0.701;0.726;0.751;0.776;0.801;0.826;0.851;0.901;0.926;0.951;0.976;1" values="1,1;0.999,0.999;0.998,0.998;0.997,0.997;0.997,0.997;0.998,0.998;0.999,0.999;1,1;0.999,0.999;0.998,0.998;0.997,0.997;0.997,0.997;0.998,0.998;0.999,0.999;1,1;0.999,0.999;0.998,0.998;0.997,0.997;0.997,0.997;0.996,0.996;0.997,0.997;0.997,0.997;0.998,0.998;0.999,0.999;1,1;0.999,0.999;0.998,0.998;0.997,0.997;0.996,0.996;0.996,0.996;0.997,0.997;0.998,0.998;0.999,0.999;1,1" calcMode="discrete"/><path fill="#EF672E" d="M20.75,-20.7Q12.15,-29.3 0,-29.3 -12.15,-29.3 -20.75,-20.7 -29.3,-12.15 -29.3,0 -29.3,12.15 -20.75,20.75 -12.15,29.3 0,29.3 12.15,29.3 20.75,20.75 29.3,12.15 29.3,0 29.3,-12.15 20.75,-20.7 M0.1,-14.7Q-6,-14.7 -10.3,-10.4 -14.6,-6.05 -14.6,0 -14.6,6.1 -10.3,10.4 -6,14.7 0.1,14.7 0.55,14.7 0.95,14.7 1.4,14.65 1.85,14.6 2.3,14.55 2.8,14.5 3.5,14.65 4.05,15.2 4.85,16 4.85,17.1 4.85,18.2 4.05,19 3.6,19.45 3.05,19.65 2.45,19.75 1.85,19.8L1.8,19.8Q0.95,19.85 0.1,19.85 -8.1,19.85 -13.9,14.05 -19.7,8.25 -19.7,0 -19.7,-8.15 -13.9,-14 -8.1,-19.8 0.1,-19.8 8.35,-19.8 14.15,-14 19.95,-8.15 19.95,0 19.95,3 19.2,5.65 19.1,6.05 18.95,6.45 18.8,6.85 18.65,7.25 18.55,7.4 18.4,7.55 17.6,8.35 16.5,8.35 15.4,8.35 14.6,7.55 13.8,6.75 13.8,5.65 13.8,5.55 13.8,5.45 13.9,5.15 14.05,4.85 14.15,4.5 14.25,4.25 14.8,2.25 14.8,0 14.8,-6.05 10.5,-10.4 6.2,-14.7 0.1,-14.7"/></g></g><defs/></svg>