<?xml version="1.0" encoding="utf-8"?><svg xmlns:xlink="http://www.w3.org/1999/xlink" id="Scene_1" image-rendering="auto" baseProfile="basic" version="1.1" x="0px" y="0px" width="250" height="50" viewBox="0 0 250 50" xmlns="http://www.w3.org/2000/svg"><g id="Scene 1_2.0"><path fill="#9B9DA0" d="M226.65,24.05L226.65,17.15 235.25,17.15 235.25,15.4 224.7,15.4 224.7,34.7 235.25,34.7 235.25,32.95 226.65,32.95 226.65,25.85 235,25.85 235,24.05 226.65,24.05"/><path fill="#9B9DA0" d="M220,19.4Q220.55,20.45 220.55,21.6 220.55,22.95 219.75,24.05 218.9,25.25 217.4,25.65 216.75,25.85 215.9,25.9 215.2,25.95 213.25,25.95L219.8,34.7 222.2,34.7 216.75,27.5Q219.4,27.3 221,25.5 222.5,23.85 222.5,21.6 222.5,19.85 221.6,18.35 220.65,16.85 219.05,16.15 217.55,15.4 214.3,15.4L209.4,15.4 209.4,34.7 211.35,34.7 211.35,17.15 214.7,17.15Q216,17.15 216.75,17.3 217.65,17.45 218.45,17.85 219.4,18.35 220,19.4"/><path fill="#9B9DA0" d="M205.7,34.7L207.8,34.7 199.55,15.4 197.35,15.4 189.15,34.7 191.15,34.7 193.95,28.2 196.75,28.2Q197.75,27.4 196.75,26.45L194.7,26.45 198.45,17.6 202.15,26.45 200.5,26.45Q199.75,27.35 200.5,28.2L202.9,28.2 205.7,34.7"/><path fill="#9B9DA0" d="M186.5,20.35L188.7,20.35Q187.9,18.55 185.85,17.05 183.15,15.1 179.85,15.1 175.7,15.1 172.75,17.95 169.8,20.85 169.8,25.05 169.8,29.25 172.8,32.2 175.75,35 179.9,35 182.4,35 184.7,33.75 187.3,32.3 188.75,29.6L186.6,29.6Q183.9,33.3 179.85,33.3 176.65,33.3 174.2,30.9 171.7,28.45 171.7,25.1 171.7,21.8 174.05,19.35 176.5,16.85 179.8,16.85 181.3,16.85 182.85,17.4 185.15,18.3 186.5,20.35"/><path fill="#58595B" d="M166.7,15.4L164.75,15.4 164.75,34.7 166.7,34.7 166.7,15.4"/><path fill="#58595B" d="M141.8,17.15L141.8,15.4 131.25,15.4 131.25,34.7 141.8,34.7 141.8,32.95 133.15,32.95 133.15,25.85 141.5,25.85 141.5,24.05 133.15,24.05 133.15,17.15 141.8,17.15"/><path fill="#58595B" d="M150.95,15.4L145.3,15.4 145.3,21.6Q146.3,22.85 147.25,21.6L147.25,17.15 150.05,17.15Q152.2,17.15 153.65,17.45 155.15,17.8 156.4,18.65 157.9,19.75 158.8,21.4 159.7,23.1 159.7,25 159.7,28.85 156.65,31.35 155.2,32.4 153.2,32.75 152,32.95 150.05,32.95L147.25,32.95 147.25,27.75Q146.35,26.25 145.3,27.75L145.3,34.7 150.95,34.7Q152.75,34.7 154.4,34.3 156.05,33.85 157.25,33.1 159.65,31.55 160.8,28.9 161.6,27 161.6,25.1 161.6,23 160.7,20.95 159.55,18.45 157.25,17 156.1,16.2 154.4,15.8 152.75,15.4 150.95,15.4"/><path fill="#58595B" d="M127.45,15.4L124.45,15.4 117.45,31.8 110.4,15.4 107.45,15.4 107.45,34.7 109.35,34.7 109.35,17.5 109.45,17.5 116.6,34.7 118.25,34.7 125.45,17.5 125.5,17.5 125.5,34.7 127.45,34.7 127.45,15.4"/><path fill="#E7432A" d="M85.1,24.25Q84.7,24.1 83.15,23.65 81.25,23.15 80.5,22.65 79.35,21.8 79.35,20.3 79.35,18.9 80.3,17.9 81.25,16.9 82.65,16.9 84.1,16.9 85.1,17.85 86.05,18.8 86.15,20.3L88.15,20.3Q88.2,18.1 86.6,16.55 85.05,15.05 82.85,15.05 80.55,15.05 79,16.5 77.4,17.95 77.4,20.25 77.4,22.45 79,23.85 79.65,24.4 80.6,24.75 81.15,24.95 82.4,25.3 83.45,25.55 83.95,25.8 84.75,26.1 85.35,26.55 86,27.05 86.35,27.8 86.7,28.5 86.7,29.3 86.7,30.95 85.55,32.05 84.4,33.1 82.7,33.1 81.1,33.1 80,31.95 78.9,30.85 78.85,29.25L76.8,29.25Q76.8,31.7 78.55,33.35 80.25,34.95 82.75,34.95 85.1,34.95 86.85,33.35 88.6,31.7 88.6,29.35 88.6,28.15 88.15,27.1 87.7,26.05 86.85,25.3 86.1,24.65 85.1,24.25"/><path fill="#E7432A" d="M90.1,15.4L90.1,17.1 94.55,17.1 94.55,34.65 96.45,34.65 96.45,17.1 100.8,17.1 100.8,15.4 90.1,15.4"/><path fill="#E7432A" d="M66,24.05L66,17.1 74.6,17.1 74.6,15.4 64.05,15.4 64.05,34.65 74.6,34.65 74.6,32.85 66,32.85 66,25.8 74.3,25.8 74.3,24.05 66,24.05"/><path fill="#E7432A" d="M49.85,15.4L47.9,15.4 47.9,27.05Q47.9,28.85 48.2,30 48.55,31.55 49.45,32.65 50.35,33.75 51.7,34.35 53,34.95 54.45,34.95 56,34.95 57.3,34.3 58.7,33.7 59.6,32.5 60.45,31.4 60.75,29.9 61,28.75 61,27.05L61,15.4 59.1,15.4 59.1,27.05Q59.1,28.45 58.9,29.3 58.65,30.5 58,31.35 57.4,32.2 56.45,32.65 55.5,33.1 54.45,33.1 53.3,33.1 52.35,32.6 51.35,32.05 50.7,31.1 49.85,29.7 49.85,27.05L49.85,15.4"/><path fill="#E7432A" d="M40.7,35.95Q42.9,33.8 44.05,31.05 45.3,28.15 45.3,25 45.3,18.65 40.8,14.2 36.35,9.7 30,9.7 23.65,9.7 19.2,14.2 14.7,18.65 14.7,25 14.7,31.35 19.2,35.8 23.65,40.3 30,40.3 34.55,40.3 38.35,37.85L33.75,32.15Q32.45,31.85 32.3,33 32.4,33.2 32.45,33.4 32.6,33.9 32.4,34.35 32.25,34.75 31.85,34.95 31.35,35.25 30,35.25 25.75,35.25 22.7,32.2 19.7,29.2 19.7,24.95 19.7,20.65 22.7,17.65 25.75,14.6 30,14.6 34.25,14.6 37.3,17.65 40.3,20.65 40.3,24.95 40.3,27.05 39.8,28.35 39.5,28.95 39,29.2 38.45,29.45 37.85,29.2 37.65,29.1 37.5,29 36.1,29.35 36.6,30.9L40.7,35.95"/></g><g id="Scene 1_1.0"><path fill="#9B9DA0" d="M200.5,26.45L196.75,26.45Q195.95,27.35 196.75,28.2L200.5,28.2Q201.4,27.35 200.5,26.45"/><path fill="#58595B" d="M147.25,21.6Q146.35,20.3 145.3,21.6L145.3,27.75Q146.3,29.05 147.25,27.75L147.25,21.6"/><path fill="#E7432A" d="M30.05,17.35Q26.9,17.35 24.7,19.55 22.45,21.75 22.45,24.9 22.45,28.05 24.7,30.25 26.9,32.5 30.05,32.5 31.3,32.5 31.75,32.6 32.1,32.75 32.3,33 33.75,33.6 33.75,32.15L32.55,30.7Q32.3,30.35 32.3,29.9 32.35,29.45 32.7,29.15L33.4,28.65Q33.75,28.35 34.2,28.4 34.65,28.45 34.9,28.8L36.6,30.9Q38.3,30.2 37.5,29 37.25,28.7 37.2,28.25 37.15,27.75 37.3,27.1 37.6,25.85 37.6,24.9 37.6,21.75 35.4,19.55 33.2,17.35 30.05,17.35"/></g><defs/></svg>